MontserratZ-Medium.ufo
<glyph name="exclam" format="2">
  <advance width="268"/>
  <unicode hex="0021"/>
  <outline>
    <contour>
      <point x="96.2632" y="220.94" type="line"/>
      <point x="77.9048" y="700" type="line"/>
      <point x="191.123" y="700" type="line"/>
      <point x="171.92" y="220.94" type="line"/>
    </contour>
    <contour>
      <point x="134.514" y="-5.53383" type="qcurve" smooth="yes"/>
      <point x="106.777" y="-5.53383"/>
      <point x="68.8171" y="32.4261"/>
      <point x="68.8171" y="58.4737" type="qcurve" smooth="yes"/>
      <point x="68.8171" y="85.5213"/>
      <point x="106.777" y="122.481"/>
      <point x="134.514" y="122.481" type="qcurve" smooth="yes"/>
      <point x="163.251" y="122.481"/>
      <point x="199.366" y="85.5213"/>
      <point x="199.366" y="58.4737" type="qcurve" smooth="yes"/>
      <point x="199.366" y="32.4261"/>
      <point x="163.251" y="-5.53383"/>
    </contour>
  </outline>
</glyph>
<glyph name="numbersign" format="2">
  <advance width="703"/>
  <unicode hex="0023"/>
  <outline>
    <contour>
      <point x="402.797" y="0" type="line"/>
      <point x="488.797" y="700" type="line"/>
      <point x="560.318" y="700" type="line"/>
      <point x="474.318" y="0" type="line"/>
    </contour>
    <contour>
      <point x="26.5539" y="180.439" type="line"/>
      <point x="26.5539" y="252.649" type="line"/>
      <point x="643.717" y="252.649" type="line"/>
      <point x="643.717" y="180.439" type="line"/>
    </contour>
    <contour>
      <point x="142.797" y="0" type="line"/>
      <point x="229.642" y="700" type="line"/>
      <point x="301.163" y="700" type="line"/>
      <point x="214.318" y="0" type="line"/>
    </contour>
    <contour>
      <point x="59.2431" y="447.351" type="line"/>
      <point x="59.2431" y="519.561" type="line"/>
      <point x="675.561" y="519.561" type="line"/>
      <point x="676.406" y="447.351" type="line"/>
    </contour>
  </outline>
</glyph>
<glyph name="ampersand" format="2">
  <advance width="686"/>
  <unicode hex="0026"/>
  <outline>
    <contour>
      <point x="289.892" y="-8.06767" type="qcurve" smooth="yes"/>
      <point x="219.291" y="-8.06767"/>
      <point x="108.622" y="38.3108"/>
      <point x="45.0201" y="120.223"/>
      <point x="45.0201" y="173.912" type="qcurve" smooth="yes"/>
      <point x="45.0201" y="221.358"/>
      <point x="86.9323" y="298.96"/>
      <point x="179.223" y="371.96"/>
      <point x="253.757" y="410.737" type="qcurve" smooth="yes"/>
      <point x="314.845" y="443.135"/>
      <point x="384.088" y="491"/>
      <point x="412.709" y="534.02"/>
      <point x="412.709" y="558.574" type="qcurve" smooth="yes"/>
      <point x="412.709" y="593.06"/>
      <point x="364.912" y="635.857"/>
      <point x="320.271" y="635.857" type="qcurve" smooth="yes"/>
      <point x="272.629" y="635.857"/>
      <point x="219.677" y="588.749"/>
      <point x="219.677" y="551.108" type="qcurve" smooth="yes"/>
      <point x="219.677" y="532.175"/>
      <point x="232.832" y="497.466"/>
      <point x="268.298" y="453.757"/>
      <point x="300.609" y="420.825" type="qcurve" smooth="yes"/>
      <point x="670.92" y="52.8321" type="line"/>
      <point x="617.068" y="-10.8446" type="line"/>
      <point x="224.331" y="379.729" type="line" smooth="yes"/>
      <point x="189.331" y="414.506"/>
      <point x="148.642" y="470.351"/>
      <point x="131.263" y="521.729"/>
      <point x="131.263" y="549.419" type="qcurve" smooth="yes"/>
      <point x="131.263" y="596.331"/>
      <point x="177.554" y="667.311"/>
      <point x="263.291" y="706.378"/>
      <point x="320.271" y="706.378" type="qcurve" smooth="yes"/>
      <point x="373.406" y="706.378"/>
      <point x="450.764" y="671.311"/>
      <point x="494.21" y="606.02"/>
      <point x="494.21" y="560.263" type="qcurve" smooth="yes"/>
      <point x="494.21" y="520.196"/>
      <point x="455.298" y="451.905"/>
      <point x="368.697" y="388.06"/>
      <point x="296.318" y="351.128" type="qcurve" smooth="yes"/>
      <point x="236.298" y="319.952"/>
      <point x="167.967" y="267.155"/>
      <point x="139.346" y="215.135"/>
      <point x="139.346" y="184.048" type="qcurve" smooth="yes"/>
      <point x="139.346" y="150.717"/>
      <point x="178.366" y="100.143"/>
      <point x="248.784" y="72.2782"/>
      <point x="295.804" y="72.2782" type="qcurve" smooth="yes"/>
      <point x="363.203" y="72.2782"/>
      <point x="470.601" y="129.744"/>
      <point x="544.223" y="245.832"/>
      <point x="560.534" y="332.231" type="qcurve"/>
      <point x="638.346" y="307.115" type="line"/>
      <point x="618.501" y="206.426"/>
      <point x="521.298" y="65.7569"/>
      <point x="379.028" y="-8.06767"/>
    </contour>
  </outline>
</glyph>
<glyph name="parenleft" format="2">
  <advance width="337"/>
  <unicode hex="0028"/>
  <outline>
    <contour>
      <point x="213.729" y="-194" type="line"/>
      <point x="156.506" y="-103"/>
      <point x="95.1278" y="135.845"/>
      <point x="95.1278" y="274" type="qcurve" smooth="yes"/>
      <point x="95.1278" y="412.155"/>
      <point x="156.506" y="653.155"/>
      <point x="213.729" y="742" type="qcurve"/>
      <point x="305.366" y="742" type="line"/>
      <point x="244.987" y="635.865"/>
      <point x="189.454" y="405.399"/>
      <point x="189.454" y="274" type="qcurve" smooth="yes"/>
      <point x="189.454" y="142.601"/>
      <point x="244.987" y="-87.8647"/>
      <point x="305.366" y="-194" type="qcurve"/>
    </contour>
  </outline>
</glyph>
<glyph name="parenright" format="2">
  <advance width="338"/>
  <unicode hex="0029"/>
  <outline>
    <contour>
      <point x="123.454" y="-194" type="qcurve"/>
      <point x="31.8171" y="-194" type="line"/>
      <point x="93.0401" y="-87.8647"/>
      <point x="148.574" y="142.601"/>
      <point x="148.574" y="274" type="qcurve" smooth="yes"/>
      <point x="148.574" y="405.399"/>
      <point x="93.0401" y="635.865"/>
      <point x="31.8171" y="742" type="qcurve"/>
      <point x="123.454" y="742" type="line"/>
      <point x="181.521" y="653.155"/>
      <point x="242.9" y="412.155"/>
      <point x="242.9" y="274" type="qcurve" smooth="yes"/>
      <point x="242.9" y="135.845"/>
      <point x="181.521" y="-103"/>
    </contour>
  </outline>
</glyph>
<glyph name="asterisk" format="2">
  <advance width="400"/>
  <unicode hex="002A"/>
  <outline>
    <contour>
      <point x="380.832" y="621.972" type="line"/>
      <point x="244.744" y="545.885" type="line"/>
      <point x="244.744" y="565.175" type="line"/>
      <point x="380.832" y="489.088" type="line"/>
      <point x="349.872" y="434.236" type="line"/>
      <point x="218.007" y="511.168" type="line"/>
      <point x="229.386" y="517.702" type="line"/>
      <point x="230.231" y="369.06" type="line"/>
      <point x="170" y="369.06" type="line"/>
      <point x="170.845" y="517.702" type="line"/>
      <point x="182.378" y="511.168" type="line"/>
      <point x="50.3584" y="434.236" type="line"/>
      <point x="19.3985" y="489.088" type="line"/>
      <point x="156.486" y="565.175" type="line"/>
      <point x="156.486" y="545.885" type="line"/>
      <point x="19.3985" y="621.972" type="line"/>
      <point x="50.3584" y="677.669" type="line"/>
      <point x="182.223" y="599.892" type="line"/>
      <point x="170.845" y="593.358" type="line"/>
      <point x="170" y="742" type="line"/>
      <point x="230.231" y="742" type="line"/>
      <point x="229.386" y="593.358" type="line"/>
      <point x="218.007" y="599.892" type="line"/>
      <point x="349.872" y="677.669" type="line"/>
    </contour>
  </outline>
</glyph>
<glyph name="plus" format="2">
  <advance width="582"/>
  <unicode hex="002B"/>
  <outline>
    <contour>
      <point x="248.885" y="131.419" type="line"/>
      <point x="248.885" y="568.581" type="line"/>
      <point x="333.075" y="568.581" type="line"/>
      <point x="333.075" y="131.419" type="line"/>
    </contour>
    <contour>
      <point x="67.3985" y="310.439" type="line"/>
      <point x="67.3985" y="389.406" type="line"/>
      <point x="514.561" y="389.406" type="line"/>
      <point x="514.561" y="310.439" type="line"/>
    </contour>
  </outline>
</glyph>
<glyph name="hyphen" format="2">
  <advance width="383"/>
  <unicode hex="002D"/>
  <outline>
    <contour>
      <point x="57.3985" y="233.04" type="line"/>
      <point x="57.3985" y="316.231" type="line"/>
      <point x="325.98" y="316.231" type="line"/>
      <point x="325.98" y="233.04" type="line"/>
    </contour>
  </outline>
</glyph>
<glyph name="period" format="2">
  <advance width="227"/>
  <unicode hex="002E"/>
  <outline>
    <contour>
      <point x="113.804" y="-5.53383" type="qcurve" smooth="yes"/>
      <point x="86.0677" y="-5.53383"/>
      <point x="46.4186" y="33.2707"/>
      <point x="46.4186" y="62.6967" type="qcurve" smooth="yes"/>
      <point x="46.4186" y="93.1228"/>
      <point x="86.0677" y="130.927"/>
      <point x="113.804" y="130.927" type="qcurve" smooth="yes"/>
      <point x="140.852" y="130.927"/>
      <point x="180.346" y="93.1228"/>
      <point x="180.346" y="62.6967" type="qcurve" smooth="yes"/>
      <point x="180.346" y="33.2707"/>
      <point x="140.852" y="-5.53383"/>
    </contour>
  </outline>
</glyph>
<glyph name="zero" format="2">
  <advance width="667"/>
  <unicode hex="0030"/>
  <outline>
    <contour>
      <point x="333.601" y="-8.06767" type="qcurve" smooth="yes"/>
      <point x="252.068" y="-8.06767"/>
      <point x="122.622" y="76.3985"/>
      <point x="48.0201" y="236.243"/>
      <point x="48.0201" y="350" type="qcurve" smooth="yes"/>
      <point x="48.0201" y="463.757"/>
      <point x="122.622" y="623.601"/>
      <point x="252.068" y="708.068"/>
      <point x="333.601" y="708.068" type="qcurve" smooth="yes"/>
      <point x="415.291" y="708.068"/>
      <point x="544.581" y="623.601"/>
      <point x="619.183" y="463.757"/>
      <point x="619.183" y="350" type="qcurve" smooth="yes"/>
      <point x="619.183" y="236.243"/>
      <point x="544.581" y="76.3985"/>
      <point x="415.291" y="-8.06767"/>
    </contour>
    <contour>
      <point x="333.601" y="81.035" type="qcurve" smooth="yes"/>
      <point x="389.02" y="81.035"/>
      <point x="472.148" y="141.075"/>
      <point x="518.945" y="260.669"/>
      <point x="518.945" y="350" type="qcurve" smooth="yes"/>
      <point x="518.945" y="439.486"/>
      <point x="472.148" y="558.925"/>
      <point x="389.02" y="618.965"/>
      <point x="333.601" y="618.965" type="qcurve" smooth="yes"/>
      <point x="279.183" y="618.965"/>
      <point x="195.055" y="558.925"/>
      <point x="148.258" y="439.486"/>
      <point x="148.258" y="350" type="qcurve" smooth="yes"/>
      <point x="148.258" y="260.669"/>
      <point x="195.055" y="141.075"/>
      <point x="279.183" y="81.035"/>
    </contour>
  </outline>
</glyph>
<glyph name="one" format="2">
  <advance width="370"/>
  <unicode hex="0031"/>
  <outline>
    <contour>
      <point x="165.506" y="0" type="line"/>
      <point x="165.506" y="660.283" type="line"/>
      <point x="209.135" y="613.431" type="line"/>
      <point x="8.31078" y="613.431" type="line"/>
      <point x="8.31078" y="700" type="line"/>
      <point x="264.744" y="700" type="line"/>
      <point x="264.744" y="0" type="line"/>
    </contour>
  </outline>
</glyph>
<glyph name="two" format="2">
  <advance width="574"/>
  <unicode hex="0032"/>
  <outline>
    <contour>
      <point x="37.0877" y="0" type="line"/>
      <point x="37.0877" y="68.2105" type="line"/>
      <point x="322.351" y="343.115" type="line" smooth="yes"/>
      <point x="359.749" y="378.825"/>
      <point x="397.303" y="434.155"/>
      <point x="409.925" y="481.331"/>
      <point x="409.925" y="502.729" type="qcurve" smooth="yes"/>
      <point x="409.925" y="557.303"/>
      <point x="334.419" y="618.965"/>
      <point x="261.378" y="618.965" type="qcurve" smooth="yes"/>
      <point x="204.581" y="618.965"/>
      <point x="114.629" y="582.033"/>
      <point x="81.6967" y="543.256" type="qcurve"/>
      <point x="13.6416" y="602.02" type="line"/>
      <point x="54.3308" y="652.777"/>
      <point x="188.757" y="708.068"/>
      <point x="269.825" y="708.068" type="qcurve" smooth="yes"/>
      <point x="343.426" y="708.068"/>
      <point x="451.406" y="660.845"/>
      <point x="510.163" y="573.243"/>
      <point x="510.163" y="513.02" type="qcurve" smooth="yes"/>
      <point x="510.163" y="479.175"/>
      <point x="492.007" y="412.642"/>
      <point x="442.318" y="338.952"/>
      <point x="394.629" y="292.952" type="qcurve" smooth="yes"/>
      <point x="141.17" y="48.1629" type="line"/>
      <point x="117.346" y="86.5689" type="line"/>
      <point x="539.717" y="86.5689" type="line"/>
      <point x="539.717" y="0" type="line"/>
    </contour>
  </outline>
</glyph>
<glyph name="three" format="2">
  <advance width="572"/>
  <unicode hex="0033"/>
  <outline>
    <contour>
      <point x="262.378" y="-8.06767" type="qcurve" smooth="yes"/>
      <point x="187.601" y="-8.06767"/>
      <point x="49.3108" y="37.797"/>
      <point x="4.64161" y="77.4186" type="qcurve"/>
      <point x="50.5814" y="156.298" type="line"/>
      <point x="86.3383" y="123.21"/>
      <point x="198.048" y="81.035"/>
      <point x="261.534" y="81.035" type="qcurve" smooth="yes"/>
      <point x="340.196" y="81.035"/>
      <point x="426.925" y="148.318"/>
      <point x="426.925" y="204.669" type="qcurve" smooth="yes"/>
      <point x="426.925" y="260.175"/>
      <point x="344.108" y="326.614"/>
      <point x="254.446" y="326.614" type="qcurve" smooth="yes"/>
      <point x="198.175" y="326.614" type="line"/>
      <point x="198.175" y="397.358" type="line"/>
      <point x="405.682" y="652.526" type="line"/>
      <point x="420.351" y="613.431" type="line"/>
      <point x="36.7769" y="613.431" type="line"/>
      <point x="36.7769" y="700" type="line"/>
      <point x="499.474" y="700" type="line"/>
      <point x="499.474" y="631.79" type="line"/>
      <point x="291.967" y="376.622" type="line"/>
      <point x="240.135" y="408.115" type="line"/>
      <point x="272.872" y="408.115" type="line" smooth="yes"/>
      <point x="400.251" y="408.115"/>
      <point x="527.163" y="294.203"/>
      <point x="527.163" y="205.514" type="qcurve" smooth="yes"/>
      <point x="527.163" y="146.669"/>
      <point x="469.095" y="49.3784"/>
      <point x="351.737" y="-8.06767"/>
    </contour>
  </outline>
</glyph>
<glyph name="four" format="2">
  <advance width="669"/>
  <unicode hex="0034"/>
  <outline>
    <contour>
      <point x="37.5539" y="171.682" type="line"/>
      <point x="37.5539" y="242.426" type="line"/>
      <point x="396.08" y="700" type="line"/>
      <point x="503.697" y="700" type="line"/>
      <point x="149.393" y="242.426" type="line"/>
      <point x="97.5413" y="258.251" type="line"/>
      <point x="656.561" y="258.251" type="line"/>
      <point x="656.561" y="171.682" type="line"/>
    </contour>
    <contour>
      <point x="427.351" y="0" type="line"/>
      <point x="427.351" y="171.682" type="line"/>
      <point x="429.885" y="258.251" type="line"/>
      <point x="429.885" y="410" type="line"/>
      <point x="524.21" y="410" type="line"/>
      <point x="524.21" y="0" type="line"/>
    </contour>
  </outline>
</glyph>
<glyph name="five" format="2">
  <advance width="574"/>
  <unicode hex="0035"/>
  <outline>
    <contour>
      <point x="274.223" y="-8.06767" type="qcurve" smooth="yes"/>
      <point x="199.757" y="-8.06767"/>
      <point x="61.4662" y="37.797"/>
      <point x="16.797" y="77.4186" type="qcurve"/>
      <point x="62.7368" y="156.298" type="line"/>
      <point x="98.4937" y="123.21"/>
      <point x="210.048" y="81.035"/>
      <point x="273.378" y="81.035" type="qcurve" smooth="yes"/>
      <point x="352.662" y="81.035"/>
      <point x="439.08" y="149.251"/>
      <point x="439.08" y="206.135" type="qcurve" smooth="yes"/>
      <point x="439.08" y="245.399"/>
      <point x="400.749" y="302.905"/>
      <point x="307.777" y="334.08"/>
      <point x="226.581" y="334.08" type="qcurve" smooth="yes"/>
      <point x="68.3985" y="334.08" type="line"/>
      <point x="104.554" y="700" type="line"/>
      <point x="500.095" y="700" type="line"/>
      <point x="500.095" y="613.431" type="line"/>
      <point x="141.737" y="613.431" type="line"/>
      <point x="194.346" y="661.972" type="line"/>
      <point x="165.258" y="372.642" type="line"/>
      <point x="112.804" y="421.494" type="line"/>
      <point x="248.318" y="421.494" type="line" smooth="yes"/>
      <point x="352.94" y="421.494"/>
      <point x="480.784" y="367.426"/>
      <point x="539.318" y="272.358"/>
      <point x="539.318" y="210.358" type="qcurve" smooth="yes"/>
      <point x="539.318" y="150.135"/>
      <point x="481.406" y="50.6892"/>
      <point x="364.048" y="-8.06767"/>
    </contour>
  </outline>
</glyph>
<glyph name="six" format="2">
  <advance width="617"/>
  <unicode hex="0036"/>
  <outline>
    <contour>
      <point x="342.135" y="-8.06767" type="qcurve" smooth="yes"/>
      <point x="248.601" y="-8.06767"/>
      <point x="116.622" y="73.7093"/>
      <point x="48.0201" y="229.331"/>
      <point x="48.0201" y="340.709" type="qcurve" smooth="yes"/>
      <point x="48.0201" y="460.399"/>
      <point x="132.311" y="624"/>
      <point x="281.514" y="708.068"/>
      <point x="378.96" y="708.068" type="qcurve" smooth="yes"/>
      <point x="428.561" y="708.068"/>
      <point x="519.764" y="688.155"/>
      <point x="553.298" y="666.622" type="qcurve"/>
      <point x="515.426" y="588.81" type="line"/>
      <point x="487.737" y="607.499"/>
      <point x="419.115" y="622.343"/>
      <point x="380.649" y="622.343" type="qcurve" smooth="yes"/>
      <point x="274.075" y="622.343"/>
      <point x="148.258" y="489.283"/>
      <point x="148.258" y="357.912" type="qcurve" smooth="yes"/>
      <point x="148.258" y="337.135"/>
      <point x="151.88" y="279.251"/>
      <point x="159.657" y="250.541" type="qcurve"/>
      <point x="126.318" y="285.373" type="line"/>
      <point x="140.987" y="331.103"/>
      <point x="205.677" y="394.007"/>
      <point x="297.318" y="425.426"/>
      <point x="350.338" y="425.426" type="qcurve" smooth="yes"/>
      <point x="420.338" y="425.426"/>
      <point x="527.561" y="372.892"/>
      <point x="589.629" y="277.514"/>
      <point x="589.629" y="212.98" type="qcurve" smooth="yes"/>
      <point x="589.629" y="145.912"/>
      <point x="524.183" y="46.3108"/>
      <point x="412.203" y="-8.06767"/>
    </contour>
    <contour>
      <point x="337.912" y="73.4336" type="qcurve" smooth="yes"/>
      <point x="383.554" y="73.4336"/>
      <point x="453.439" y="106.764"/>
      <point x="492.769" y="167.96"/>
      <point x="492.769" y="208.757" type="qcurve" smooth="yes"/>
      <point x="492.769" y="270.797"/>
      <point x="406.952" y="343.925"/>
      <point x="333.446" y="343.925" type="qcurve" smooth="yes"/>
      <point x="285.494" y="343.925"/>
      <point x="212.987" y="308.283"/>
      <point x="171.657" y="246.932"/>
      <point x="171.657" y="207.601" type="qcurve" smooth="yes"/>
      <point x="171.657" y="172.048"/>
      <point x="209.832" y="110.697"/>
      <point x="284.338" y="73.4336"/>
    </contour>
  </outline>
</glyph>
<glyph name="seven" format="2">
  <advance width="598"/>
  <unicode hex="0037"/>
  <outline>
    <contour>
      <point x="169.108" y="0" type="line"/>
      <point x="465.526" y="658.439" type="line"/>
      <point x="491.885" y="613.431" type="line"/>
      <point x="75.7168" y="613.431" type="line"/>
      <point x="126.103" y="661.972" type="line"/>
      <point x="126.103" y="488.479" type="line"/>
      <point x="30.0877" y="488.479" type="line"/>
      <point x="30.0877" y="700" type="line"/>
      <point x="558.318" y="700" type="line"/>
      <point x="558.318" y="631.79" type="line"/>
      <point x="274.88" y="0" type="line"/>
    </contour>
  </outline>
</glyph>
<glyph name="eight" format="2">
  <advance width="644"/>
  <unicode hex="0038"/>
  <outline>
    <contour>
      <point x="321.135" y="-8.06767" type="qcurve" smooth="yes"/>
      <point x="235.912" y="-8.06767"/>
      <point x="111.777" y="42.1554"/>
      <point x="44.0201" y="134.912"/>
      <point x="44.0201" y="198.135" type="qcurve" smooth="yes"/>
      <point x="44.0201" y="260.203"/>
      <point x="109.243" y="346.581"/>
      <point x="233.378" y="392.271"/>
      <point x="321.135" y="392.271" type="qcurve" smooth="yes"/>
      <point x="408.892" y="392.271"/>
      <point x="534.028" y="346.581"/>
      <point x="600.251" y="259.358"/>
      <point x="600.251" y="198.135" type="qcurve" smooth="yes"/>
      <point x="600.251" y="134.912"/>
      <point x="531.649" y="42.1554"/>
      <point x="406.358" y="-8.06767"/>
    </contour>
    <contour>
      <point x="321.135" y="73.4336" type="qcurve" smooth="yes"/>
      <point x="404.574" y="73.4336"/>
      <point x="500.013" y="141.784"/>
      <point x="500.013" y="200.514" type="qcurve" smooth="yes"/>
      <point x="500.013" y="258.932"/>
      <point x="404.574" y="326.439"/>
      <point x="321.135" y="326.439" type="qcurve" smooth="yes"/>
      <point x="237.852" y="326.439"/>
      <point x="144.258" y="258.932"/>
      <point x="144.258" y="200.514" type="qcurve" smooth="yes"/>
      <point x="144.258" y="141.784"/>
      <point x="237.852" y="73.4336"/>
    </contour>
    <contour>
      <point x="321.135" y="337.885" type="qcurve" smooth="yes"/>
      <point x="241.223" y="337.885"/>
      <point x="128.932" y="380.574"/>
      <point x="69.0201" y="461.642"/>
      <point x="69.0201" y="517.865" type="qcurve" smooth="yes"/>
      <point x="69.0201" y="576.932"/>
      <point x="131.932" y="661.845"/>
      <point x="246.068" y="708.068"/>
      <point x="321.135" y="708.068" type="qcurve" smooth="yes"/>
      <point x="397.203" y="708.068"/>
      <point x="511.338" y="661.845"/>
      <point x="575.251" y="576.932"/>
      <point x="575.251" y="517.865" type="qcurve" smooth="yes"/>
      <point x="575.251" y="461.642"/>
      <point x="515.183" y="380.574"/>
      <point x="401.048" y="337.885"/>
    </contour>
    <contour>
      <point x="321.135" y="402.028" type="qcurve" smooth="yes"/>
      <point x="394.263" y="402.028"/>
      <point x="476.702" y="462.223"/>
      <point x="476.702" y="513.642" type="qcurve" smooth="yes"/>
      <point x="476.702" y="567.06"/>
      <point x="391.263" y="626.566"/>
      <point x="321.135" y="626.566" type="qcurve" smooth="yes"/>
      <point x="251.163" y="626.566"/>
      <point x="167.569" y="567.06"/>
      <point x="167.569" y="513.797" type="qcurve" smooth="yes"/>
      <point x="167.569" y="462.378"/>
      <point x="249.007" y="402.028"/>
    </contour>
  </outline>
</glyph>
<glyph name="nine" format="2">
  <advance width="617"/>
  <unicode hex="0039"/>
  <outline>
    <contour>
      <point x="275.203" y="708.068" type="qcurve" smooth="yes"/>
      <point x="369.581" y="708.068"/>
      <point x="500.717" y="626.291"/>
      <point x="569.318" y="470.825"/>
      <point x="569.318" y="359.291" type="qcurve" smooth="yes"/>
      <point x="569.318" y="239.757"/>
      <point x="485.028" y="76"/>
      <point x="336.669" y="-8.06767"/>
      <point x="238.378" y="-8.06767" type="qcurve" smooth="yes"/>
      <point x="188.777" y="-8.06767"/>
      <point x="98.4186" y="11.8446"/>
      <point x="64.0401" y="33.3784" type="qcurve"/>
      <point x="101.912" y="111.19" type="line"/>
      <point x="129.601" y="92.6566"/>
      <point x="199.223" y="77.6566"/>
      <point x="236.689" y="77.6566" type="qcurve" smooth="yes"/>
      <point x="343.263" y="77.6566"/>
      <point x="469.08" y="210.717"/>
      <point x="469.08" y="342.088" type="qcurve" smooth="yes"/>
      <point x="469.08" y="363.02"/>
      <point x="465.459" y="420.749"/>
      <point x="457.682" y="449.459" type="qcurve"/>
      <point x="491.02" y="414.627" type="line"/>
      <point x="477.196" y="368.897"/>
      <point x="411.662" y="306.148"/>
      <point x="321.02" y="274.574"/>
      <point x="267" y="274.574" type="qcurve" smooth="yes"/>
      <point x="197.845" y="274.574"/>
      <point x="89.7769" y="327.108"/>
      <point x="27.7093" y="422.486"/>
      <point x="27.7093" y="487.02" type="qcurve" smooth="yes"/>
      <point x="27.7093" y="554.932"/>
      <point x="93.1554" y="653.689"/>
      <point x="205.98" y="708.068"/>
    </contour>
    <contour>
      <point x="279.426" y="626.566" type="qcurve" smooth="yes"/>
      <point x="233.784" y="626.566"/>
      <point x="163.9" y="593.236"/>
      <point x="124.569" y="532.885"/>
      <point x="124.569" y="491.243" type="qcurve" smooth="yes"/>
      <point x="124.569" y="429.203"/>
      <point x="210.541" y="356.075"/>
      <point x="283.892" y="356.075" type="qcurve" smooth="yes"/>
      <point x="331.845" y="356.075"/>
      <point x="405.196" y="391.717"/>
      <point x="445.682" y="453.912"/>
      <point x="445.682" y="492.399" type="qcurve" smooth="yes"/>
      <point x="445.682" y="528.797"/>
      <point x="407.506" y="589.303"/>
      <point x="334" y="626.566"/>
    </contour>
  </outline>
</glyph>
<glyph name="less" format="2">
  <advance width="582"/>
  <unicode hex="003C"/>
  <outline>
    <contour>
      <point x="514.561" y="129.993" type="line"/>
      <point x="67.3985" y="306.905" type="line"/>
      <point x="67.3985" y="393.095" type="line"/>
      <point x="514.561" y="570.007" type="line"/>
      <point x="514.561" y="487.196" type="line"/>
      <point x="99.8246" y="327.419" type="line"/>
      <point x="99.8246" y="372.581" type="line"/>
      <point x="514.561" y="212.804" type="line"/>
    </contour>
  </outline>
</glyph>
<glyph name="greater" format="2">
  <advance width="582"/>
  <unicode hex="003E"/>
  <outline>
    <contour>
      <point x="67.3985" y="129.993" type="line"/>
      <point x="67.3985" y="212.804" type="line"/>
      <point x="482.98" y="372.581" type="line"/>
      <point x="482.98" y="327.419" type="line"/>
      <point x="67.3985" y="487.196" type="line"/>
      <point x="67.3985" y="570.007" type="line"/>
      <point x="514.561" y="393.095" type="line"/>
      <point x="514.561" y="306.905" type="line"/>
    </contour>
  </outline>
</glyph>
<glyph name="question" format="2">
  <advance width="573"/>
  <unicode hex="003F"/>
  <outline>
    <contour>
      <point x="228.04" y="220.94" type="line"/>
      <point x="228.04" y="260.183"/>
      <point x="253.506" y="318.271"/>
      <point x="293.439" y="363.737"/>
      <point x="339.06" y="403.203"/>
      <point x="378.993" y="441.601"/>
      <point x="404.459" y="486.243"/>
      <point x="404.459" y="514.729" type="qcurve" smooth="yes"/>
      <point x="404.459" y="562.837"/>
      <point x="328.108" y="623.188"/>
      <point x="260.98" y="623.188" type="qcurve" smooth="yes"/>
      <point x="200.804" y="623.188"/>
      <point x="112.541" y="582.877"/>
      <point x="82.1428" y="544.1" type="qcurve"/>
      <point x="9.02006" y="596.108" type="line"/>
      <point x="50.5539" y="649.399"/>
      <point x="180.757" y="708.068"/>
      <point x="267.737" y="708.068" type="qcurve" smooth="yes"/>
      <point x="339.649" y="708.068"/>
      <point x="445.94" y="665.223"/>
      <point x="504.697" y="586"/>
      <point x="504.697" y="530.088" type="qcurve" smooth="yes"/>
      <point x="504.697" y="488.466"/>
      <point x="479.231" y="428"/>
      <point x="439.298" y="381.534"/>
      <point x="393.677" y="342.068"/>
      <point x="353.744" y="301.825"/>
      <point x="328.278" y="253.649"/>
      <point x="328.278" y="220.94" type="qcurve"/>
    </contour>
    <contour>
      <point x="278.581" y="-5.53383" type="qcurve" smooth="yes"/>
      <point x="250.845" y="-5.53383"/>
      <point x="213.729" y="32.4261"/>
      <point x="213.729" y="58.4737" type="qcurve" smooth="yes"/>
      <point x="213.729" y="85.5213"/>
      <point x="250.845" y="122.481"/>
      <point x="278.581" y="122.481" type="qcurve" smooth="yes"/>
      <point x="307.318" y="122.481"/>
      <point x="343.434" y="85.5213"/>
      <point x="343.434" y="58.4737" type="qcurve" smooth="yes"/>
      <point x="343.434" y="32.4261"/>
      <point x="307.318" y="-5.53383"/>
    </contour>
  </outline>
</glyph>
<glyph name="at" format="2">
  <advance width="1034"/>
  <unicode hex="0040"/>
  <outline>
    <contour>
      <point x="516.378" y="-202.068" type="qcurve" smooth="yes"/>
      <point x="412.155" y="-202.068"/>
      <point x="240.243" y="-134.378"/>
      <point x="115.709" y="-11.8446"/>
      <point x="48.0201" y="154.845"/>
      <point x="48.0201" y="254" type="qcurve" smooth="yes"/>
      <point x="48.0201" y="353.311"/>
      <point x="115.865" y="519.155"/>
      <point x="241.399" y="640.689"/>
      <point x="415.311" y="707.223"/>
      <point x="520.378" y="707.223" type="qcurve" smooth="yes"/>
      <point x="622.757" y="707.223"/>
      <point x="793.135" y="643.378"/>
      <point x="917.825" y="526.223"/>
      <point x="985.669" y="364.912"/>
      <point x="985.669" y="268.291" type="qcurve" smooth="yes"/>
      <point x="985.669" y="183.446"/>
      <point x="943.757" y="60.5338"/>
      <point x="864.709" y="-5.53383"/>
      <point x="807.817" y="-5.53383" type="qcurve" smooth="yes"/>
      <point x="751.614" y="-5.53383"/>
      <point x="684.566" y="62.0476"/>
      <point x="684.566" y="125.318" type="qcurve" smooth="yes"/>
      <point x="684.566" y="193.378" type="line"/>
      <point x="690.343" y="254.088" type="line"/>
      <point x="681.188" y="368.852" type="line"/>
      <point x="681.188" y="501.797" type="line"/>
      <point x="767.912" y="501.797" type="line"/>
      <point x="767.912" y="142.075" type="line" smooth="yes"/>
      <point x="767.912" y="102.143"/>
      <point x="801.311" y="70.0551"/>
      <point x="824.709" y="70.0551" type="qcurve" smooth="yes"/>
      <point x="854.486" y="70.0551"/>
      <point x="896.662" y="116.075"/>
      <point x="918.371" y="204.649"/>
      <point x="918.371" y="266.601" type="qcurve" smooth="yes"/>
      <point x="918.371" y="350.777"/>
      <point x="861.128" y="488.196"/>
      <point x="754.263" y="587.682"/>
      <point x="608.777" y="640.925"/>
      <point x="520.378" y="640.925" type="qcurve" smooth="yes"/>
      <point x="431.135" y="640.925"/>
      <point x="283.649" y="583.993"/>
      <point x="178.474" y="480.972"/>
      <point x="121.231" y="339.02"/>
      <point x="121.231" y="254" type="qcurve" smooth="yes"/>
      <point x="121.231" y="168.291"/>
      <point x="177.474" y="25.4937"/>
      <point x="281.649" y="-77.6817"/>
      <point x="427.135" y="-134.769"/>
      <point x="516.378" y="-134.769" type="qcurve" smooth="yes"/>
      <point x="562.068" y="-134.769"/>
      <point x="664.378" y="-113.614"/>
      <point x="708.757" y="-90.7694" type="qcurve"/>
      <point x="731.115" y="-155.223" type="line"/>
      <point x="685.426" y="-178.378"/>
      <point x="568.98" y="-202.068"/>
    </contour>
    <contour>
      <point x="498.331" y="-5.53383" type="qcurve" smooth="yes"/>
      <point x="427.331" y="-5.53383"/>
      <point x="316.709" y="60.6216"/>
      <point x="253.243" y="177.088"/>
      <point x="253.243" y="251.399" type="qcurve" smooth="yes"/>
      <point x="253.243" y="325.865"/>
      <point x="316.709" y="441.175"/>
      <point x="427.331" y="506.486"/>
      <point x="498.331" y="506.486" type="qcurve" smooth="yes"/>
      <point x="566.797" y="506.486"/>
      <point x="671.196" y="447.088"/>
      <point x="730.283" y="333.466"/>
      <point x="730.283" y="251.399" type="qcurve" smooth="yes"/>
      <point x="730.283" y="169.486"/>
      <point x="672.04" y="54.7093"/>
      <point x="568.486" y="-5.53383"/>
    </contour>
    <contour>
      <point x="511.845" y="71.7443" type="qcurve" smooth="yes"/>
      <point x="560.952" y="71.7443"/>
      <point x="638.08" y="115.163"/>
      <point x="682.877" y="196.446"/>
      <point x="682.877" y="251.399" type="qcurve" smooth="yes"/>
      <point x="682.877" y="307.351"/>
      <point x="638.08" y="386.79"/>
      <point x="560.952" y="429.208"/>
      <point x="511.845" y="429.208" type="qcurve" smooth="yes"/>
      <point x="461.892" y="429.208"/>
      <point x="384.92" y="385.945"/>
      <point x="341.657" y="305.662"/>
      <point x="341.657" y="251.399" type="qcurve" smooth="yes"/>
      <point x="341.657" y="197.291"/>
      <point x="384.92" y="116.852"/>
      <point x="461.892" y="71.7443"/>
    </contour>
  </outline>
</glyph>
<glyph name="A" format="2">
  <advance width="732"/>
  <unicode hex="0041"/>
  <anchor x="429" y="700" name="t.uni0308"/>
  <anchor x="429" y="0" name="b.uni0324_3"/>
  <anchor x="889" y="0" name="m.uni0328_4"/>
  <outline>
    <contour>
      <point x="-1.13533" y="0" type="line"/>
      <point x="316.263" y="700" type="line"/>
      <point x="414.812" y="700" type="line"/>
      <point x="733.055" y="0" type="line"/>
      <point x="628.128" y="0" type="line"/>
      <point x="344.912" y="644.303" type="line"/>
      <point x="385.318" y="644.303" type="line"/>
      <point x="102.103" y="0" type="line"/>
    </contour>
    <contour>
      <point x="133.737" y="174.682" type="line"/>
      <point x="161.474" y="255.338" type="line"/>
      <point x="555.088" y="255.338" type="line"/>
      <point x="583.669" y="174.682" type="line"/>
    </contour>
  </outline>
</glyph>
<glyph name="B" format="2">
  <advance width="757"/>
  <unicode hex="0042"/>
  <anchor x="384" y="700" name="t.uni0308"/>
  <anchor x="384" y="0" name="b.uni0324_3"/>
  <outline>
    <contour>
      <point x="105.128" y="0" type="line"/>
      <point x="105.128" y="700" type="line"/>
      <point x="419.291" y="700" type="line" smooth="yes"/>
      <point x="539.96" y="700"/>
      <point x="670.338" y="603.399"/>
      <point x="670.338" y="518.777" type="qcurve" smooth="yes"/>
      <point x="670.338" y="462.466"/>
      <point x="618.561" y="383.777"/>
      <point x="532.92" y="342.399"/>
      <point x="483.123" y="342.399" type="qcurve"/>
      <point x="500.967" y="372.291" type="line"/>
      <point x="560.852" y="372.291"/>
      <point x="653.494" y="330.446"/>
      <point x="706.649" y="248.757"/>
      <point x="706.649" y="188.912" type="qcurve" smooth="yes"/>
      <point x="706.649" y="99.2231"/>
      <point x="572.358" y="0"/>
      <point x="439.291" y="0" type="qcurve" smooth="yes"/>
    </contour>
    <contour>
      <point x="204.521" y="81.5012" type="line"/>
      <point x="434.845" y="81.5012" type="line" smooth="yes"/>
      <point x="518.128" y="81.5012"/>
      <point x="606.411" y="136.852"/>
      <point x="606.411" y="197.358" type="qcurve" smooth="yes"/>
      <point x="606.411" y="257.865"/>
      <point x="518.128" y="313.905"/>
      <point x="434.845" y="313.905" type="qcurve" smooth="yes"/>
      <point x="196.143" y="313.905" type="line"/>
      <point x="196.143" y="395.406" type="line"/>
      <point x="409.777" y="395.406" type="line" smooth="yes"/>
      <point x="486.128" y="395.406"/>
      <point x="570.1" y="450.912"/>
      <point x="570.1" y="506.952" type="qcurve" smooth="yes"/>
      <point x="570.1" y="562.993"/>
      <point x="486.128" y="618.499"/>
      <point x="409.777" y="618.499" type="qcurve" smooth="yes"/>
      <point x="204.521" y="618.499" type="line"/>
    </contour>
  </outline>
</glyph>
<glyph name="C" format="2">
  <advance width="723"/>
  <unicode hex="0043"/>
  <anchor x="422" y="701" name="t.uni0308"/>
  <anchor x="385" y="0" name="b.uni0324_3"/>
  <outline>
    <contour>
      <point x="418" y="-8.06767" type="qcurve" smooth="yes"/>
      <point x="338.466" y="-8.06767"/>
      <point x="203.243" y="44.9323"/>
      <point x="103.709" y="141.777"/>
      <point x="48.0201" y="272.311"/>
      <point x="48.0201" y="350" type="qcurve" smooth="yes"/>
      <point x="48.0201" y="427.689"/>
      <point x="103.709" y="558.223"/>
      <point x="204.088" y="655.068"/>
      <point x="339.311" y="708.068"/>
      <point x="418.845" y="708.068" type="qcurve" smooth="yes"/>
      <point x="499.669" y="708.068"/>
      <point x="637.183" y="653.088"/>
      <point x="684.717" y="598.797" type="qcurve"/>
      <point x="620.351" y="535.81" type="line"/>
      <point x="579.952" y="578.431"/>
      <point x="480.311" y="618.965"/>
      <point x="423.068" y="618.965" type="qcurve" smooth="yes"/>
      <point x="363.737" y="618.965"/>
      <point x="263.386" y="578.945"/>
      <point x="189.123" y="506.526"/>
      <point x="148.258" y="408.331"/>
      <point x="148.258" y="350" type="qcurve" smooth="yes"/>
      <point x="148.258" y="291.669"/>
      <point x="189.123" y="193.474"/>
      <point x="263.386" y="121.055"/>
      <point x="363.737" y="81.035"/>
      <point x="423.068" y="81.035" type="qcurve" smooth="yes"/>
      <point x="480.311" y="81.035"/>
      <point x="579.952" y="121.724"/>
      <point x="620.351" y="165.19" type="qcurve"/>
      <point x="684.717" y="102.203" type="line"/>
      <point x="637.183" y="47.9123"/>
      <point x="499.669" y="-8.06767"/>
    </contour>
  </outline>
</glyph>
<glyph name="D" format="2">
  <advance width="826"/>
  <unicode hex="0044"/>
  <anchor x="345" y="700" name="t.uni0308"/>
  <anchor x="209" y="355" name="t.uni0307_1"/>
  <anchor x="346" y="0" name="b.uni0324_3"/>
  <outline>
    <contour>
      <point x="105.128" y="0" type="line"/>
      <point x="105.128" y="700" type="line"/>
      <point x="399.689" y="700" type="line" smooth="yes"/>
      <point x="512.378" y="700"/>
      <point x="682.601" y="611.534"/>
      <point x="777.98" y="454.378"/>
      <point x="777.98" y="350" type="qcurve" smooth="yes"/>
      <point x="777.98" y="245.622"/>
      <point x="682.601" y="88.4662"/>
      <point x="512.378" y="0"/>
      <point x="399.689" y="0" type="qcurve" smooth="yes"/>
    </contour>
    <contour>
      <point x="204.521" y="86.5689" type="line"/>
      <point x="394.311" y="86.5689" type="line" smooth="yes"/>
      <point x="481.04" y="86.5689"/>
      <point x="607.79" y="153.143"/>
      <point x="677.742" y="271.737"/>
      <point x="677.742" y="350" type="qcurve" smooth="yes"/>
      <point x="677.742" y="429.108"/>
      <point x="607.79" y="546.857"/>
      <point x="481.04" y="613.431"/>
      <point x="394.311" y="613.431" type="qcurve" smooth="yes"/>
      <point x="204.521" y="613.431" type="line"/>
    </contour>
  </outline>
</glyph>
<glyph name="E" format="2">
  <advance width="670"/>
  <unicode hex="0045"/>
  <anchor x="335" y="700" name="t.uni0308"/>
  <anchor x="327" y="0" name="b.uni0324_3"/>
  <anchor x="656" y="0" name="m.uni0328_4"/>
  <outline>
    <contour>
      <point x="196.143" y="397.94" type="line"/>
      <point x="555.892" y="397.94" type="line"/>
      <point x="555.892" y="313.06" type="line"/>
      <point x="196.143" y="313.06" type="line"/>
    </contour>
    <contour>
      <point x="204.521" y="86.5689" type="line"/>
      <point x="613.358" y="86.5689" type="line"/>
      <point x="613.358" y="0" type="line"/>
      <point x="105.128" y="0" type="line"/>
      <point x="105.128" y="700" type="line"/>
      <point x="599.203" y="700" type="line"/>
      <point x="599.203" y="613.431" type="line"/>
      <point x="204.521" y="613.431" type="line"/>
    </contour>
  </outline>
</glyph>
<glyph name="F" format="2">
  <advance width="635"/>
  <unicode hex="0046"/>
  <outline>
    <contour>
      <point x="195.298" y="369.494" type="line"/>
      <point x="555.892" y="369.494" type="line"/>
      <point x="555.892" y="282.925" type="line"/>
      <point x="195.298" y="282.925" type="line"/>
    </contour>
    <contour>
      <point x="204.521" y="0" type="line"/>
      <point x="105.128" y="0" type="line"/>
      <point x="105.128" y="700" type="line"/>
      <point x="599.203" y="700" type="line"/>
      <point x="599.203" y="613.431" type="line"/>
      <point x="204.521" y="613.431" type="line"/>
    </contour>
  </outline>
</glyph>
<glyph name="H" format="2">
  <advance width="812"/>
  <unicode hex="0048"/>
  <anchor x="399" y="700" name="t.uni0308"/>
  <anchor x="399" y="594" name="t.uni0307_1"/>
  <anchor x="399" y="0" name="b.uni0324_3"/>
  <outline>
    <contour>
      <point x="607.256" y="700" type="line"/>
      <point x="706.649" y="700" type="line"/>
      <point x="706.649" y="0" type="line"/>
      <point x="607.256" y="0" type="line"/>
    </contour>
    <contour>
      <point x="204.521" y="0" type="line"/>
      <point x="105.128" y="0" type="line"/>
      <point x="105.128" y="700" type="line"/>
      <point x="204.521" y="700" type="line"/>
    </contour>
    <contour>
      <point x="615.634" y="312.216" type="line"/>
      <point x="195.298" y="312.216" type="line"/>
      <point x="195.298" y="398.784" type="line"/>
      <point x="615.634" y="398.784" type="line"/>
    </contour>
  </outline>
</glyph>
<glyph name="J" format="2">
  <advance width="513"/>
  <unicode hex="004A"/>
  <anchor x="323" y="700" name="t.uni0308"/>
  <outline>
    <contour>
      <point x="194.892" y="-8.06767" type="qcurve" smooth="yes"/>
      <point x="132.601" y="-8.06767"/>
      <point x="25.2431" y="44.0877"/>
      <point x="-8.66917" y="92.6216" type="qcurve"/>
      <point x="49.2506" y="161.21" type="line"/>
      <point x="78.2506" y="120.589"/>
      <point x="151.115" y="78.5012"/>
      <point x="195.048" y="78.5012" type="qcurve" smooth="yes"/>
      <point x="314.797" y="78.5012"/>
      <point x="314.797" y="220.494" type="qcurve" smooth="yes"/>
      <point x="314.797" y="613.431" type="line"/>
      <point x="62.0877" y="613.431" type="line"/>
      <point x="62.0877" y="700" type="line"/>
      <point x="414.19" y="700" type="line"/>
      <point x="414.19" y="225.251" type="line" smooth="yes"/>
      <point x="414.19" y="107.825"/>
      <point x="302.852" y="-8.06767"/>
    </contour>
  </outline>
</glyph>
<glyph name="L" format="2">
  <advance width="594"/>
  <unicode hex="004C"/>
  <anchor x="189" y="700" name="t.uni0308"/>
  <anchor x="506" y="480" name="t.periodcentered.loclCAT"/>
  <anchor x="189" y="419" name="t.uni0307_1"/>
  <anchor x="413" y="700" name="t.uni031B_2"/>
  <anchor x="338" y="0" name="b.uni0324_3"/>
  <outline>
    <contour>
      <point x="105.128" y="0" type="line"/>
      <point x="105.128" y="700" type="line"/>
      <point x="204.521" y="700" type="line"/>
      <point x="204.521" y="86.5689" type="line"/>
      <point x="584.358" y="86.5689" type="line"/>
      <point x="584.358" y="0" type="line"/>
    </contour>
  </outline>
</glyph>
<glyph name="Q" format="2">
  <advance width="840"/>
  <unicode hex="0051"/>
  <anchor x="428" y="700" name="t.uni0308"/>
  <outline>
    <contour>
      <point x="420.534" y="-8.06767" type="qcurve" smooth="yes"/>
      <point x="340.155" y="-8.06767"/>
      <point x="204.088" y="45.7769"/>
      <point x="103.709" y="142.622"/>
      <point x="48.0201" y="273.155"/>
      <point x="48.0201" y="350" type="qcurve" smooth="yes"/>
      <point x="48.0201" y="426.845"/>
      <point x="103.709" y="557.378"/>
      <point x="204.088" y="654.223"/>
      <point x="340.155" y="708.068"/>
      <point x="420.534" y="708.068" type="qcurve" smooth="yes"/>
      <point x="500.912" y="708.068"/>
      <point x="636.135" y="655.068"/>
      <point x="736.514" y="558.223"/>
      <point x="792.203" y="427.689"/>
      <point x="792.203" y="350" type="qcurve" smooth="yes"/>
      <point x="792.203" y="272.311"/>
      <point x="736.514" y="141.777"/>
      <point x="636.135" y="44.9323"/>
      <point x="500.912" y="-8.06767"/>
    </contour>
    <contour>
      <point x="649.689" y="-145.96" type="qcurve" smooth="yes"/>
      <point x="615.088" y="-145.96"/>
      <point x="551.263" y="-129.271"/>
      <point x="486.972" y="-92.3584"/>
      <point x="418.993" y="-33.3784"/>
      <point x="379.391" y="9.75689" type="qcurve"/>
      <point x="486.474" y="37.5614" type="line"/>
      <point x="516.251" y="0.561386"/>
      <point x="571.426" y="-46.2156"/>
      <point x="624.601" y="-66.9925"/>
      <point x="651.378" y="-66.9925" type="qcurve" smooth="yes"/>
      <point x="725.554" y="-66.9925"/>
      <point x="778.642" y="-6.97245" type="qcurve"/>
      <point x="825.581" y="-64.0476" type="line"/>
      <point x="757.669" y="-145.96"/>
    </contour>
    <contour>
      <point x="420.534" y="81.035" type="qcurve" smooth="yes"/>
      <point x="479.02" y="81.035"/>
      <point x="577.682" y="121.055"/>
      <point x="651.1" y="194.318"/>
      <point x="691.965" y="292.514"/>
      <point x="691.965" y="350" type="qcurve" smooth="yes"/>
      <point x="691.965" y="408.331"/>
      <point x="651.1" y="505.682"/>
      <point x="577.682" y="578.945"/>
      <point x="479.02" y="618.965"/>
      <point x="420.534" y="618.965" type="qcurve" smooth="yes"/>
      <point x="362.048" y="618.965"/>
      <point x="262.541" y="578.945"/>
      <point x="189.123" y="505.682"/>
      <point x="148.258" y="408.331"/>
      <point x="148.258" y="350" type="qcurve" smooth="yes"/>
      <point x="148.258" y="292.514"/>
      <point x="189.123" y="194.318"/>
      <point x="262.541" y="121.055"/>
      <point x="362.048" y="81.035"/>
    </contour>
  </outline>
</glyph>
<glyph name="R" format="2">
  <advance width="727"/>
  <unicode hex="0052"/>
  <anchor x="385" y="700" name="t.uni0308"/>
  <anchor x="385" y="0" name="b.uni0324_3"/>
  <outline>
    <contour>
      <point x="105.128" y="0" type="line"/>
      <point x="105.128" y="700" type="line"/>
      <point x="378.446" y="700" type="line" smooth="yes"/>
      <point x="469.514" y="700"/>
      <point x="600.115" y="641.622"/>
      <point x="670.338" y="532.02"/>
      <point x="670.338" y="455.642" type="qcurve" smooth="yes"/>
      <point x="670.338" y="380.263"/>
      <point x="600.115" y="271.351"/>
      <point x="469.514" y="212.972"/>
      <point x="378.446" y="212.972" type="qcurve" smooth="yes"/>
      <point x="160.048" y="212.972" type="line"/>
      <point x="204.521" y="259.135" type="line"/>
      <point x="204.521" y="0" type="line"/>
    </contour>
    <contour>
      <point x="573.411" y="0" type="line"/>
      <point x="394.634" y="254" type="line"/>
      <point x="502.406" y="254" type="line"/>
      <point x="682.028" y="0" type="line"/>
    </contour>
    <contour>
      <point x="204.521" y="249.311" type="line"/>
      <point x="160.048" y="297.852" type="line"/>
      <point x="375.378" y="297.852" type="line" smooth="yes"/>
      <point x="471.351" y="297.852"/>
      <point x="570.1" y="380.98"/>
      <point x="570.1" y="455.642" type="qcurve" smooth="yes"/>
      <point x="570.1" y="531.303"/>
      <point x="471.351" y="613.431"/>
      <point x="375.378" y="613.431" type="qcurve" smooth="yes"/>
      <point x="160.048" y="613.431" type="line"/>
      <point x="204.521" y="662.817" type="line"/>
    </contour>
  </outline>
</glyph>
<glyph name="T" format="2">
  <advance width="587"/>
  <unicode hex="0054"/>
  <anchor x="350" y="700" name="t.uni0308"/>
  <anchor x="350" y="295" name="t.uni0307_1"/>
  <anchor x="350" y="0" name="b.uni0324_3"/>
  <outline>
    <contour>
      <point x="243.729" y="0" type="line"/>
      <point x="243.729" y="613.431" type="line"/>
      <point x="4" y="613.431" type="line"/>
      <point x="4" y="700" type="line"/>
      <point x="582.852" y="700" type="line"/>
      <point x="582.852" y="613.431" type="line"/>
      <point x="343.123" y="613.431" type="line"/>
      <point x="343.123" y="0" type="line"/>
    </contour>
  </outline>
</glyph>
<glyph name="U" format="2">
  <advance width="791"/>
  <unicode hex="0055"/>
  <anchor x="393" y="700" name="t.uni0308"/>
  <anchor x="626" y="700" name="t.uni031B_2"/>
  <anchor x="393" y="0" name="b.uni0324_3"/>
  <anchor x="636" y="0" name="m.uni0328_4"/>
  <outline>
    <contour>
      <point x="395.311" y="-8.06767" type="qcurve" smooth="yes"/>
      <point x="256.797" y="-8.06767"/>
      <point x="99.1278" y="150.068"/>
      <point x="99.1278" y="302.291" type="qcurve" smooth="yes"/>
      <point x="99.1278" y="700" type="line"/>
      <point x="198.521" y="700" type="line"/>
      <point x="198.521" y="305.825" type="line" smooth="yes"/>
      <point x="198.521" y="189.474"/>
      <point x="301.649" y="81.035"/>
      <point x="396.155" y="81.035" type="qcurve" smooth="yes"/>
      <point x="490.662" y="81.035"/>
      <point x="593.79" y="189.474"/>
      <point x="593.79" y="305.825" type="qcurve" smooth="yes"/>
      <point x="593.79" y="700" type="line"/>
      <point x="691.494" y="700" type="line"/>
      <point x="691.494" y="302.291" type="line" smooth="yes"/>
      <point x="691.494" y="150.068"/>
      <point x="533.825" y="-8.06767"/>
    </contour>
  </outline>
</glyph>
<glyph name="V" format="2">
  <advance width="712"/>
  <unicode hex="0056"/>
  <outline>
    <contour>
      <point x="307.263" y="0" type="line"/>
      <point x="-0.979943" y="700" type="line"/>
      <point x="107.326" y="700" type="line"/>
      <point x="389.832" y="54.0075" type="line"/>
      <point x="328.311" y="54.0075" type="line"/>
      <point x="613.351" y="700" type="line"/>
      <point x="713.21" y="700" type="line"/>
      <point x="405.812" y="0" type="line"/>
    </contour>
  </outline>
</glyph>
<glyph name="W" format="2">
  <advance width="1126"/>
  <unicode hex="0057"/>
  <anchor x="631" y="700" name="t.uni0308"/>
  <anchor x="631" y="0" name="b.uni0324_3"/>
  <outline>
    <contour>
      <point x="266.419" y="0" type="line"/>
      <point x="32.3308" y="700" type="line"/>
      <point x="135.413" y="700" type="line"/>
      <point x="349.987" y="54.0075" type="line"/>
      <point x="298.446" y="54.0075" type="line"/>
      <point x="520.709" y="700" type="line"/>
      <point x="613.346" y="700" type="line"/>
      <point x="830.541" y="54.0075" type="line"/>
      <point x="780.845" y="54.0075" type="line"/>
      <point x="998.797" y="700" type="line"/>
      <point x="1094.12" y="700" type="line"/>
      <point x="860.035" y="0" type="line"/>
      <point x="754.729" y="0" type="line"/>
      <point x="550.669" y="598.607" type="line"/>
      <point x="578.318" y="598.607" type="line"/>
      <point x="372.569" y="0" type="line"/>
    </contour>
  </outline>
</glyph>
<glyph name="bracketleft" format="2">
  <advance width="333"/>
  <unicode hex="005B"/>
  <outline>
    <contour>
      <point x="105.128" y="-194" type="line"/>
      <point x="105.128" y="742" type="line"/>
      <point x="313.677" y="742" type="line"/>
      <point x="313.677" y="663.033" type="line"/>
      <point x="201.143" y="663.033" type="line"/>
      <point x="201.143" y="-115.033" type="line"/>
      <point x="313.677" y="-115.033" type="line"/>
      <point x="313.677" y="-194" type="line"/>
    </contour>
  </outline>
</glyph>
<glyph name="backslash" format="2">
  <advance width="352"/>
  <unicode hex="005C"/>
  <outline>
    <contour>
      <point x="379.123" y="-100" type="line"/>
      <point x="292.399" y="-100" type="line"/>
      <point x="-37.6015" y="842" type="line"/>
      <point x="49.1228" y="842" type="line"/>
    </contour>
  </outline>
</glyph>
<glyph name="bracketright" format="2">
  <advance width="333"/>
  <unicode hex="005D"/>
  <outline>
    <contour>
      <point x="227.637" y="-194" type="line"/>
      <point x="19.0877" y="-194" type="line"/>
      <point x="19.0877" y="-115.033" type="line"/>
      <point x="131.622" y="-115.033" type="line"/>
      <point x="131.622" y="663.033" type="line"/>
      <point x="19.0877" y="663.033" type="line"/>
      <point x="19.0877" y="742" type="line"/>
      <point x="227.637" y="742" type="line"/>
    </contour>
  </outline>
</glyph>
<glyph name="asciicircum" format="2">
  <advance width="583"/>
  <unicode hex="005E"/>
  <outline>
    <contour>
      <point x="75.3509" y="142.466" type="line"/>
      <point x="252.263" y="557.534" type="line"/>
      <point x="331.697" y="557.534" type="line"/>
      <point x="507.764" y="142.466" type="line"/>
      <point x="430.865" y="142.466" type="line"/>
      <point x="271.088" y="527.642" type="line"/>
      <point x="312.028" y="527.642" type="line"/>
      <point x="152.251" y="142.466" type="line"/>
    </contour>
  </outline>
</glyph>
<glyph name="b" format="2">
  <advance width="682"/>
  <unicode hex="0062"/>
  <outline>
    <contour>
      <point x="371.912" y="-5.53383" type="qcurve" smooth="yes"/>
      <point x="304.291" y="-5.53383"/>
      <point x="194.825" y="54.7093"/>
      <point x="131.514" y="175.399"/>
      <point x="131.514" y="264.912" type="qcurve" smooth="yes"/>
      <point x="131.514" y="355.426"/>
      <point x="196.514" y="474.96"/>
      <point x="305.98" y="535.203"/>
      <point x="371.912" y="535.203" type="qcurve" smooth="yes"/>
      <point x="449.669" y="535.203"/>
      <point x="570.426" y="467.358"/>
      <point x="639.804" y="346.135"/>
      <point x="639.804" y="264.912" type="qcurve" smooth="yes"/>
      <point x="639.804" y="183.845"/>
      <point x="570.426" y="62.3108"/>
      <point x="449.669" y="-5.53383"/>
    </contour>
    <contour>
      <point x="91.3509" y="0" type="line"/>
      <point x="91.3509" y="742" type="line"/>
      <point x="187.366" y="742" type="line"/>
      <point x="187.366" y="389.123" type="line"/>
      <point x="177.366" y="265.912" type="line"/>
      <point x="183.143" y="142.702" type="line"/>
      <point x="183.143" y="0" type="line"/>
    </contour>
    <contour>
      <point x="364.311" y="78.5012" type="qcurve" smooth="yes"/>
      <point x="415.108" y="78.5012"/>
      <point x="495.614" y="124.454"/>
      <point x="542.945" y="209.115"/>
      <point x="542.945" y="264.912" type="qcurve" smooth="yes"/>
      <point x="542.945" y="321.709"/>
      <point x="495.614" y="405.371"/>
      <point x="415.108" y="451.168"/>
      <point x="364.311" y="451.168" type="qcurve" smooth="yes"/>
      <point x="313.514" y="451.168"/>
      <point x="233.007" y="405.371"/>
      <point x="185.677" y="321.709"/>
      <point x="185.677" y="264.912" type="qcurve" smooth="yes"/>
      <point x="185.677" y="209.115"/>
      <point x="233.007" y="124.454"/>
      <point x="313.514" y="78.5012"/>
    </contour>
  </outline>
</glyph>
<glyph name="d" format="2">
  <advance width="682"/>
  <unicode hex="0064"/>
  <anchor x="494" y="645" name="t.uni0307_1"/>
  <anchor x="757" y="742" name="t.uni031B_2"/>
  <anchor x="404" y="0" name="b.uni0324_3"/>
  <outline>
    <contour>
      <point x="310.068" y="-5.53383" type="qcurve" smooth="yes"/>
      <point x="233.155" y="-5.53383"/>
      <point x="111.554" y="62.3108"/>
      <point x="42.1754" y="183.845"/>
      <point x="42.1754" y="264.912" type="qcurve" smooth="yes"/>
      <point x="42.1754" y="346.135"/>
      <point x="111.554" y="467.358"/>
      <point x="233.155" y="535.203"/>
      <point x="310.068" y="535.203" type="qcurve" smooth="yes"/>
      <point x="376.845" y="535.203"/>
      <point x="485.466" y="474.96"/>
      <point x="550.466" y="355.426"/>
      <point x="550.466" y="264.912" type="qcurve" smooth="yes"/>
      <point x="550.466" y="175.399"/>
      <point x="487.155" y="54.7093"/>
      <point x="378.534" y="-5.53383"/>
    </contour>
    <contour>
      <point x="317.669" y="78.5012" type="qcurve" smooth="yes"/>
      <point x="368.466" y="78.5012"/>
      <point x="448.972" y="124.454"/>
      <point x="496.303" y="209.115"/>
      <point x="496.303" y="264.912" type="qcurve" smooth="yes"/>
      <point x="496.303" y="321.709"/>
      <point x="448.972" y="405.371"/>
      <point x="368.466" y="451.168"/>
      <point x="317.669" y="451.168" type="qcurve" smooth="yes"/>
      <point x="266.872" y="451.168"/>
      <point x="186.521" y="405.371"/>
      <point x="139.035" y="321.709"/>
      <point x="139.035" y="264.912" type="qcurve" smooth="yes"/>
      <point x="139.035" y="209.115"/>
      <point x="186.521" y="124.454"/>
      <point x="266.872" y="78.5012"/>
    </contour>
    <contour>
      <point x="498.837" y="0" type="line"/>
      <point x="498.837" y="142.702" type="line"/>
      <point x="504.614" y="265.912" type="line"/>
      <point x="494.614" y="389.123" type="line"/>
      <point x="494.614" y="742" type="line"/>
      <point x="590.629" y="742" type="line"/>
      <point x="590.629" y="0" type="line"/>
    </contour>
  </outline>
</glyph>
<glyph name="e" format="2">
  <advance width="612"/>
  <unicode hex="0065"/>
  <anchor x="342" y="562" name="t.uni0308"/>
  <anchor x="342" y="0" name="b.uni0324_3"/>
  <anchor x="584" y="0" name="m.uni0328_4"/>
  <outline>
    <contour>
      <point x="327.203" y="-5.53383" type="qcurve" smooth="yes"/>
      <point x="242.068" y="-5.53383"/>
      <point x="113.399" y="64"/>
      <point x="42.1754" y="186.378"/>
      <point x="42.1754" y="264.912" type="qcurve" smooth="yes"/>
      <point x="42.1754" y="343.601"/>
      <point x="110.932" y="465.669"/>
      <point x="231.757" y="535.203"/>
      <point x="308.203" y="535.203" type="qcurve" smooth="yes"/>
      <point x="384.649" y="535.203"/>
      <point x="502.94" y="466.825"/>
      <point x="570.163" y="344.068"/>
      <point x="570.163" y="262.311" type="qcurve" smooth="yes"/>
      <point x="570.163" y="256.243"/>
      <point x="569.318" y="239.885"/>
      <point x="568.474" y="232.817" type="qcurve"/>
      <point x="117.366" y="232.817" type="line"/>
      <point x="117.366" y="302.494" type="line"/>
      <point x="517.777" y="302.494" type="line"/>
      <point x="479.371" y="278.203" type="line"/>
      <point x="480.216" y="329.311"/>
      <point x="435.729" y="408.594"/>
      <point x="358.689" y="453.702"/>
      <point x="308.203" y="453.702" type="qcurve" smooth="yes"/>
      <point x="257.872" y="453.702"/>
      <point x="179.832" y="408.594"/>
      <point x="136.346" y="328.466"/>
      <point x="136.346" y="275.669" type="qcurve" smooth="yes"/>
      <point x="136.346" y="259.845" type="line" smooth="yes"/>
      <point x="136.346" y="206.581"/>
      <point x="184.832" y="124.454"/>
      <point x="272.561" y="78.5012"/>
      <point x="329.737" y="78.5012" type="qcurve" smooth="yes"/>
      <point x="376.669" y="78.5012"/>
      <point x="454.466" y="110.055"/>
      <point x="482.932" y="142.454" type="qcurve"/>
      <point x="535.784" y="80.3108" type="line"/>
      <point x="500.095" y="38.3108"/>
      <point x="393.338" y="-5.53383"/>
    </contour>
  </outline>
</glyph>
<glyph name="f" format="2">
  <advance width="353"/>
  <unicode hex="0066"/>
  <outline>
    <contour>
      <point x="105.263" y="0" type="line"/>
      <point x="105.263" y="577.459" type="line" smooth="yes"/>
      <point x="105.263" y="654.729"/>
      <point x="195.601" y="747.534"/>
      <point x="280.095" y="747.534" type="qcurve" smooth="yes"/>
      <point x="311.474" y="747.534"/>
      <point x="368.163" y="732.912"/>
      <point x="387.852" y="717.291" type="qcurve"/>
      <point x="358.649" y="644.168" type="line"/>
      <point x="344.338" y="655.945"/>
      <point x="306.095" y="668.566"/>
      <point x="285.318" y="668.566" type="qcurve" smooth="yes"/>
      <point x="242.609" y="668.566"/>
      <point x="198.744" y="621.546"/>
      <point x="198.744" y="575.837" type="qcurve" smooth="yes"/>
      <point x="198.744" y="504.709" type="line"/>
      <point x="201.278" y="460.769" type="line"/>
      <point x="201.278" y="0" type="line"/>
    </contour>
    <contour>
      <point x="14.5539" y="450.702" type="line"/>
      <point x="14.5539" y="529.669" type="line"/>
      <point x="353.474" y="529.669" type="line"/>
      <point x="353.474" y="450.702" type="line"/>
    </contour>
  </outline>
</glyph>
<glyph name="g" format="2">
  <advance width="690"/>
  <unicode hex="0067"/>
  <anchor x="372" y="562" name="t.uni0308"/>
  <outline>
    <contour>
      <point x="323" y="-199.534" type="qcurve" smooth="yes"/>
      <point x="250.466" y="-199.534"/>
      <point x="113.263" y="-159.446"/>
      <point x="69.5063" y="-121.135" type="qcurve"/>
      <point x="116.446" y="-47.1679" type="line"/>
      <point x="153.068" y="-78.5664"/>
      <point x="261.378" y="-115.499"/>
      <point x="319.622" y="-115.499" type="qcurve" smooth="yes"/>
      <point x="413.885" y="-115.499"/>
      <point x="502.303" y="-28.0802"/>
      <point x="502.303" y="61.5814" type="qcurve" smooth="yes"/>
      <point x="502.303" y="174.371" type="line"/>
      <point x="512.303" y="279.135" type="line"/>
      <point x="506.526" y="384.744" type="line"/>
      <point x="506.526" y="529.669" type="line"/>
      <point x="598.318" y="529.669" type="line"/>
      <point x="598.318" y="72.1829" type="line" smooth="yes"/>
      <point x="598.318" y="-68.0201"/>
      <point x="458.203" y="-199.534"/>
    </contour>
    <contour>
      <point x="311.378" y="22.0677" type="qcurve" smooth="yes"/>
      <point x="234.311" y="22.0677"/>
      <point x="112.554" y="87.0677"/>
      <point x="42.1754" y="202.757"/>
      <point x="42.1754" y="279.135" type="qcurve" smooth="yes"/>
      <point x="42.1754" y="355.669"/>
      <point x="112.554" y="471.203"/>
      <point x="234.311" y="535.203"/>
      <point x="311.378" y="535.203" type="qcurve" smooth="yes"/>
      <point x="379.311" y="535.203"/>
      <point x="490.622" y="479.649"/>
      <point x="558.155" y="365.804"/>
      <point x="558.155" y="279.135" type="qcurve" smooth="yes"/>
      <point x="558.155" y="192.622"/>
      <point x="490.622" y="78.6216"/>
      <point x="379.311" y="22.0677"/>
    </contour>
    <contour>
      <point x="321.514" y="106.103" type="qcurve" smooth="yes"/>
      <point x="375.155" y="106.103"/>
      <point x="457.351" y="149.9"/>
      <point x="503.993" y="228.028"/>
      <point x="503.993" y="279.135" type="qcurve" smooth="yes"/>
      <point x="503.993" y="330.399"/>
      <point x="457.351" y="408.216"/>
      <point x="375.155" y="451.168"/>
      <point x="321.514" y="451.168" type="qcurve" smooth="yes"/>
      <point x="268.872" y="451.168"/>
      <point x="185.677" y="408.216"/>
      <point x="139.035" y="330.399"/>
      <point x="139.035" y="279.135" type="qcurve" smooth="yes"/>
      <point x="139.035" y="228.028"/>
      <point x="185.677" y="149.9"/>
      <point x="268.872" y="106.103"/>
    </contour>
  </outline>
</glyph>
<glyph name="h" format="2">
  <advance width="681"/>
  <unicode hex="0068"/>
  <anchor x="180" y="742" name="t.uni0308"/>
  <anchor x="225" y="645" name="t.uni0307_1"/>
  <anchor x="346" y="562" name="t.uni031B_2"/>
  <anchor x="364" y="0" name="b.uni0324_3"/>
  <outline>
    <contour>
      <point x="373.96" y="535.203" type="qcurve" smooth="yes"/>
      <point x="438.804" y="535.203"/>
      <point x="537.561" y="485.358"/>
      <point x="594.474" y="383.446"/>
      <point x="594.474" y="305" type="qcurve" smooth="yes"/>
      <point x="594.474" y="0" type="line"/>
      <point x="498.459" y="0" type="line"/>
      <point x="498.459" y="294.02" type="line" smooth="yes"/>
      <point x="498.459" y="371.439"/>
      <point x="423.263" y="449.479"/>
      <point x="354.689" y="449.479" type="qcurve" smooth="yes"/>
      <point x="304.426" y="449.479"/>
      <point x="228.386" y="408.837"/>
      <point x="187.366" y="330.952"/>
      <point x="187.366" y="273.399" type="qcurve" smooth="yes"/>
      <point x="187.366" y="0" type="line"/>
      <point x="91.3509" y="0" type="line"/>
      <point x="91.3509" y="742" type="line"/>
      <point x="187.366" y="742" type="line"/>
      <point x="187.366" y="386.892" type="line"/>
      <point x="167.629" y="424.521" type="line"/>
      <point x="194.007" y="477.318"/>
      <point x="301.784" y="535.203"/>
    </contour>
  </outline>
</glyph>
<glyph name="l" format="2">
  <advance width="279"/>
  <unicode hex="006C"/>
  <anchor x="180" y="742" name="t.uni0308"/>
  <anchor x="488" y="380" name="t.periodcentered.loclCAT"/>
  <anchor x="180" y="380" name="t.uni0307_1"/>
  <anchor x="394" y="742" name="t.uni031B_2"/>
  <anchor x="180" y="0" name="b.uni0324_3"/>
  <outline>
    <contour>
      <point x="91.3509" y="0" type="line"/>
      <point x="91.3509" y="742" type="line"/>
      <point x="187.366" y="742" type="line"/>
      <point x="187.366" y="0" type="line"/>
    </contour>
  </outline>
</glyph>
<glyph name="m" format="2">
  <advance width="1057"/>
  <unicode hex="006D"/>
  <anchor x="511" y="0" name="b.uni0324_3"/>
  <outline>
    <contour>
      <point x="753.777" y="535.203" type="qcurve" smooth="yes"/>
      <point x="818.311" y="535.203"/>
      <point x="915.912" y="485.358"/>
      <point x="970.825" y="383.446"/>
      <point x="970.825" y="305" type="qcurve" smooth="yes"/>
      <point x="970.825" y="0" type="line"/>
      <point x="874.81" y="0" type="line"/>
      <point x="874.81" y="294.02" type="line" smooth="yes"/>
      <point x="874.81" y="371.439"/>
      <point x="803.459" y="449.479"/>
      <point x="737.885" y="449.479" type="qcurve" smooth="yes"/>
      <point x="690.466" y="449.479"/>
      <point x="618.271" y="408.837"/>
      <point x="579.095" y="330.952"/>
      <point x="579.095" y="273.399" type="qcurve" smooth="yes"/>
      <point x="579.095" y="0" type="line"/>
      <point x="483.08" y="0" type="line"/>
      <point x="483.08" y="294.02" type="line" smooth="yes"/>
      <point x="483.08" y="371.439"/>
      <point x="411.729" y="449.479"/>
      <point x="346.155" y="449.479" type="qcurve" smooth="yes"/>
      <point x="298.737" y="449.479"/>
      <point x="226.541" y="408.837"/>
      <point x="187.366" y="330.952"/>
      <point x="187.366" y="273.399" type="qcurve" smooth="yes"/>
      <point x="187.366" y="0" type="line"/>
      <point x="91.3509" y="0" type="line"/>
      <point x="91.3509" y="529.669" type="line"/>
      <point x="183.143" y="529.669" type="line"/>
      <point x="183.143" y="388.737" type="line"/>
      <point x="167.629" y="424.677" type="line"/>
      <point x="193.007" y="477.318"/>
      <point x="297.095" y="535.203"/>
      <point x="366.271" y="535.203" type="qcurve" smooth="yes"/>
      <point x="442.048" y="535.203"/>
      <point x="551.96" y="460.115"/>
      <point x="569.183" y="384.338" type="qcurve"/>
      <point x="529.865" y="399.697" type="line"/>
      <point x="553.932" y="460.561"/>
      <point x="673.689" y="535.203"/>
    </contour>
  </outline>
</glyph>
<glyph name="o" format="2">
  <advance width="635"/>
  <unicode hex="006F"/>
  <anchor x="350" y="562" name="t.uni0308"/>
  <anchor x="350" y="281" name="t.uni0307_1"/>
  <anchor x="418" y="561" name="t.uni031B_2"/>
  <anchor x="350" y="0" name="b.uni0324_3"/>
  <anchor x="490" y="0" name="m.uni0328_4"/>
  <outline>
    <contour>
      <point x="317.669" y="-5.53383" type="qcurve" smooth="yes"/>
      <point x="238.068" y="-5.53383"/>
      <point x="114.088" y="64"/>
      <point x="42.1754" y="186.378"/>
      <point x="42.1754" y="264.912" type="qcurve" smooth="yes"/>
      <point x="42.1754" y="344.446"/>
      <point x="114.088" y="465.669"/>
      <point x="238.068" y="535.203"/>
      <point x="317.669" y="535.203" type="qcurve" smooth="yes"/>
      <point x="397.271" y="535.203"/>
      <point x="522.251" y="465.669"/>
      <point x="593.163" y="344.446"/>
      <point x="593.163" y="264.912" type="qcurve" smooth="yes"/>
      <point x="593.163" y="186.378"/>
      <point x="522.251" y="64"/>
      <point x="397.271" y="-5.53383"/>
    </contour>
    <contour>
      <point x="317.669" y="78.5012" type="qcurve" smooth="yes"/>
      <point x="369.311" y="78.5012"/>
      <point x="449.817" y="124.454"/>
      <point x="496.303" y="209.115"/>
      <point x="496.303" y="264.912" type="qcurve" smooth="yes"/>
      <point x="496.303" y="321.709"/>
      <point x="449.817" y="405.371"/>
      <point x="369.311" y="451.168"/>
      <point x="318.514" y="451.168" type="qcurve" smooth="yes"/>
      <point x="266.872" y="451.168"/>
      <point x="186.521" y="405.371"/>
      <point x="139.035" y="321.709"/>
      <point x="139.035" y="264.912" type="qcurve" smooth="yes"/>
      <point x="139.035" y="209.115"/>
      <point x="186.521" y="124.454"/>
      <point x="266.872" y="78.5012"/>
    </contour>
  </outline>
</glyph>
<glyph name="q" format="2">
  <advance width="682"/>
  <unicode hex="0071"/>
  <anchor x="354" y="562" name="t.uni0308"/>
  <anchor x="281" y="0" name="b.uni0324_3"/>
  <outline>
    <contour>
      <point x="310.068" y="-5.53383" type="qcurve" smooth="yes"/>
      <point x="233.155" y="-5.53383"/>
      <point x="111.554" y="62.3108"/>
      <point x="42.1754" y="183.689"/>
      <point x="42.1754" y="264.757" type="qcurve" smooth="yes"/>
      <point x="42.1754" y="345.98"/>
      <point x="111.554" y="467.358"/>
      <point x="233.155" y="535.203"/>
      <point x="310.068" y="535.203" type="qcurve" smooth="yes"/>
      <point x="378.534" y="535.203"/>
      <point x="487.155" y="474.96"/>
      <point x="550.466" y="355.271"/>
      <point x="550.466" y="264.757" type="qcurve" smooth="yes"/>
      <point x="550.466" y="175.243"/>
      <point x="485.466" y="54.7093"/>
      <point x="376.845" y="-5.53383"/>
    </contour>
    <contour>
      <point x="317.669" y="78.5012" type="qcurve" smooth="yes"/>
      <point x="368.466" y="78.5012"/>
      <point x="448.972" y="124.298"/>
      <point x="496.303" y="208.96"/>
      <point x="496.303" y="264.757" type="qcurve" smooth="yes"/>
      <point x="496.303" y="321.554"/>
      <point x="448.972" y="405.216"/>
      <point x="368.466" y="451.168"/>
      <point x="317.669" y="451.168" type="qcurve" smooth="yes"/>
      <point x="266.872" y="451.168"/>
      <point x="186.521" y="405.216"/>
      <point x="139.035" y="321.554"/>
      <point x="139.035" y="264.757" type="qcurve" smooth="yes"/>
      <point x="139.035" y="208.96"/>
      <point x="186.521" y="124.298"/>
      <point x="266.872" y="78.5012"/>
    </contour>
    <contour>
      <point x="494.614" y="-194" type="line"/>
      <point x="494.614" y="140.546" type="line"/>
      <point x="504.614" y="263.757" type="line"/>
      <point x="498.837" y="386.967" type="line"/>
      <point x="498.837" y="529.669" type="line"/>
      <point x="590.629" y="529.669" type="line"/>
      <point x="590.629" y="-194" type="line"/>
    </contour>
  </outline>
</glyph>
<glyph name="r" format="2">
  <advance width="410"/>
  <unicode hex="0072"/>
  <anchor x="253" y="562" name="t.uni0308"/>
  <anchor x="180" y="0" name="b.uni0324_3"/>
  <outline>
    <contour>
      <point x="91.3509" y="0" type="line"/>
      <point x="91.3509" y="529.669" type="line"/>
      <point x="183.143" y="529.669" type="line"/>
      <point x="183.143" y="385.825" type="line"/>
      <point x="173.541" y="421.764" type="line"/>
      <point x="196.231" y="477.095"/>
      <point x="299.541" y="535.203"/>
      <point x="376.007" y="535.203" type="qcurve"/>
      <point x="376.007" y="441.722" type="line"/>
      <point x="369.94" y="442.566"/>
      <point x="359.338" y="443.411"/>
      <point x="353.96" y="443.411" type="qcurve" smooth="yes"/>
      <point x="277.007" y="443.411"/>
      <point x="187.366" y="351.439"/>
      <point x="187.366" y="263.642" type="qcurve" smooth="yes"/>
      <point x="187.366" y="0" type="line"/>
    </contour>
  </outline>
</glyph>
<glyph name="u" format="2">
  <advance width="677"/>
  <unicode hex="0075"/>
  <anchor x="356" y="562" name="t.uni0308"/>
  <anchor x="533" y="562" name="t.uni031B_2"/>
  <anchor x="356" y="0" name="b.uni0324_3"/>
  <anchor x="691" y="0" name="m.uni0328_4"/>
  <outline>
    <contour>
      <point x="314.243" y="-5.53383" type="qcurve" smooth="yes"/>
      <point x="245.709" y="-5.53383"/>
      <point x="143.108" y="44.3108"/>
      <point x="86.1955" y="147.068"/>
      <point x="86.1955" y="224.669" type="qcurve" smooth="yes"/>
      <point x="86.1955" y="529.669" type="line"/>
      <point x="182.21" y="529.669" type="line"/>
      <point x="182.21" y="235.649" type="line" smooth="yes"/>
      <point x="182.21" y="158.231"/>
      <point x="256.872" y="80.1904"/>
      <point x="325.068" y="80.1904" type="qcurve" smooth="yes"/>
      <point x="374.865" y="80.1904"/>
      <point x="448.594" y="120.832"/>
      <point x="489.303" y="199.717"/>
      <point x="489.303" y="256.271" type="qcurve" smooth="yes"/>
      <point x="489.303" y="529.669" type="line"/>
      <point x="585.318" y="529.669" type="line"/>
      <point x="585.318" y="0" type="line"/>
      <point x="493.526" y="0" type="line"/>
      <point x="493.526" y="142.622" type="line"/>
      <point x="509.04" y="104.993" type="line"/>
      <point x="482.817" y="52.3509"/>
      <point x="379.04" y="-5.53383"/>
    </contour>
  </outline>
</glyph>
<glyph name="v" format="2">
  <advance width="559"/>
  <unicode hex="0076"/>
  <anchor x="352" y="562" name="t.uni0308"/>
  <anchor x="352" y="0" name="b.uni0324_3"/>
  <outline>
    <contour>
      <point x="229.642" y="0" type="line"/>
      <point x="-1.6015" y="529.669" type="line"/>
      <point x="98.2581" y="529.669" type="line"/>
      <point x="304.454" y="50.3183" type="line"/>
      <point x="255.912" y="50.3183" type="line"/>
      <point x="466.331" y="529.669" type="line"/>
      <point x="560.278" y="529.669" type="line"/>
      <point x="328.19" y="0" type="line"/>
    </contour>
  </outline>
</glyph>
<glyph name="w" format="2">
  <advance width="899"/>
  <unicode hex="0077"/>
  <anchor x="522" y="560" name="t.uni0308"/>
  <anchor x="522" y="0" name="b.uni0324_3"/>
  <outline>
    <contour>
      <point x="203.399" y="0" type="line"/>
      <point x="6.08772" y="529.669" type="line"/>
      <point x="97.035" y="529.669" type="line"/>
      <point x="271.987" y="50.3183" type="line"/>
      <point x="229.358" y="50.3183" type="line"/>
      <point x="410.689" y="529.669" type="line"/>
      <point x="492.19" y="529.669" type="line"/>
      <point x="670.143" y="50.3183" type="line"/>
      <point x="627.514" y="50.3183" type="line"/>
      <point x="806.689" y="529.669" type="line"/>
      <point x="892.724" y="529.669" type="line"/>
      <point x="694.569" y="0" type="line"/>
      <point x="603.088" y="0" type="line"/>
      <point x="436.115" y="438.033" type="line"/>
      <point x="464.231" y="438.033" type="line"/>
      <point x="294.724" y="0" type="line"/>
    </contour>
  </outline>
</glyph>
<glyph name="x" format="2">
  <advance width="552"/>
  <unicode hex="0078"/>
  <outline>
    <contour>
      <point x="14.4862" y="0" type="line"/>
      <point x="242.378" y="296.494" type="line"/>
      <point x="241.378" y="247.263" type="line"/>
      <point x="23.9524" y="529.669" type="line"/>
      <point x="130.88" y="529.669" type="line"/>
      <point x="296.764" y="311.629" type="line"/>
      <point x="255.825" y="312.474" type="line"/>
      <point x="421.709" y="529.669" type="line"/>
      <point x="526.792" y="529.669" type="line"/>
      <point x="307.366" y="244.952" type="line"/>
      <point x="308.366" y="295.804" type="line"/>
      <point x="537.569" y="0" type="line"/>
      <point x="428.797" y="0" type="line"/>
      <point x="253.601" y="231.506" type="line"/>
      <point x="293.231" y="226.439" type="line"/>
      <point x="121.413" y="0" type="line"/>
    </contour>
  </outline>
</glyph>
<glyph name="y" format="2">
  <advance width="559"/>
  <unicode hex="0079"/>
  <anchor x="345" y="562" name="t.uni0308"/>
  <anchor x="608" y="0" name="b.uni0324_3"/>
  <outline>
    <contour>
      <point x="113.94" y="-199.534" type="qcurve" smooth="yes"/>
      <point x="75.7168" y="-199.534"/>
      <point x="3.51378" y="-174.845"/>
      <point x="-21.7093" y="-151" type="qcurve"/>
      <point x="19.4737" y="-79.2557" type="line"/>
      <point x="38.7844" y="-97.8772"/>
      <point x="87.3183" y="-118.033"/>
      <point x="114.095" y="-118.033" type="qcurve" smooth="yes"/>
      <point x="148.717" y="-118.033"/>
      <point x="195.203" y="-81.7895"/>
      <point x="215.446" y="-36.4587" type="qcurve" smooth="yes"/>
      <point x="248.378" y="36.5614" type="line"/>
      <point x="257.601" y="49.4737" type="line"/>
      <point x="466.331" y="529.669" type="line"/>
      <point x="560.278" y="529.669" type="line"/>
      <point x="303.015" y="-53.4386" type="line"/>
      <point x="279.792" y="-108.952"/>
      <point x="222.967" y="-173.311"/>
      <point x="155.075" y="-199.534"/>
    </contour>
    <contour>
      <point x="239.709" y="-16.9123" type="line"/>
      <point x="-1.6015" y="529.669" type="line"/>
      <point x="98.2581" y="529.669" type="line"/>
      <point x="303.609" y="57.9198" type="line"/>
    </contour>
  </outline>
</glyph>
<glyph name="z" format="2">
  <advance width="521"/>
  <unicode hex="007A"/>
  <anchor x="310" y="562" name="t.uni0308"/>
  <anchor x="305" y="0" name="b.uni0324_3"/>
  <outline>
    <contour>
      <point x="40.0877" y="0" type="line"/>
      <point x="40.0877" y="62.2982" type="line"/>
      <point x="380.371" y="483.729" type="line"/>
      <point x="399.351" y="450.702" type="line"/>
      <point x="45.9323" y="450.702" type="line"/>
      <point x="45.9323" y="529.669" type="line"/>
      <point x="476.007" y="529.669" type="line"/>
      <point x="476.007" y="467.371" type="line"/>
      <point x="135.724" y="45.9398" type="line"/>
      <point x="114.434" y="78.9674" type="line"/>
      <point x="483.541" y="78.9674" type="line"/>
      <point x="483.541" y="0" type="line"/>
    </contour>
  </outline>
</glyph>
<glyph name="braceleft" format="2">
  <advance width="351"/>
  <unicode hex="007B"/>
  <outline>
    <contour>
      <point x="288.007" y="-194" type="line" smooth="yes"/>
      <point x="213.203" y="-194"/>
      <point x="136.554" y="-118.662"/>
      <point x="136.554" y="-46.391" type="qcurve" smooth="yes"/>
      <point x="136.554" y="184.128" type="line" smooth="yes"/>
      <point x="136.554" y="210.439"/>
      <point x="112.709" y="233.749"/>
      <point x="91.5539" y="233.749" type="qcurve" smooth="yes"/>
      <point x="57.3985" y="233.749" type="line"/>
      <point x="57.3985" y="314.406" type="line"/>
      <point x="91.5539" y="314.406" type="line" smooth="yes"/>
      <point x="112.709" y="314.406"/>
      <point x="136.554" y="338.406"/>
      <point x="136.554" y="363.872" type="qcurve" smooth="yes"/>
      <point x="136.554" y="594.391" type="line" smooth="yes"/>
      <point x="136.554" y="667.662"/>
      <point x="213.203" y="742"/>
      <point x="288.007" y="742" type="qcurve" smooth="yes"/>
      <point x="331.589" y="742" type="line"/>
      <point x="331.589" y="663.033" type="line"/>
      <point x="307.19" y="663.033" type="line" smooth="yes"/>
      <point x="269.724" y="663.033"/>
      <point x="232.569" y="622.566"/>
      <point x="232.569" y="585.1" type="qcurve" smooth="yes"/>
      <point x="232.569" y="365.561" type="line" smooth="yes"/>
      <point x="232.569" y="331.203"/>
      <point x="215.278" y="291.845"/>
      <point x="179.852" y="272.777"/>
      <point x="151.649" y="267.777" type="qcurve"/>
      <point x="151.649" y="280.223" type="line"/>
      <point x="179.852" y="276.223"/>
      <point x="215.278" y="256.155"/>
      <point x="232.569" y="216.797"/>
      <point x="232.569" y="182.439" type="qcurve" smooth="yes"/>
      <point x="232.569" y="-37.1003" type="line" smooth="yes"/>
      <point x="232.569" y="-74.5664"/>
      <point x="269.724" y="-115.033"/>
      <point x="307.19" y="-115.033" type="qcurve" smooth="yes"/>
      <point x="331.589" y="-115.033" type="line"/>
      <point x="331.589" y="-194" type="line"/>
    </contour>
  </outline>
</glyph>
<glyph name="braceright" format="2">
  <advance width="351"/>
  <unicode hex="007D"/>
  <outline>
    <contour>
      <point x="62.6692" y="-194" type="qcurve" smooth="yes"/>
      <point x="19.0877" y="-194" type="line"/>
      <point x="19.0877" y="-115.033" type="line"/>
      <point x="43.4862" y="-115.033" type="line" smooth="yes"/>
      <point x="81.9524" y="-115.033"/>
      <point x="118.952" y="-74.5664"/>
      <point x="118.952" y="-37.1003" type="qcurve" smooth="yes"/>
      <point x="118.952" y="182.439" type="line" smooth="yes"/>
      <point x="118.952" y="216.797"/>
      <point x="136.243" y="256.155"/>
      <point x="171.825" y="276.223"/>
      <point x="199.028" y="280.223" type="qcurve"/>
      <point x="199.028" y="267.777" type="line"/>
      <point x="171.825" y="272.777"/>
      <point x="136.243" y="291.845"/>
      <point x="118.952" y="331.203"/>
      <point x="118.952" y="365.561" type="qcurve" smooth="yes"/>
      <point x="118.952" y="585.1" type="line" smooth="yes"/>
      <point x="118.952" y="622.566"/>
      <point x="81.9524" y="663.033"/>
      <point x="43.4862" y="663.033" type="qcurve" smooth="yes"/>
      <point x="19.0877" y="663.033" type="line"/>
      <point x="19.0877" y="742" type="line"/>
      <point x="62.6692" y="742" type="line" smooth="yes"/>
      <point x="138.318" y="742"/>
      <point x="214.967" y="667.662"/>
      <point x="214.967" y="594.391" type="qcurve" smooth="yes"/>
      <point x="214.967" y="363.872" type="line" smooth="yes"/>
      <point x="214.967" y="338.406"/>
      <point x="238.812" y="314.406"/>
      <point x="259.123" y="314.406" type="qcurve" smooth="yes"/>
      <point x="293.278" y="314.406" type="line"/>
      <point x="293.278" y="233.749" type="line"/>
      <point x="259.123" y="233.749" type="line" smooth="yes"/>
      <point x="238.812" y="233.749"/>
      <point x="214.967" y="210.439"/>
      <point x="214.967" y="184.128" type="qcurve" smooth="yes"/>
      <point x="214.967" y="-46.391" type="line" smooth="yes"/>
      <point x="214.967" y="-118.662"/>
      <point x="138.318" y="-194"/>
    </contour>
  </outline>
</glyph>
<glyph name="asciitilde" format="2">
  <advance width="582"/>
  <unicode hex="007E"/>
  <outline>
    <contour>
      <point x="392.135" y="264.885" type="qcurve" smooth="yes"/>
      <point x="356.135" y="264.885"/>
      <point x="301.912" y="294.506"/>
      <point x="257.378" y="332.594"/>
      <point x="216.601" y="362.216"/>
      <point x="193.203" y="362.216" type="qcurve" smooth="yes"/>
      <point x="160.649" y="362.216"/>
      <point x="122.784" y="313.506"/>
      <point x="120.784" y="272.108" type="qcurve"/>
      <point x="58.0201" y="272.108" type="line"/>
      <point x="60.1754" y="355.601"/>
      <point x="133.689" y="435.96"/>
      <point x="189.825" y="435.96" type="qcurve" smooth="yes"/>
      <point x="225.825" y="435.96"/>
      <point x="280.048" y="406.338"/>
      <point x="324.581" y="368.251"/>
      <point x="365.358" y="338.629"/>
      <point x="388.757" y="338.629" type="qcurve" smooth="yes"/>
      <point x="422.155" y="338.629"/>
      <point x="460.02" y="388.183"/>
      <point x="461.175" y="429.581" type="qcurve"/>
      <point x="523.94" y="429.581" type="line"/>
      <point x="521.784" y="346.243"/>
      <point x="449.271" y="264.885"/>
    </contour>
  </outline>
</glyph>
<glyph name="exclamdown" format="2">
  <advance width="268"/>
  <unicode hex="00A1"/>
  <outline>
    <contour>
      <point x="171.92" y="308.729" type="line"/>
      <point x="191.123" y="-154" type="line"/>
      <point x="77.9048" y="-154" type="line"/>
      <point x="96.2632" y="308.729" type="line"/>
    </contour>
    <contour>
      <point x="134.514" y="535.203" type="qcurve" smooth="yes"/>
      <point x="163.251" y="535.203"/>
      <point x="199.366" y="497.399"/>
      <point x="199.366" y="470.351" type="qcurve" smooth="yes"/>
      <point x="199.366" y="444.303"/>
      <point x="163.251" y="407.188"/>
      <point x="134.514" y="407.188" type="qcurve" smooth="yes"/>
      <point x="106.777" y="407.188"/>
      <point x="68.8171" y="444.303"/>
      <point x="68.8171" y="470.351" type="qcurve" smooth="yes"/>
      <point x="68.8171" y="497.399"/>
      <point x="106.777" y="535.203"/>
    </contour>
  </outline>
</glyph>
<glyph name="sterling" format="2">
  <advance width="646"/>
  <unicode hex="00A3"/>
  <outline>
    <contour>
      <point x="139.02" y="14.2231" type="line"/>
      <point x="139.02" y="448.216" type="line" smooth="yes"/>
      <point x="139.02" y="526.885"/>
      <point x="208.068" y="643.622"/>
      <point x="339.872" y="708.068"/>
      <point x="433.852" y="708.068" type="qcurve" smooth="yes"/>
      <point x="494.697" y="708.068"/>
      <point x="591.251" y="684.135"/>
      <point x="631.251" y="658.048" type="qcurve"/>
      <point x="597.98" y="575.323" type="line"/>
      <point x="563.203" y="599.566"/>
      <point x="475.494" y="618.965"/>
      <point x="424.561" y="618.965" type="qcurve" smooth="yes"/>
      <point x="332.21" y="618.965"/>
      <point x="238.413" y="531.08"/>
      <point x="238.413" y="448.594" type="qcurve" smooth="yes"/>
      <point x="238.413" y="14.2231" type="line"/>
    </contour>
    <contour>
      <point x="30" y="0" type="line"/>
      <point x="30" y="86.5689" type="line"/>
      <point x="616.183" y="86.5689" type="line"/>
      <point x="616.183" y="0" type="line"/>
    </contour>
    <contour>
      <point x="30" y="317.351" type="line"/>
      <point x="30" y="382.649" type="line"/>
      <point x="504.474" y="382.649" type="line"/>
      <point x="504.474" y="317.351" type="line"/>
    </contour>
  </outline>
</glyph>
<glyph name="currency" format="2">
  <advance width="700"/>
  <unicode hex="00A4"/>
  <outline>
    <contour>
      <point x="146.331" y="462.749" type="line"/>
      <point x="31.3985" y="577.837" type="line"/>
      <point x="85.9398" y="637.446" type="line"/>
      <point x="201.872" y="522.358" type="line"/>
    </contour>
    <contour>
      <point x="85.9398" y="-2.44611" type="line"/>
      <point x="31.3985" y="57.1629" type="line"/>
      <point x="146.331" y="172.251" type="line"/>
      <point x="201.872" y="112.642" type="line"/>
    </contour>
    <contour>
      <point x="613.216" y="-2.44611" type="line"/>
      <point x="497.283" y="112.642" type="line"/>
      <point x="552.825" y="172.251" type="line"/>
      <point x="668.601" y="57.1629" type="line"/>
    </contour>
    <contour>
      <point x="552.825" y="462.749" type="line"/>
      <point x="497.283" y="522.358" type="line"/>
      <point x="613.216" y="637.446" type="line"/>
      <point x="668.601" y="577.837" type="line"/>
    </contour>
    <contour>
      <point x="350" y="55.2907" type="qcurve" smooth="yes"/>
      <point x="294.534" y="55.2907"/>
      <point x="196.068" y="96.4461"/>
      <point x="121.601" y="168.912"/>
      <point x="79.2907" y="264.378"/>
      <point x="79.2907" y="318.534" type="qcurve" smooth="yes"/>
      <point x="79.2907" y="373.689"/>
      <point x="121.601" y="469.311"/>
      <point x="196.068" y="542.622"/>
      <point x="294.534" y="583.932"/>
      <point x="350" y="583.932" type="qcurve" smooth="yes"/>
      <point x="406.466" y="583.932"/>
      <point x="505.088" y="542.622"/>
      <point x="579.709" y="469.311"/>
      <point x="622.02" y="373.689"/>
      <point x="622.02" y="318.534" type="qcurve" smooth="yes"/>
      <point x="622.02" y="264.378"/>
      <point x="579.709" y="168.912"/>
      <point x="505.088" y="96.4461"/>
      <point x="406.466" y="55.2907"/>
    </contour>
    <contour>
      <point x="350" y="134.413" type="qcurve" smooth="yes"/>
      <point x="403.574" y="134.413"/>
      <point x="491.323" y="184.677"/>
      <point x="544.587" y="268.115"/>
      <point x="544.587" y="318.534" type="qcurve" smooth="yes"/>
      <point x="544.587" y="369.952"/>
      <point x="491.323" y="454.391"/>
      <point x="403.574" y="504.81"/>
      <point x="350" y="504.81" type="qcurve" smooth="yes"/>
      <point x="297.581" y="504.81"/>
      <point x="209.832" y="454.391"/>
      <point x="157.569" y="369.952"/>
      <point x="157.569" y="318.534" type="qcurve" smooth="yes"/>
      <point x="157.569" y="268.115"/>
      <point x="209.832" y="184.677"/>
      <point x="297.581" y="134.413"/>
    </contour>
  </outline>
</glyph>
<glyph name="yen" format="2">
  <advance width="707"/>
  <unicode hex="00A5"/>
  <outline>
    <contour>
      <point x="303.885" y="0" type="line"/>
      <point x="303.885" y="304.689" type="line"/>
      <point x="326.622" y="238.168" type="line"/>
      <point x="-3.51378" y="700" type="line"/>
      <point x="102.258" y="700" type="line"/>
      <point x="385.454" y="303.932" type="line"/>
      <point x="325.088" y="303.932" type="line"/>
      <point x="609.128" y="700" type="line"/>
      <point x="710.677" y="700" type="line"/>
      <point x="380.541" y="238.168" type="line"/>
      <point x="403.278" y="304.689" type="line"/>
      <point x="403.278" y="0" type="line"/>
    </contour>
    <contour>
      <point x="93.4461" y="117.303" type="line"/>
      <point x="93.4461" y="174.155" type="line"/>
      <point x="613.717" y="174.155" type="line"/>
      <point x="613.717" y="117.303" type="line"/>
    </contour>
    <contour>
      <point x="93.4461" y="255.303" type="line"/>
      <point x="93.4461" y="312.155" type="line"/>
      <point x="613.717" y="312.155" type="line"/>
      <point x="613.717" y="255.303" type="line"/>
    </contour>
  </outline>
</glyph>
<glyph name="section" format="2">
  <advance width="500"/>
  <unicode hex="00A7"/>
  <outline>
    <contour>
      <point x="353.007" y="147.155" type="qcurve"/>
      <point x="288.155" y="196.474" type="line"/>
      <point x="328.02" y="203.474"/>
      <point x="381.439" y="251.804"/>
      <point x="381.439" y="289.757" type="qcurve" smooth="yes"/>
      <point x="381.439" y="319.466"/>
      <point x="346.128" y="354.797"/>
      <point x="288.506" y="375.196"/>
      <point x="219.729" y="391.662"/>
      <point x="151.108" y="411.662"/>
      <point x="93.4862" y="444.196"/>
      <point x="58.1754" y="498.885"/>
      <point x="58.1754" y="542.574" type="qcurve" smooth="yes"/>
      <point x="58.1754" y="591.952"/>
      <point x="112.622" y="664.932"/>
      <point x="215.514" y="705.534"/>
      <point x="286.649" y="705.534" type="qcurve" smooth="yes"/>
      <point x="317.804" y="705.534"/>
      <point x="387.717" y="694.223"/>
      <point x="451.163" y="671.912"/>
      <point x="472.007" y="655.912" type="qcurve"/>
      <point x="441.426" y="583.323" type="line"/>
      <point x="406.203" y="607.479"/>
      <point x="323.892" y="629.1"/>
      <point x="279.892" y="629.1" type="qcurve" smooth="yes"/>
      <point x="212.94" y="629.1"/>
      <point x="144.055" y="585.993"/>
      <point x="144.055" y="545.952" type="qcurve" smooth="yes"/>
      <point x="144.055" y="518.777"/>
      <point x="178.521" y="485.446"/>
      <point x="235.987" y="466.048"/>
      <point x="304.764" y="449.581"/>
      <point x="373.541" y="428.892"/>
      <point x="431.007" y="393.514"/>
      <point x="465.474" y="335.446"/>
      <point x="465.474" y="290.601" type="qcurve" smooth="yes"/>
      <point x="465.474" y="239.446"/>
      <point x="402.007" y="163.378"/>
    </contour>
    <contour>
      <point x="232.446" y="-105.534" type="qcurve" smooth="yes"/>
      <point x="193.757" y="-105.534"/>
      <point x="113.845" y="-89.2231"/>
      <point x="46.9323" y="-60.4461"/>
      <point x="26.0877" y="-42.1353" type="qcurve"/>
      <point x="56.6692" y="31.2982" type="line"/>
      <point x="88.0476" y="5.98744"/>
      <point x="185.048" y="-29.1003"/>
      <point x="235.825" y="-29.1003" type="qcurve" smooth="yes"/>
      <point x="292.554" y="-29.1003"/>
      <point x="358.128" y="14.1629"/>
      <point x="358.128" y="54.0476" type="qcurve" smooth="yes"/>
      <point x="358.128" y="82.9123"/>
      <point x="322.817" y="116.243"/>
      <point x="266.196" y="136.486"/>
      <point x="197.419" y="152.108"/>
      <point x="127.797" y="171.952"/>
      <point x="71.1754" y="205.642"/>
      <point x="35.8647" y="262.175"/>
      <point x="35.8647" y="306.02" type="qcurve" smooth="yes"/>
      <point x="35.8647" y="361.554"/>
      <point x="99.3308" y="436.466"/>
      <point x="148.175" y="452.689" type="qcurve"/>
      <point x="211.028" y="403.371" type="line"/>
      <point x="172.163" y="396.371"/>
      <point x="119.9" y="348.885"/>
      <point x="119.9" y="311.088" type="qcurve" smooth="yes"/>
      <point x="119.9" y="281.378"/>
      <point x="155.21" y="246.048"/>
      <point x="212.832" y="224.649"/>
      <point x="282.454" y="209.183"/>
      <point x="351.075" y="189.183"/>
      <point x="408.697" y="155.649"/>
      <point x="444.007" y="100.115"/>
      <point x="444.007" y="56.2707" type="qcurve" smooth="yes"/>
      <point x="444.007" y="8.04761"/>
      <point x="391.406" y="-65.0877"/>
      <point x="296.048" y="-105.534"/>
    </contour>
  </outline>
</glyph>
<glyph name="copyright" format="2">
  <advance width="802"/>
  <unicode hex="00A9"/>
  <outline>
    <contour>
      <point x="400.02" y="-3" type="qcurve" smooth="yes"/>
      <point x="325.02" y="-3"/>
      <point x="197.02" y="51"/>
      <point x="101.02" y="148"/>
      <point x="48.0201" y="276"/>
      <point x="48.0201" y="350" type="qcurve" smooth="yes"/>
      <point x="48.0201" y="424"/>
      <point x="102.02" y="552"/>
      <point x="198.02" y="649"/>
      <point x="327.02" y="703"/>
      <point x="402.02" y="703" type="qcurve" smooth="yes"/>
      <point x="477.02" y="703"/>
      <point x="606.02" y="650"/>
      <point x="701.02" y="554"/>
      <point x="754.02" y="427"/>
      <point x="754.02" y="352" type="qcurve" smooth="yes"/>
      <point x="754.02" y="277"/>
      <point x="700.02" y="148"/>
      <point x="603.02" y="51"/>
      <point x="475.02" y="-3"/>
    </contour>
    <contour>
      <point x="400.02" y="42.1829" type="qcurve" smooth="yes"/>
      <point x="465.108" y="42.1829"/>
      <point x="576.817" y="89.9599"/>
      <point x="660.371" y="174.203"/>
      <point x="707.148" y="287.068"/>
      <point x="707.148" y="352" type="qcurve" smooth="yes"/>
      <point x="707.148" y="417.088"/>
      <point x="661.371" y="528.642"/>
      <point x="578.972" y="611.196"/>
      <point x="467.952" y="657.817"/>
      <point x="402.02" y="657.817" type="qcurve" smooth="yes"/>
      <point x="336.088" y="657.817"/>
      <point x="223.378" y="611.04"/>
      <point x="140.825" y="526.642"/>
      <point x="94.8922" y="414.932"/>
      <point x="94.8922" y="350" type="qcurve" smooth="yes"/>
      <point x="94.8922" y="285.068"/>
      <point x="140.825" y="173.358"/>
      <point x="223.223" y="88.9599"/>
      <point x="335.088" y="42.1829"/>
    </contour>
    <contour>
      <point x="410.554" y="144.068" type="qcurve" smooth="yes"/>
      <point x="349.865" y="144.068"/>
      <point x="254.331" y="196.378"/>
      <point x="200.486" y="289.689"/>
      <point x="200.486" y="350" type="qcurve" smooth="yes"/>
      <point x="200.486" y="410.311"/>
      <point x="254.331" y="503.622"/>
      <point x="349.865" y="555.932"/>
      <point x="410.554" y="555.932" type="qcurve" smooth="yes"/>
      <point x="464" y="555.932"/>
      <point x="548.912" y="512.642"/>
      <point x="572.534" y="475.263" type="qcurve"/>
      <point x="516.148" y="434.08" type="line"/>
      <point x="497.216" y="461.857"/>
      <point x="442.108" y="487.945"/>
      <point x="409.554" y="487.945" type="qcurve" smooth="yes"/>
      <point x="371.757" y="487.945"/>
      <point x="311.561" y="453.459"/>
      <point x="276.231" y="391.797"/>
      <point x="276.231" y="350" type="qcurve" smooth="yes"/>
      <point x="276.231" y="308.203"/>
      <point x="311.561" y="246.541"/>
      <point x="371.757" y="212.055"/>
      <point x="409.554" y="212.055" type="qcurve" smooth="yes"/>
      <point x="442.108" y="212.055"/>
      <point x="497.216" y="238.143"/>
      <point x="516.148" y="265.92" type="qcurve"/>
      <point x="572.534" y="226.426" type="line"/>
      <point x="548.912" y="188.203"/>
      <point x="464" y="144.068"/>
    </contour>
  </outline>
</glyph>
<glyph name="ordfeminine" format="2">
  <advance width="404"/>
  <unicode hex="00AA"/>
  <outline>
    <contour>
      <point x="275.263" y="428.088" type="line"/>
      <point x="275.263" y="494.175" type="line"/>
      <point x="270.04" y="505.865" type="line"/>
      <point x="270.04" y="619.486" type="line" smooth="yes"/>
      <point x="270.04" y="658.04"/>
      <point x="226.486" y="693.905"/>
      <point x="183.088" y="693.905" type="qcurve" smooth="yes"/>
      <point x="152" y="693.905"/>
      <point x="93.5338" y="675.283"/>
      <point x="73.2231" y="658.817" type="qcurve"/>
      <point x="47.1754" y="704.068" type="line"/>
      <point x="72.8647" y="724.068"/>
      <point x="151.155" y="747.378"/>
      <point x="189.845" y="747.378" type="qcurve" smooth="yes"/>
      <point x="262.358" y="747.378"/>
      <point x="339.028" y="682.932"/>
      <point x="339.028" y="616.952" type="qcurve" smooth="yes"/>
      <point x="339.028" y="428.088" type="line"/>
    </contour>
    <contour>
      <point x="162.777" y="424.399" type="qcurve" smooth="yes"/>
      <point x="100.865" y="424.399"/>
      <point x="37.1754" y="478.311"/>
      <point x="37.1754" y="518.155" type="qcurve" smooth="yes"/>
      <point x="37.1754" y="558.068"/>
      <point x="100.466" y="610.446"/>
      <point x="172.534" y="610.446" type="qcurve" smooth="yes"/>
      <point x="280.574" y="610.446" type="line"/>
      <point x="280.574" y="566.729" type="line"/>
      <point x="181.825" y="566.729" type="line" smooth="yes"/>
      <point x="139.494" y="566.729"/>
      <point x="102.629" y="542.243"/>
      <point x="102.629" y="520.845" type="qcurve" smooth="yes"/>
      <point x="102.629" y="497.135"/>
      <point x="142.115" y="472.494"/>
      <point x="176.757" y="472.494" type="qcurve" smooth="yes"/>
      <point x="211.932" y="472.494"/>
      <point x="258.263" y="497.98"/>
      <point x="270.04" y="521.311" type="qcurve"/>
      <point x="281.263" y="478.371" type="line"/>
      <point x="270.797" y="455.729"/>
      <point x="209.709" y="424.399"/>
    </contour>
  </outline>
</glyph>
<glyph name="logicalnot" format="2">
  <advance width="582"/>
  <unicode hex="00AC"/>
  <outline>
    <contour>
      <point x="514.561" y="390.251" type="line"/>
      <point x="514.561" y="132.817" type="line"/>
      <point x="430.371" y="132.817" type="line"/>
      <point x="430.371" y="311.283" type="line"/>
      <point x="67.3985" y="311.283" type="line"/>
      <point x="67.3985" y="390.251" type="line"/>
    </contour>
  </outline>
</glyph>
<glyph name="registered" format="2">
  <advance width="802"/>
  <unicode hex="00AE"/>
  <outline>
    <contour>
      <point x="400.02" y="-3" type="qcurve" smooth="yes"/>
      <point x="325.02" y="-3"/>
      <point x="197.02" y="51"/>
      <point x="101.02" y="148"/>
      <point x="48.0201" y="276"/>
      <point x="48.0201" y="350" type="qcurve" smooth="yes"/>
      <point x="48.0201" y="424"/>
      <point x="102.02" y="552"/>
      <point x="198.02" y="649"/>
      <point x="327.02" y="703"/>
      <point x="402.02" y="703" type="qcurve" smooth="yes"/>
      <point x="477.02" y="703"/>
      <point x="606.02" y="650"/>
      <point x="701.02" y="554"/>
      <point x="754.02" y="427"/>
      <point x="754.02" y="352" type="qcurve" smooth="yes"/>
      <point x="754.02" y="277"/>
      <point x="700.02" y="148"/>
      <point x="603.02" y="51"/>
      <point x="475.02" y="-3"/>
    </contour>
    <contour>
      <point x="518.925" y="150.446" type="line"/>
      <point x="418.993" y="304" type="line"/>
      <point x="487.757" y="304" type="line"/>
      <point x="587.689" y="150.446" type="line"/>
    </contour>
    <contour>
      <point x="400.02" y="42.1829" type="qcurve" smooth="yes"/>
      <point x="465.108" y="42.1829"/>
      <point x="576.817" y="89.9599"/>
      <point x="660.371" y="174.203"/>
      <point x="707.148" y="287.068"/>
      <point x="707.148" y="352" type="qcurve" smooth="yes"/>
      <point x="707.148" y="417.088"/>
      <point x="661.371" y="528.642"/>
      <point x="578.972" y="611.196"/>
      <point x="467.952" y="657.817"/>
      <point x="402.02" y="657.817" type="qcurve" smooth="yes"/>
      <point x="336.088" y="657.817"/>
      <point x="223.378" y="611.04"/>
      <point x="140.825" y="526.642"/>
      <point x="94.8922" y="414.932"/>
      <point x="94.8922" y="350" type="qcurve" smooth="yes"/>
      <point x="94.8922" y="285.068"/>
      <point x="140.825" y="173.358"/>
      <point x="223.223" y="88.9599"/>
      <point x="335.088" y="42.1829"/>
    </contour>
    <contour>
      <point x="258.506" y="150.446" type="line"/>
      <point x="258.506" y="549.554" type="line"/>
      <point x="418.642" y="549.554" type="line" smooth="yes"/>
      <point x="494.709" y="549.554"/>
      <point x="580.932" y="475.865"/>
      <point x="580.932" y="414.02" type="qcurve" smooth="yes"/>
      <point x="580.932" y="349.642"/>
      <point x="494.709" y="277.642"/>
      <point x="418.642" y="277.642" type="qcurve" smooth="yes"/>
      <point x="326.649" y="277.642" type="line"/>
      <point x="326.649" y="150.446" type="line"/>
    </contour>
    <contour>
      <point x="325.649" y="333.804" type="line"/>
      <point x="414.108" y="333.804" type="line" smooth="yes"/>
      <point x="462.06" y="333.804"/>
      <point x="515.323" y="376.068"/>
      <point x="515.323" y="414.02" type="qcurve" smooth="yes"/>
      <point x="515.323" y="451.972"/>
      <point x="462.06" y="493.391"/>
      <point x="414.108" y="493.391" type="qcurve" smooth="yes"/>
      <point x="325.649" y="493.391" type="line"/>
    </contour>
  </outline>
</glyph>
<glyph name="degree" format="2">
  <advance width="419"/>
  <unicode hex="00B0"/>
  <outline>
    <contour>
      <point x="209.155" y="381.04" type="qcurve" smooth="yes"/>
      <point x="163.088" y="381.04"/>
      <point x="88.1754" y="424.419"/>
      <point x="44.797" y="498.331"/>
      <point x="44.797" y="543.709" type="qcurve" smooth="yes"/>
      <point x="44.797" y="589.088"/>
      <point x="88.1754" y="663"/>
      <point x="163.088" y="706.378"/>
      <point x="209.155" y="706.378" type="qcurve" smooth="yes"/>
      <point x="255.378" y="706.378"/>
      <point x="330.135" y="663"/>
      <point x="373.514" y="589.088"/>
      <point x="373.514" y="543.709" type="qcurve" smooth="yes"/>
      <point x="373.514" y="498.331"/>
      <point x="330.135" y="424.419"/>
      <point x="255.378" y="381.04"/>
    </contour>
    <contour>
      <point x="209.155" y="434.514" type="qcurve" smooth="yes"/>
      <point x="240.243" y="434.514"/>
      <point x="289.108" y="463.757"/>
      <point x="317.351" y="512.777"/>
      <point x="317.351" y="543.709" type="qcurve" smooth="yes"/>
      <point x="317.351" y="574.797"/>
      <point x="289.108" y="624.506"/>
      <point x="240.243" y="652.905"/>
      <point x="209.155" y="652.905" type="qcurve" smooth="yes"/>
      <point x="178.912" y="652.905"/>
      <point x="129.203" y="624.506"/>
      <point x="100.96" y="575.642"/>
      <point x="100.96" y="543.709" type="qcurve" smooth="yes"/>
      <point x="100.96" y="511.932"/>
      <point x="129.203" y="462.912"/>
      <point x="178.912" y="434.514"/>
    </contour>
  </outline>
</glyph>
<glyph name="plusminus" format="2">
  <advance width="582"/>
  <unicode hex="00B1"/>
  <outline>
    <contour>
      <point x="67.3985" y="0" type="line"/>
      <point x="67.3985" y="78.9674" type="line"/>
      <point x="514.561" y="78.9674" type="line"/>
      <point x="514.561" y="0" type="line"/>
    </contour>
    <contour>
      <point x="248.885" y="184.629" type="line"/>
      <point x="248.885" y="611.657" type="line"/>
      <point x="333.075" y="611.657" type="line"/>
      <point x="333.075" y="184.629" type="line"/>
    </contour>
    <contour>
      <point x="67.3985" y="358.581" type="line"/>
      <point x="67.3985" y="437.549" type="line"/>
      <point x="514.561" y="437.549" type="line"/>
      <point x="514.561" y="358.581" type="line"/>
    </contour>
  </outline>
</glyph>
<glyph name="paragraph" format="2">
  <advance width="648"/>
  <unicode hex="00B6"/>
  <outline>
    <contour>
      <point x="226.689" y="-100" type="line"/>
      <point x="226.689" y="383.526" type="line"/>
      <point x="165.845" y="384.371"/>
      <point x="72.4662" y="428.594"/>
      <point x="19.0877" y="509.196"/>
      <point x="19.0877" y="563.263" type="qcurve" smooth="yes"/>
      <point x="19.0877" y="618.331"/>
      <point x="74.1554" y="698.777"/>
      <point x="174.291" y="742"/>
      <point x="241.048" y="742" type="qcurve" smooth="yes"/>
      <point x="543.015" y="742" type="line"/>
      <point x="543.015" y="-100" type="line"/>
      <point x="463.048" y="-100" type="line"/>
      <point x="463.048" y="667.256" type="line"/>
      <point x="306.657" y="667.256" type="line"/>
      <point x="306.657" y="-100" type="line"/>
    </contour>
  </outline>
</glyph>
<glyph name="periodcentered" format="2">
  <advance width="267"/>
  <unicode hex="00B7"/>
  <outline>
    <contour>
      <point x="133.804" y="205.905" type="qcurve" smooth="yes"/>
      <point x="106.068" y="205.905"/>
      <point x="66.4186" y="244.709"/>
      <point x="66.4186" y="274.98" type="qcurve" smooth="yes"/>
      <point x="66.4186" y="305.406"/>
      <point x="106.068" y="343.21"/>
      <point x="133.804" y="343.21" type="qcurve" smooth="yes"/>
      <point x="162.541" y="343.21"/>
      <point x="200.346" y="305.406"/>
      <point x="200.346" y="274.98" type="qcurve" smooth="yes"/>
      <point x="200.346" y="244.709"/>
      <point x="162.541" y="205.905"/>
    </contour>
  </outline>
</glyph>
<glyph name="ordmasculine" format="2">
  <advance width="418"/>
  <unicode hex="00BA"/>
  <outline>
    <contour>
      <point x="209.757" y="424.399" type="qcurve" smooth="yes"/>
      <point x="157.689" y="424.399"/>
      <point x="77.7769" y="466.088"/>
      <point x="31.5539" y="539.622"/>
      <point x="31.5539" y="586.311" type="qcurve" smooth="yes"/>
      <point x="31.5539" y="633.155"/>
      <point x="77.7769" y="705.689"/>
      <point x="157.689" y="747.378"/>
      <point x="208.912" y="747.378" type="qcurve" smooth="yes"/>
      <point x="260.98" y="747.378"/>
      <point x="340.892" y="705.689"/>
      <point x="386.271" y="633.155"/>
      <point x="386.271" y="586.311" type="qcurve" smooth="yes"/>
      <point x="386.271" y="539.622"/>
      <point x="340.892" y="466.088"/>
      <point x="260.98" y="424.399"/>
    </contour>
    <contour>
      <point x="208.912" y="482.095" type="qcurve" smooth="yes"/>
      <point x="258.243" y="482.095"/>
      <point x="319.128" y="540.514"/>
      <point x="319.128" y="586.311" type="qcurve" smooth="yes"/>
      <point x="319.128" y="633.108"/>
      <point x="258.243" y="689.682"/>
      <point x="208.912" y="689.682" type="qcurve" smooth="yes"/>
      <point x="160.581" y="689.682"/>
      <point x="98.6967" y="633.108"/>
      <point x="98.6967" y="586.311" type="qcurve" smooth="yes"/>
      <point x="98.6967" y="540.514"/>
      <point x="160.581" y="482.095"/>
    </contour>
  </outline>
</glyph>
<glyph name="questiondown" format="2">
  <advance width="573"/>
  <unicode hex="00BF"/>
  <outline>
    <contour>
      <point x="305.689" y="-162.068" type="qcurve" smooth="yes"/>
      <point x="233.777" y="-162.068"/>
      <point x="126.797" y="-119.223"/>
      <point x="68.7293" y="-41.4662"/>
      <point x="68.7293" y="11.1353" type="qcurve" smooth="yes"/>
      <point x="68.7293" y="51.4461"/>
      <point x="94.1955" y="109.757"/>
      <point x="134.972" y="154.068"/>
      <point x="178.905" y="192.378"/>
      <point x="219.682" y="230.466"/>
      <point x="245.148" y="277.175"/>
      <point x="245.148" y="308.729" type="qcurve"/>
      <point x="345.386" y="308.729" type="line"/>
      <point x="345.386" y="270.797"/>
      <point x="319.92" y="215.02"/>
      <point x="279.987" y="170.709"/>
      <point x="234.366" y="132.399"/>
      <point x="194.434" y="94.4662"/>
      <point x="168.967" y="50.2907"/>
      <point x="168.967" y="22.2707" type="qcurve" smooth="yes"/>
      <point x="168.967" y="-18.8371"/>
      <point x="245.318" y="-77.188"/>
      <point x="312.446" y="-77.188" type="qcurve" smooth="yes"/>
      <point x="373.466" y="-77.188"/>
      <point x="461.729" y="-36.0326"/>
      <point x="491.283" y="1.89972" type="qcurve"/>
      <point x="564.406" y="-50.1078" type="line"/>
      <point x="522.872" y="-103.243"/>
      <point x="392.825" y="-162.068"/>
    </contour>
    <contour>
      <point x="294.845" y="407.188" type="qcurve" smooth="yes"/>
      <point x="267.108" y="407.188"/>
      <point x="229.993" y="444.303"/>
      <point x="229.993" y="470.351" type="qcurve" smooth="yes"/>
      <point x="229.993" y="497.399"/>
      <point x="267.108" y="535.203"/>
      <point x="294.845" y="535.203" type="qcurve" smooth="yes"/>
      <point x="323.581" y="535.203"/>
      <point x="359.697" y="497.399"/>
      <point x="359.697" y="470.351" type="qcurve" smooth="yes"/>
      <point x="359.697" y="444.303"/>
      <point x="323.581" y="407.188"/>
    </contour>
  </outline>
</glyph>
<glyph name="AE" format="2">
  <advance width="1047"/>
  <unicode hex="00C6"/>
  <anchor x="680" y="700" name="t.uni0308"/>
  <anchor x="680" y="0" name="b.uni0324_3"/>
  <outline>
    <contour>
      <point x="-1.13533" y="0" type="line"/>
      <point x="415.993" y="700" type="line"/>
      <point x="515.541" y="700" type="line"/>
      <point x="515.541" y="613.431" type="line"/>
      <point x="427.662" y="613.431" type="line"/>
      <point x="488.96" y="657.128" type="line"/>
      <point x="102.103" y="0" type="line"/>
    </contour>
    <contour>
      <point x="177.494" y="174.682" type="line"/>
      <point x="183.271" y="255.338" type="line"/>
      <point x="515.541" y="255.338" type="line"/>
      <point x="515.541" y="174.682" type="line"/>
    </contour>
    <contour>
      <point x="573.684" y="397.94" type="line"/>
      <point x="933.434" y="397.94" type="line"/>
      <point x="933.434" y="313.06" type="line"/>
      <point x="572.84" y="313.06" type="line"/>
    </contour>
    <contour>
      <point x="582.063" y="86.5689" type="line"/>
      <point x="990.9" y="86.5689" type="line"/>
      <point x="990.9" y="0" type="line"/>
      <point x="482.669" y="0" type="line"/>
      <point x="482.669" y="700" type="line"/>
      <point x="976.744" y="700" type="line"/>
      <point x="976.744" y="613.431" type="line"/>
      <point x="582.063" y="613.431" type="line"/>
    </contour>
  </outline>
</glyph>
<glyph name="multiply" format="2">
  <advance width="582"/>
  <unicode hex="00D7"/>
  <outline>
    <contour>
      <point x="106.885" y="219.601" type="line"/>
      <point x="422.223" y="538.318" type="line"/>
      <point x="475.92" y="480.399" type="line"/>
      <point x="159.737" y="161.682" type="line"/>
    </contour>
    <contour>
      <point x="106.885" y="480.399" type="line"/>
      <point x="159.737" y="538.318" type="line"/>
      <point x="475.92" y="219.601" type="line"/>
      <point x="422.223" y="161.682" type="line"/>
    </contour>
  </outline>
</glyph>
<glyph name="Thorn" format="2">
  <advance width="722"/>
  <unicode hex="00DE"/>
  <outline>
    <contour>
      <point x="181.163" y="124.642" type="line"/>
      <point x="181.163" y="211.21" type="line"/>
      <point x="375.378" y="211.21" type="line" smooth="yes"/>
      <point x="471.351" y="211.21"/>
      <point x="570.1" y="294.338"/>
      <point x="570.1" y="369.155" type="qcurve" smooth="yes"/>
      <point x="570.1" y="444.817"/>
      <point x="471.351" y="526.945"/>
      <point x="375.378" y="526.945" type="qcurve" smooth="yes"/>
      <point x="181.163" y="526.945" type="line"/>
      <point x="181.163" y="613.514" type="line"/>
      <point x="378.446" y="613.514" type="line" smooth="yes"/>
      <point x="469.514" y="613.514"/>
      <point x="600.115" y="554.291"/>
      <point x="670.338" y="445.534"/>
      <point x="670.338" y="370" type="qcurve" smooth="yes"/>
      <point x="670.338" y="293.622"/>
      <point x="600.115" y="183.865"/>
      <point x="469.514" y="124.642"/>
      <point x="378.446" y="124.642" type="qcurve" smooth="yes"/>
    </contour>
    <contour>
      <point x="105.128" y="0" type="line"/>
      <point x="105.128" y="700" type="line"/>
      <point x="204.521" y="700" type="line"/>
      <point x="204.521" y="0" type="line"/>
    </contour>
  </outline>
</glyph>
<glyph name="germandbls" format="2">
  <advance width="676"/>
  <unicode hex="00DF"/>
  <outline>
    <contour>
      <point x="391.96" y="-5.53383" type="qcurve" smooth="yes"/>
      <point x="362.271" y="-5.53383"/>
      <point x="300.514" y="2.46617"/>
      <point x="276.669" y="10.3108" type="qcurve"/>
      <point x="291.96" y="90.9674" type="line"/>
      <point x="312.426" y="83.9674"/>
      <point x="357.203" y="77.6566"/>
      <point x="387.737" y="77.6566" type="qcurve" smooth="yes"/>
      <point x="433.223" y="77.6566"/>
      <point x="499.351" y="106.987"/>
      <point x="536.614" y="164.183"/>
      <point x="536.614" y="204.135" type="qcurve" smooth="yes"/>
      <point x="536.614" y="264.642"/>
      <point x="448.486" y="329.614"/>
      <point x="376.912" y="329.614" type="qcurve" smooth="yes"/>
      <point x="320.291" y="329.614" type="line"/>
      <point x="320.291" y="411.115" type="line"/>
      <point x="395.642" y="411.96"/>
      <point x="481.303" y="485.155"/>
      <point x="481.303" y="546.04" type="qcurve" smooth="yes"/>
      <point x="481.303" y="598.993"/>
      <point x="408.642" y="664.343"/>
      <point x="341.912" y="664.343" type="qcurve" smooth="yes"/>
      <point x="270.494" y="664.343"/>
      <point x="187.366" y="582.371"/>
      <point x="187.366" y="501.932" type="qcurve" smooth="yes"/>
      <point x="187.366" y="0" type="line"/>
      <point x="91.3509" y="0" type="line"/>
      <point x="91.3509" y="493.642" type="line" smooth="yes"/>
      <point x="91.3509" y="578.399"/>
      <point x="156.642" y="691"/>
      <point x="270" y="747.534"/>
      <point x="341.757" y="747.534" type="qcurve" smooth="yes"/>
      <point x="414.203" y="747.534"/>
      <point x="518.028" y="695.622"/>
      <point x="573.94" y="606.331"/>
      <point x="573.94" y="550.263" type="qcurve" smooth="yes"/>
      <point x="573.94" y="504.419"/>
      <point x="539.251" y="433.574"/>
      <point x="483.095" y="384.574"/>
      <point x="416.318" y="358.574"/>
      <point x="383.386" y="358.574" type="qcurve"/>
      <point x="412.609" y="397.446" type="line"/>
      <point x="474.852" y="397.446"/>
      <point x="574.629" y="351.446"/>
      <point x="633.474" y="264.446"/>
      <point x="633.474" y="201.601" type="qcurve" smooth="yes"/>
      <point x="633.474" y="136.378"/>
      <point x="570.784" y="43.3108"/>
      <point x="461.872" y="-5.53383"/>
    </contour>
  </outline>
</glyph>
<glyph name="ae" format="2">
  <advance width="989"/>
  <unicode hex="00E6"/>
  <anchor x="488" y="562" name="t.uni0308"/>
  <anchor x="481" y="0" name="b.uni0324_3"/>
  <outline>
    <contour>
      <point x="256.446" y="-5.53383" type="qcurve" smooth="yes"/>
      <point x="159.311" y="-5.53383"/>
      <point x="49.797" y="82.9123"/>
      <point x="49.797" y="153.825" type="qcurve" smooth="yes"/>
      <point x="49.797" y="194.203"/>
      <point x="90.7093" y="262.115"/>
      <point x="184.223" y="304.494"/>
      <point x="262.514" y="304.494" type="qcurve" smooth="yes"/>
      <point x="429.885" y="304.494" type="line"/>
      <point x="429.885" y="234.817" type="line"/>
      <point x="266.581" y="234.817" type="line" smooth="yes"/>
      <point x="196.318" y="234.817"/>
      <point x="144.967" y="188.088"/>
      <point x="144.967" y="155.669" type="qcurve" smooth="yes"/>
      <point x="144.967" y="114.561"/>
      <point x="208.163" y="68.3659"/>
      <point x="264.048" y="68.3659" type="qcurve" smooth="yes"/>
      <point x="335" y="68.3659"/>
      <point x="415.439" y="140.717"/>
      <point x="415.439" y="201.155" type="qcurve" smooth="yes"/>
      <point x="415.439" y="324.486" type="line" smooth="yes"/>
      <point x="415.439" y="385.216"/>
      <point x="344.108" y="452.013"/>
      <point x="274.243" y="452.013" type="qcurve" smooth="yes"/>
      <point x="226.378" y="452.013"/>
      <point x="136.291" y="421.303"/>
      <point x="104.825" y="395.216" type="qcurve"/>
      <point x="64.6416" y="466.649" type="line"/>
      <point x="105.865" y="499.96"/>
      <point x="221.155" y="535.203"/>
      <point x="283.378" y="535.203" type="qcurve" smooth="yes"/>
      <point x="374.601" y="535.203"/>
      <point x="482.804" y="462.183"/>
      <point x="497.94" y="391.386" type="qcurve"/>
      <point x="451.865" y="397.007" type="line"/>
      <point x="482.932" y="460.717"/>
      <point x="604.311" y="535.203"/>
      <point x="683.311" y="535.203" type="qcurve" smooth="yes"/>
      <point x="740.223" y="535.203"/>
      <point x="836.514" y="495.669"/>
      <point x="907.581" y="424.135"/>
      <point x="946.96" y="326.223"/>
      <point x="946.96" y="267.689" type="qcurve" smooth="yes"/>
      <point x="946.96" y="258.243"/>
      <point x="946.115" y="241.885"/>
      <point x="944.426" y="234.817" type="qcurve"/>
      <point x="492.251" y="234.817" type="line"/>
      <point x="492.251" y="304.494" type="line"/>
      <point x="893.729" y="304.494" type="line"/>
      <point x="853.634" y="278.203" type="line"/>
      <point x="854.479" y="335.223"/>
      <point x="805.769" y="412.817"/>
      <point x="727.04" y="453.702"/>
      <point x="682.466" y="453.702" type="qcurve" smooth="yes"/>
      <point x="638.737" y="453.702"/>
      <point x="560.007" y="412.817"/>
      <point x="510.609" y="333.534"/>
      <point x="510.609" y="275.669" type="qcurve" smooth="yes"/>
      <point x="510.609" y="259.845" type="line" smooth="yes"/>
      <point x="510.609" y="206.581"/>
      <point x="559.095" y="124.454"/>
      <point x="645.98" y="78.5012"/>
      <point x="704" y="78.5012" type="qcurve" smooth="yes"/>
      <point x="750.932" y="78.5012"/>
      <point x="827.04" y="110.055"/>
      <point x="857.196" y="142.454" type="qcurve"/>
      <point x="910.892" y="80.3108" type="line"/>
      <point x="874.358" y="37.4662"/>
      <point x="766.757" y="-5.53383"/>
      <point x="700.622" y="-5.53383" type="qcurve" smooth="yes"/>
      <point x="639.554" y="-5.53383"/>
      <point x="532.486" y="32.3985"/>
      <point x="452.419" y="112.331"/>
      <point x="430.196" y="174.642" type="qcurve"/>
      <point x="492.183" y="173.486" type="line"/>
      <point x="480.426" y="105.642"/>
      <point x="407.446" y="26.8647"/>
      <point x="308.223" y="-5.53383"/>
    </contour>
  </outline>
</glyph>
<glyph name="eth" format="2">
  <advance width="640"/>
  <unicode hex="00F0"/>
  <outline>
    <contour>
      <point x="294.446" y="-8.06767" type="qcurve" smooth="yes"/>
      <point x="223.068" y="-8.06767"/>
      <point x="108.777" y="46.7769"/>
      <point x="42.1754" y="147.311"/>
      <point x="42.1754" y="215.689" type="qcurve" smooth="yes"/>
      <point x="42.1754" y="284.068"/>
      <point x="108.777" y="384.446"/>
      <point x="224.378" y="439.291"/>
      <point x="296.534" y="439.291" type="qcurve" smooth="yes"/>
      <point x="354.777" y="439.291"/>
      <point x="449.108" y="398.271"/>
      <point x="514.108" y="320.541"/>
      <point x="526.243" y="264.744" type="qcurve"/>
      <point x="488.682" y="250.541" type="line"/>
      <point x="496.459" y="279.251"/>
      <point x="500.925" y="338.825"/>
      <point x="500.925" y="366.358" type="qcurve" smooth="yes"/>
      <point x="500.925" y="459.155"/>
      <point x="440.06" y="582.662"/>
      <point x="327.952" y="645.148"/>
      <point x="251.088" y="645.148" type="qcurve" smooth="yes"/>
      <point x="208.243" y="645.148"/>
      <point x="134.622" y="632.303"/>
      <point x="106.155" y="622.459" type="qcurve"/>
      <point x="90.1754" y="703.96" type="line"/>
      <point x="122.399" y="713.649"/>
      <point x="204.399" y="725.804"/>
      <point x="251.088" y="725.804" type="qcurve" smooth="yes"/>
      <point x="355.757" y="725.804"/>
      <point x="511.494" y="639.892"/>
      <point x="597.784" y="470.223"/>
      <point x="597.784" y="344.932" type="qcurve" smooth="yes"/>
      <point x="597.784" y="236.399"/>
      <point x="526.494" y="78.2431"/>
      <point x="391.514" y="-8.06767"/>
    </contour>
    <contour>
      <point x="301.203" y="73.4336" type="qcurve" smooth="yes"/>
      <point x="355.777" y="73.4336"/>
      <point x="433.128" y="113.852"/>
      <point x="473.303" y="178.669"/>
      <point x="473.303" y="215.689" type="qcurve" smooth="yes"/>
      <point x="473.303" y="256.331"/>
      <point x="429.972" y="320.837"/>
      <point x="355.622" y="357.79"/>
      <point x="306.669" y="357.79" type="qcurve" smooth="yes"/>
      <point x="229.007" y="357.79"/>
      <point x="139.035" y="280.04"/>
      <point x="139.035" y="215.689" type="qcurve" smooth="yes"/>
      <point x="139.035" y="172.892"/>
      <point x="180.21" y="109.075"/>
      <point x="253.406" y="73.4336"/>
    </contour>
    <contour>
      <point x="153.912" y="479.614" type="line"/>
      <point x="128.175" y="542.534" type="line"/>
      <point x="538.784" y="708.912" type="line"/>
      <point x="564.521" y="645.148" type="line"/>
    </contour>
  </outline>
</glyph>
<glyph name="divide" format="2">
  <advance width="582"/>
  <unicode hex="00F7"/>
  <outline>
    <contour>
      <point x="67.3985" y="310.439" type="line"/>
      <point x="67.3985" y="389.406" type="line"/>
      <point x="514.561" y="389.406" type="line"/>
      <point x="514.561" y="310.439" type="line"/>
    </contour>
    <contour>
      <point x="290.98" y="93.3233" type="qcurve" smooth="yes"/>
      <point x="267.466" y="93.3233"/>
      <point x="233.729" y="127.905"/>
      <point x="233.729" y="153.952" type="qcurve" smooth="yes"/>
      <point x="233.729" y="180.155"/>
      <point x="267.466" y="212.892"/>
      <point x="290.98" y="212.892" type="qcurve" smooth="yes"/>
      <point x="315.494" y="212.892"/>
      <point x="349.075" y="180.155"/>
      <point x="349.075" y="153.952" type="qcurve" smooth="yes"/>
      <point x="349.075" y="127.905"/>
      <point x="315.494" y="93.3233"/>
    </contour>
    <contour>
      <point x="290.98" y="487.108" type="qcurve" smooth="yes"/>
      <point x="267.466" y="487.108"/>
      <point x="233.729" y="521.689"/>
      <point x="233.729" y="546.892" type="qcurve" smooth="yes"/>
      <point x="233.729" y="573.095"/>
      <point x="267.466" y="606.677"/>
      <point x="290.98" y="606.677" type="qcurve" smooth="yes"/>
      <point x="315.494" y="606.677"/>
      <point x="349.075" y="573.095"/>
      <point x="349.075" y="546.892" type="qcurve" smooth="yes"/>
      <point x="349.075" y="521.689"/>
      <point x="315.494" y="487.108"/>
    </contour>
  </outline>
</glyph>
<glyph name="thorn" format="2">
  <advance width="682"/>
  <unicode hex="00FE"/>
  <anchor x="432" y="562" name="t.uni0308"/>
  <anchor x="432" y="0" name="b.uni0324_3"/>
  <outline>
    <contour>
      <point x="371.912" y="-5.53383" type="qcurve" smooth="yes"/>
      <point x="305.98" y="-5.53383"/>
      <point x="196.514" y="54.7093"/>
      <point x="131.514" y="175.243"/>
      <point x="131.514" y="264.757" type="qcurve" smooth="yes"/>
      <point x="131.514" y="355.271"/>
      <point x="194.825" y="474.96"/>
      <point x="304.291" y="535.203"/>
      <point x="371.912" y="535.203" type="qcurve" smooth="yes"/>
      <point x="449.669" y="535.203"/>
      <point x="570.426" y="467.358"/>
      <point x="639.804" y="345.98"/>
      <point x="639.804" y="264.757" type="qcurve" smooth="yes"/>
      <point x="639.804" y="183.689"/>
      <point x="570.426" y="62.3108"/>
      <point x="449.669" y="-5.53383"/>
    </contour>
    <contour>
      <point x="91.3509" y="-194" type="line"/>
      <point x="91.3509" y="742" type="line"/>
      <point x="187.366" y="742" type="line"/>
      <point x="187.366" y="386.967" type="line"/>
      <point x="177.366" y="263.757" type="line"/>
      <point x="187.366" y="140.546" type="line"/>
      <point x="187.366" y="-194" type="line"/>
    </contour>
    <contour>
      <point x="364.311" y="78.5012" type="qcurve" smooth="yes"/>
      <point x="415.108" y="78.5012"/>
      <point x="495.614" y="124.298"/>
      <point x="542.945" y="208.96"/>
      <point x="542.945" y="264.757" type="qcurve" smooth="yes"/>
      <point x="542.945" y="321.554"/>
      <point x="495.614" y="405.216"/>
      <point x="415.108" y="451.168"/>
      <point x="364.311" y="451.168" type="qcurve" smooth="yes"/>
      <point x="313.514" y="451.168"/>
      <point x="233.007" y="405.216"/>
      <point x="185.677" y="321.554"/>
      <point x="185.677" y="264.757" type="qcurve" smooth="yes"/>
      <point x="185.677" y="208.96"/>
      <point x="233.007" y="124.298"/>
      <point x="313.514" y="78.5012"/>
    </contour>
  </outline>
</glyph>
<glyph name="eogonek" format="2">
  <advance width="612"/>
  <unicode hex="0119"/>
  <anchor x="355" y="562" name="t.uni0308"/>
  <anchor x="355" y="0" name="b.uni0324_3"/>
  <outline>
    <contour>
      <point x="435.892" y="-223.98" type="qcurve" smooth="yes"/>
      <point x="380.845" y="-223.98"/>
      <point x="316.175" y="-166.466"/>
      <point x="316.175" y="-118.865" type="qcurve" smooth="yes"/>
      <point x="316.175" y="-84.797"/>
      <point x="353.709" y="-7.95239"/>
      <point x="397.351" y="25" type="qcurve"/>
      <point x="431.135" y="10.7093" type="line"/>
      <point x="407.825" y="3.08772"/>
      <point x="355.358" y="-5.53383"/>
      <point x="327.203" y="-5.53383" type="qcurve" smooth="yes"/>
      <point x="242.068" y="-5.53383"/>
      <point x="113.399" y="64"/>
      <point x="42.1754" y="186.378"/>
      <point x="42.1754" y="264.912" type="qcurve" smooth="yes"/>
      <point x="42.1754" y="343.601"/>
      <point x="110.932" y="465.669"/>
      <point x="231.757" y="535.203"/>
      <point x="308.203" y="535.203" type="qcurve" smooth="yes"/>
      <point x="384.649" y="535.203"/>
      <point x="502.94" y="466.825"/>
      <point x="570.163" y="344.068"/>
      <point x="570.163" y="262.311" type="qcurve" smooth="yes"/>
      <point x="570.163" y="256.243"/>
      <point x="569.318" y="239.885"/>
      <point x="568.474" y="232.817" type="qcurve"/>
      <point x="117.366" y="232.817" type="line"/>
      <point x="117.366" y="302.494" type="line"/>
      <point x="517.777" y="302.494" type="line"/>
      <point x="479.371" y="278.203" type="line"/>
      <point x="480.216" y="329.311"/>
      <point x="435.729" y="408.594"/>
      <point x="358.689" y="453.702"/>
      <point x="308.203" y="453.702" type="qcurve" smooth="yes"/>
      <point x="257.872" y="453.702"/>
      <point x="179.832" y="408.594"/>
      <point x="136.346" y="328.466"/>
      <point x="136.346" y="275.669" type="qcurve" smooth="yes"/>
      <point x="136.346" y="259.845" type="line" smooth="yes"/>
      <point x="136.346" y="206.581"/>
      <point x="184.832" y="124.454"/>
      <point x="272.561" y="78.5012"/>
      <point x="329.737" y="78.5012" type="qcurve" smooth="yes"/>
      <point x="376.669" y="78.5012"/>
      <point x="454.466" y="110.055"/>
      <point x="482.932" y="142.454" type="qcurve"/>
      <point x="535.784" y="80.3108" type="line"/>
      <point x="527.94" y="70.4662"/>
      <point x="508.251" y="53.6216"/>
      <point x="497.251" y="44.4662" type="qcurve" smooth="yes"/>
      <point x="452.852" y="7.44611"/>
      <point x="403.697" y="-48.797"/>
      <point x="384.318" y="-92.797"/>
      <point x="384.318" y="-112.952" type="qcurve" smooth="yes"/>
      <point x="384.318" y="-140.885"/>
      <point x="419.406" y="-167.817"/>
      <point x="446.183" y="-167.817" type="qcurve" smooth="yes"/>
      <point x="462.338" y="-167.817"/>
      <point x="495.338" y="-158.351"/>
      <point x="507.338" y="-150.729" type="qcurve"/>
      <point x="525.94" y="-200.358" type="line"/>
      <point x="507.406" y="-210.98"/>
      <point x="461.115" y="-223.98"/>
    </contour>
  </outline>
</glyph>
<glyph name="IJ" format="2">
  <advance width="720"/>
  <unicode hex="0132"/>
  <anchor x="153" y="700" name="t.uni0308"/>
  <outline>
    <contour>
      <point x="327" y="-8.06767" type="qcurve" smooth="yes"/>
      <point x="256.02" y="-8.06767"/>
      <point x="133.128" y="31.4662"/>
      <point x="87.0602" y="62.8446" type="qcurve"/>
      <point x="126.088" y="143.035" type="line"/>
      <point x="169.466" y="113.19"/>
      <point x="273.689" y="81.035"/>
      <point x="328.845" y="81.035" type="qcurve" smooth="yes"/>
      <point x="421.263" y="81.035"/>
      <point x="521.391" y="189.474"/>
      <point x="521.391" y="301.601" type="qcurve" smooth="yes"/>
      <point x="521.391" y="700" type="line"/>
      <point x="620.784" y="700" type="line"/>
      <point x="620.784" y="306.514" type="line" smooth="yes"/>
      <point x="620.784" y="203.291"/>
      <point x="547.338" y="63"/>
      <point x="416.135" y="-8.06767"/>
    </contour>
    <contour>
      <point x="99.1278" y="308.581" type="line"/>
      <point x="99.1278" y="700" type="line"/>
      <point x="198.521" y="700" type="line"/>
      <point x="198.521" y="308.581" type="line"/>
    </contour>
  </outline>
</glyph>
<glyph name="Eng" format="2">
  <advance width="812"/>
  <unicode hex="014A"/>
  <outline>
    <contour>
      <point x="105.128" y="0" type="line"/>
      <point x="105.128" y="700" type="line"/>
      <point x="187.163" y="700" type="line"/>
      <point x="649.506" y="125.198" type="line"/>
      <point x="624.614" y="0" type="line"/>
      <point x="162.271" y="574.802" type="line"/>
      <point x="204.521" y="574.802" type="line"/>
      <point x="204.521" y="0" type="line"/>
    </contour>
    <contour>
      <point x="489.885" y="-199.534" type="qcurve" smooth="yes"/>
      <point x="436.885" y="-199.534"/>
      <point x="343.04" y="-159.203"/>
      <point x="309.972" y="-120.804" type="qcurve"/>
      <point x="358.601" y="-48.8371" type="line"/>
      <point x="383.378" y="-79.3233"/>
      <point x="449.486" y="-113.81"/>
      <point x="490.04" y="-113.81" type="qcurve" smooth="yes"/>
      <point x="607.256" y="-113.81"/>
      <point x="607.256" y="29.0276" type="qcurve" smooth="yes"/>
      <point x="607.256" y="700" type="line"/>
      <point x="706.649" y="700" type="line"/>
      <point x="706.649" y="42.2306" type="line" smooth="yes"/>
      <point x="706.649" y="-81.1078"/>
      <point x="597" y="-199.534"/>
    </contour>
  </outline>
</glyph>
<glyph name="eng" format="2">
  <advance width="681"/>
  <unicode hex="014B"/>
  <outline>
    <contour>
      <point x="373.96" y="535.203" type="qcurve" smooth="yes"/>
      <point x="438.804" y="535.203"/>
      <point x="537.561" y="485.358"/>
      <point x="594.474" y="383.446"/>
      <point x="594.474" y="305" type="qcurve" smooth="yes"/>
      <point x="594.474" y="-24.391" type="line" smooth="yes"/>
      <point x="594.474" y="-105.04"/>
      <point x="506.98" y="-199.534"/>
      <point x="425.175" y="-199.534" type="qcurve" smooth="yes"/>
      <point x="391.797" y="-199.534"/>
      <point x="330.729" y="-184.068"/>
      <point x="310.196" y="-167.601" type="qcurve"/>
      <point x="341.088" y="-94.4787" type="line"/>
      <point x="370.865" y="-118.877"/>
      <point x="419.108" y="-118.877" type="qcurve" smooth="yes"/>
      <point x="457.283" y="-118.877"/>
      <point x="498.459" y="-71.8572"/>
      <point x="498.459" y="-26.1479" type="qcurve" smooth="yes"/>
      <point x="498.459" y="294.02" type="line" smooth="yes"/>
      <point x="498.459" y="371.439"/>
      <point x="423.263" y="449.479"/>
      <point x="354.689" y="449.479" type="qcurve" smooth="yes"/>
      <point x="304.426" y="449.479"/>
      <point x="228.386" y="408.837"/>
      <point x="187.366" y="330.952"/>
      <point x="187.366" y="273.399" type="qcurve" smooth="yes"/>
      <point x="187.366" y="0" type="line"/>
      <point x="91.3509" y="0" type="line"/>
      <point x="91.3509" y="529.669" type="line"/>
      <point x="183.143" y="529.669" type="line"/>
      <point x="183.143" y="386.892" type="line"/>
      <point x="167.629" y="424.521" type="line"/>
      <point x="194.007" y="477.318"/>
      <point x="301.784" y="535.203"/>
    </contour>
  </outline>
</glyph>
<glyph name="OE" format="2">
  <advance width="1126"/>
  <unicode hex="0152"/>
  <anchor x="676" y="700" name="t.uni0308"/>
  <anchor x="676" y="0" name="b.uni0324_3"/>
  <outline>
    <contour>
      <point x="426.311" y="0" type="line" smooth="yes"/>
      <point x="313.777" y="0"/>
      <point x="143.554" y="88.3108"/>
      <point x="48.0201" y="245.466"/>
      <point x="48.0201" y="349" type="qcurve" smooth="yes"/>
      <point x="48.0201" y="453.378"/>
      <point x="143.554" y="611.534"/>
      <point x="313.777" y="700"/>
      <point x="426.311" y="700" type="qcurve" smooth="yes"/>
      <point x="586.378" y="700" type="line"/>
      <point x="586.378" y="613.431" type="line"/>
      <point x="431.378" y="613.431" type="line" smooth="yes"/>
      <point x="345.804" y="613.431"/>
      <point x="218.366" y="546.857"/>
      <point x="148.258" y="428.108"/>
      <point x="148.258" y="349.845" type="qcurve" smooth="yes"/>
      <point x="148.258" y="270.737"/>
      <point x="218.366" y="152.987"/>
      <point x="345.804" y="86.5689"/>
      <point x="431.378" y="86.5689" type="qcurve" smooth="yes"/>
      <point x="586.378" y="86.5689" type="line"/>
      <point x="586.378" y="0" type="line"/>
    </contour>
    <contour>
      <point x="651.967" y="397.94" type="line"/>
      <point x="1011.72" y="397.94" type="line"/>
      <point x="1011.72" y="313.06" type="line"/>
      <point x="651.967" y="313.06" type="line"/>
    </contour>
    <contour>
      <point x="660.346" y="86.5689" type="line"/>
      <point x="1069.18" y="86.5689" type="line"/>
      <point x="1069.18" y="0" type="line"/>
      <point x="560.952" y="0" type="line"/>
      <point x="560.952" y="700" type="line"/>
      <point x="1055.03" y="700" type="line"/>
      <point x="1055.03" y="613.431" type="line"/>
      <point x="660.346" y="613.431" type="line"/>
    </contour>
  </outline>
</glyph>
<glyph name="oe" format="2">
  <advance width="1067"/>
  <unicode hex="0153"/>
  <anchor x="537" y="562" name="t.uni0308"/>
  <anchor x="537" y="0" name="b.uni0324_3"/>
  <outline>
    <contour>
      <point x="317.669" y="-5.53383" type="qcurve" smooth="yes"/>
      <point x="238.068" y="-5.53383"/>
      <point x="114.088" y="64"/>
      <point x="42.1754" y="186.378"/>
      <point x="42.1754" y="264.912" type="qcurve" smooth="yes"/>
      <point x="42.1754" y="344.446"/>
      <point x="114.088" y="465.669"/>
      <point x="238.068" y="535.203"/>
      <point x="317.669" y="535.203" type="qcurve" smooth="yes"/>
      <point x="397.271" y="535.203"/>
      <point x="516.872" y="465.669"/>
      <point x="583.561" y="344.446"/>
      <point x="583.561" y="264.912" type="qcurve" smooth="yes"/>
      <point x="583.561" y="186.378"/>
      <point x="516.872" y="64"/>
      <point x="397.271" y="-5.53383"/>
    </contour>
    <contour>
      <point x="317.669" y="78.5012" type="qcurve" smooth="yes"/>
      <point x="369.311" y="78.5012"/>
      <point x="449.817" y="124.454"/>
      <point x="496.303" y="209.115"/>
      <point x="496.303" y="264.912" type="qcurve" smooth="yes"/>
      <point x="496.303" y="321.709"/>
      <point x="449.817" y="405.371"/>
      <point x="369.311" y="451.168"/>
      <point x="317.669" y="451.168" type="qcurve" smooth="yes"/>
      <point x="266.872" y="451.168"/>
      <point x="186.521" y="405.371"/>
      <point x="139.035" y="321.709"/>
      <point x="139.035" y="264.912" type="qcurve" smooth="yes"/>
      <point x="139.035" y="209.115"/>
      <point x="186.521" y="124.454"/>
      <point x="266.872" y="78.5012"/>
    </contour>
    <contour>
      <point x="781.486" y="-5.53383" type="qcurve" smooth="yes"/>
      <point x="696.506" y="-5.53383"/>
      <point x="571.06" y="64"/>
      <point x="502.526" y="186.378"/>
      <point x="502.526" y="264.912" type="qcurve" smooth="yes"/>
      <point x="502.526" y="343.601"/>
      <point x="568.749" y="465.669"/>
      <point x="686.04" y="535.203"/>
      <point x="762.486" y="535.203" type="qcurve" smooth="yes"/>
      <point x="838.932" y="535.203"/>
      <point x="957.223" y="466.825"/>
      <point x="1024.45" y="344.068"/>
      <point x="1024.45" y="262.311" type="qcurve" smooth="yes"/>
      <point x="1024.45" y="256.243"/>
      <point x="1023.6" y="239.885"/>
      <point x="1022.76" y="232.817" type="qcurve"/>
      <point x="571.649" y="232.817" type="line"/>
      <point x="571.649" y="302.494" type="line"/>
      <point x="972.06" y="302.494" type="line"/>
      <point x="933.654" y="278.203" type="line"/>
      <point x="934.499" y="329.311"/>
      <point x="890.013" y="408.594"/>
      <point x="812.972" y="453.702"/>
      <point x="762.486" y="453.702" type="qcurve" smooth="yes"/>
      <point x="712.155" y="453.702"/>
      <point x="634.96" y="408.594"/>
      <point x="590.629" y="328.466"/>
      <point x="590.629" y="275.669" type="qcurve" smooth="yes"/>
      <point x="590.629" y="259.845" type="line" smooth="yes"/>
      <point x="590.629" y="206.581"/>
      <point x="639.115" y="124.454"/>
      <point x="727" y="78.5012"/>
      <point x="784.02" y="78.5012" type="qcurve" smooth="yes"/>
      <point x="830.952" y="78.5012"/>
      <point x="908.749" y="110.055"/>
      <point x="937.216" y="142.454" type="qcurve"/>
      <point x="990.068" y="80.3108" type="line"/>
      <point x="954.378" y="38.3108"/>
      <point x="847.622" y="-5.53383"/>
    </contour>
  </outline>
</glyph>
<glyph name="Uogonek" format="2">
  <advance width="791"/>
  <unicode hex="0172"/>
  <outline>
    <contour>
      <point x="593.79" y="700" type="line"/>
      <point x="691.494" y="700" type="line"/>
      <point x="691.494" y="302.291" type="line" smooth="yes"/>
      <point x="691.494" y="179.601"/>
      <point x="593.426" y="37.5338"/>
      <point x="510.271" y="8" type="qcurve" smooth="yes"/>
      <point x="450.872" y="-13.1554"/>
      <point x="388.94" y="-56.3985"/>
      <point x="366.095" y="-97.4862"/>
      <point x="366.095" y="-115.642" type="qcurve" smooth="yes"/>
      <point x="366.095" y="-140.885"/>
      <point x="401.183" y="-167.817"/>
      <point x="427.96" y="-167.817" type="qcurve" smooth="yes"/>
      <point x="444.115" y="-167.817"/>
      <point x="477.115" y="-158.351"/>
      <point x="489.115" y="-150.729" type="qcurve"/>
      <point x="507.717" y="-200.358" type="line"/>
      <point x="489.183" y="-210.98"/>
      <point x="442.892" y="-223.98"/>
      <point x="417.669" y="-223.98" type="qcurve" smooth="yes"/>
      <point x="361.777" y="-223.98"/>
      <point x="297.952" y="-168.155"/>
      <point x="297.952" y="-123.243" type="qcurve" smooth="yes"/>
      <point x="297.952" y="-96.3308"/>
      <point x="324.865" y="-41.4186"/>
      <point x="387.243" y="10.5814"/>
      <point x="440.865" y="31.7368" type="qcurve"/>
      <point x="437.534" y="-6.06767" type="line"/>
      <point x="427.689" y="-7.06767"/>
      <point x="406" y="-8.06767"/>
      <point x="395.311" y="-8.06767" type="qcurve" smooth="yes"/>
      <point x="256.797" y="-8.06767"/>
      <point x="99.1278" y="150.068"/>
      <point x="99.1278" y="302.291" type="qcurve" smooth="yes"/>
      <point x="99.1278" y="700" type="line"/>
      <point x="198.521" y="700" type="line"/>
      <point x="198.521" y="305.825" type="line" smooth="yes"/>
      <point x="198.521" y="189.474"/>
      <point x="301.649" y="81.035"/>
      <point x="396.155" y="81.035" type="qcurve" smooth="yes"/>
      <point x="490.662" y="81.035"/>
      <point x="593.79" y="189.474"/>
      <point x="593.79" y="305.825" type="qcurve" smooth="yes"/>
    </contour>
  </outline>
</glyph>
<glyph name="longs" format="2">
  <advance width="306"/>
  <unicode hex="017F"/>
  <outline>
    <contour>
      <point x="115.419" y="0" type="line"/>
      <point x="115.419" y="577.459" type="line" smooth="yes"/>
      <point x="115.419" y="654.729"/>
      <point x="205.757" y="747.534"/>
      <point x="290.251" y="747.534" type="qcurve" smooth="yes"/>
      <point x="321.629" y="747.534"/>
      <point x="378.318" y="732.912"/>
      <point x="398.007" y="717.291" type="qcurve"/>
      <point x="368.804" y="644.168" type="line"/>
      <point x="354.494" y="655.945"/>
      <point x="316.251" y="668.566"/>
      <point x="295.474" y="668.566" type="qcurve" smooth="yes"/>
      <point x="254.454" y="668.566"/>
      <point x="211.434" y="621.546"/>
      <point x="211.434" y="575.837" type="qcurve" smooth="yes"/>
      <point x="211.434" y="0" type="line"/>
    </contour>
    <contour>
      <point x="24.7093" y="450.702" type="line"/>
      <point x="24.7093" y="529.669" type="line"/>
      <point x="164.203" y="529.669" type="line"/>
      <point x="164.203" y="450.702" type="line"/>
    </contour>
  </outline>
</glyph>
<glyph name="uni018F" format="2">
  <advance width="817"/>
  <unicode hex="018F"/>
  <outline>
    <contour>
      <point x="408.845" y="-8.06767" type="qcurve" smooth="yes"/>
      <point x="331.311" y="-8.06767"/>
      <point x="199.088" y="45.7769"/>
      <point x="101.709" y="143.466"/>
      <point x="48.0201" y="275.689"/>
      <point x="48.0201" y="354.223" type="qcurve" smooth="yes"/>
      <point x="48.0201" y="381.96" type="line"/>
      <point x="680.343" y="381.96" type="line"/>
      <point x="680.343" y="297.08" type="line"/>
      <point x="114.92" y="297.08" type="line"/>
      <point x="147.413" y="350" type="line"/>
      <point x="147.413" y="289.135"/>
      <point x="185.434" y="189.251"/>
      <point x="255.007" y="117.677"/>
      <point x="350.514" y="78.5012"/>
      <point x="408.845" y="78.5012" type="qcurve" smooth="yes"/>
      <point x="466.554" y="78.5012"/>
      <point x="561.905" y="116.832"/>
      <point x="630.945" y="188.406"/>
      <point x="668.587" y="285.757"/>
      <point x="668.587" y="344.777" type="qcurve" smooth="yes"/>
      <point x="668.587" y="354.378" type="line" smooth="yes"/>
      <point x="668.587" y="411.02"/>
      <point x="627.722" y="507.526"/>
      <point x="554.993" y="578.945"/>
      <point x="458.175" y="618.965"/>
      <point x="402.223" y="618.965" type="qcurve" smooth="yes"/>
      <point x="360.912" y="618.965"/>
      <point x="281.601" y="601.276"/>
      <point x="211.135" y="565.276"/>
      <point x="182.203" y="537.12" type="qcurve"/>
      <point x="122.216" y="606.175" type="line"/>
      <point x="155.06" y="638.554"/>
      <point x="242.04" y="684"/>
      <point x="345.932" y="708.068"/>
      <point x="403.068" y="708.068" type="qcurve" smooth="yes"/>
      <point x="482.601" y="708.068"/>
      <point x="616.135" y="655.068"/>
      <point x="714.825" y="558.378"/>
      <point x="768.825" y="427.689"/>
      <point x="768.825" y="351" type="qcurve" smooth="yes"/>
      <point x="768.825" y="273.777"/>
      <point x="714.825" y="143.243"/>
      <point x="617.135" y="46.0877"/>
      <point x="486.068" y="-8.06767"/>
    </contour>
  </outline>
</glyph>
<glyph name="florin" format="2">
  <advance width="449"/>
  <unicode hex="0192"/>
  <outline>
    <contour>
      <point x="20.6015" y="-199.534" type="qcurve" smooth="yes"/>
      <point x="-12.7769" y="-199.534"/>
      <point x="-72.5338" y="-183.223"/>
      <point x="-91.9123" y="-166.757" type="qcurve"/>
      <point x="-55.797" y="-94.4787" type="line"/>
      <point x="-27.4862" y="-118.877"/>
      <point x="16.5338" y="-118.877" type="qcurve" smooth="yes"/>
      <point x="55.5539" y="-118.877"/>
      <point x="104.574" y="-71.8572"/>
      <point x="109.885" y="-26.1479" type="qcurve" smooth="yes"/>
      <point x="185.439" y="577.459" type="line"/>
      <point x="194.128" y="654.729"/>
      <point x="293.466" y="747.534"/>
      <point x="374.581" y="747.534" type="qcurve" smooth="yes"/>
      <point x="405.96" y="747.534"/>
      <point x="465.561" y="732.068"/>
      <point x="484.095" y="714.757" type="qcurve"/>
      <point x="446.98" y="642.479" type="line"/>
      <point x="433.825" y="654.256"/>
      <point x="397.581" y="666.877"/>
      <point x="376.804" y="666.877" type="qcurve" smooth="yes"/>
      <point x="334.94" y="666.877"/>
      <point x="284.386" y="619.857"/>
      <point x="278.075" y="574.148" type="qcurve" smooth="yes"/>
      <point x="269.298" y="504.709" type="line"/>
      <point x="267.454" y="460.769" type="line"/>
      <point x="205.9" y="-29.4587" type="line" smooth="yes"/>
      <point x="196.366" y="-106.729"/>
      <point x="99.8722" y="-199.534"/>
    </contour>
    <contour>
      <point x="77.1955" y="438.033" type="line"/>
      <point x="86.9524" y="517" type="line"/>
      <point x="425.028" y="517" type="line"/>
      <point x="416.115" y="438.033" type="line"/>
    </contour>
  </outline>
</glyph>
<glyph name="Ohorn" format="2">
  <advance width="840"/>
  <unicode hex="01A0"/>
  <anchor x="427" y="700" name="t.uni0308"/>
  <anchor x="427" y="0" name="b.uni0324_3"/>
  <outline>
    <contour>
      <point x="420.534" y="-8.06767" type="qcurve" smooth="yes"/>
      <point x="340.155" y="-8.06767"/>
      <point x="204.088" y="45.7769"/>
      <point x="103.709" y="142.622"/>
      <point x="48.0201" y="273.155"/>
      <point x="48.0201" y="350" type="qcurve" smooth="yes"/>
      <point x="48.0201" y="427.689"/>
      <point x="103.709" y="558.223"/>
      <point x="204.932" y="655.068"/>
      <point x="342.689" y="708.068"/>
      <point x="423.912" y="708.068" type="qcurve" smooth="yes"/>
      <point x="483.845" y="708.068"/>
      <point x="573.777" y="693.912"/>
      <point x="616.02" y="693.912" type="qcurve" smooth="yes"/>
      <point x="661.885" y="693.912"/>
      <point x="710.817" y="730.689"/>
      <point x="710.817" y="766.622" type="qcurve" smooth="yes"/>
      <point x="710.817" y="784.932"/>
      <point x="698.817" y="816.243"/>
      <point x="690.817" y="829.399" type="qcurve"/>
      <point x="751.048" y="852.601" type="line"/>
      <point x="764.426" y="834.223"/>
      <point x="778.96" y="788.466"/>
      <point x="778.96" y="763.399" type="qcurve" smooth="yes"/>
      <point x="778.96" y="700.574"/>
      <point x="692" y="630.993"/>
      <point x="611.797" y="630.993" type="qcurve" smooth="yes"/>
      <point x="583.128" y="630.993"/>
      <point x="518.148" y="638.371"/>
      <point x="489.391" y="642.371" type="qcurve"/>
      <point x="613.88" y="657.196" type="line"/>
      <point x="666.987" y="629.817"/>
      <point x="747.183" y="537.729"/>
      <point x="792.203" y="418.399"/>
      <point x="792.203" y="350" type="qcurve" smooth="yes"/>
      <point x="792.203" y="272.311"/>
      <point x="736.514" y="141.777"/>
      <point x="636.135" y="44.9323"/>
      <point x="500.912" y="-8.06767"/>
    </contour>
    <contour>
      <point x="420.534" y="81.035" type="qcurve" smooth="yes"/>
      <point x="479.02" y="81.035"/>
      <point x="577.682" y="121.9"/>
      <point x="651.1" y="194.318"/>
      <point x="691.965" y="292.514"/>
      <point x="691.965" y="350" type="qcurve" smooth="yes"/>
      <point x="691.965" y="407.486"/>
      <point x="651.1" y="505.682"/>
      <point x="577.682" y="578.1"/>
      <point x="479.02" y="618.965"/>
      <point x="420.534" y="618.965" type="qcurve" smooth="yes"/>
      <point x="362.048" y="618.965"/>
      <point x="262.541" y="578.945"/>
      <point x="189.123" y="505.682"/>
      <point x="148.258" y="408.331"/>
      <point x="148.258" y="350" type="qcurve" smooth="yes"/>
      <point x="148.258" y="292.514"/>
      <point x="189.123" y="194.318"/>
      <point x="262.541" y="121.055"/>
      <point x="362.048" y="81.035"/>
    </contour>
  </outline>
</glyph>
<glyph name="ohorn" format="2">
  <advance width="635"/>
  <unicode hex="01A1"/>
  <anchor x="354" y="562" name="t.uni0308"/>
  <anchor x="354" y="0" name="b.uni0324_3"/>
  <outline>
    <contour>
      <point x="317.669" y="-5.53383" type="qcurve" smooth="yes"/>
      <point x="238.068" y="-5.53383"/>
      <point x="114.088" y="64"/>
      <point x="42.1754" y="186.378"/>
      <point x="42.1754" y="264.912" type="qcurve" smooth="yes"/>
      <point x="42.1754" y="344.446"/>
      <point x="114.088" y="465.669"/>
      <point x="238.912" y="535.203"/>
      <point x="318.514" y="535.203" type="qcurve" smooth="yes"/>
      <point x="345.669" y="535.203"/>
      <point x="382.669" y="532.358"/>
      <point x="418.135" y="528.514"/>
      <point x="440.068" y="528.514" type="qcurve" smooth="yes"/>
      <point x="479.466" y="528.514"/>
      <point x="515.865" y="568.446"/>
      <point x="515.865" y="596.446" type="qcurve" smooth="yes"/>
      <point x="515.865" y="614.757"/>
      <point x="503.865" y="646.068"/>
      <point x="495.02" y="659.223" type="qcurve"/>
      <point x="555.251" y="682.426" type="line"/>
      <point x="567.784" y="664.048"/>
      <point x="584.007" y="618.291"/>
      <point x="584.007" y="593.223" type="qcurve" smooth="yes"/>
      <point x="584.007" y="554.865"/>
      <point x="548.183" y="496.662"/>
      <point x="480.757" y="464.749"/>
      <point x="432.622" y="464.749" type="qcurve" smooth="yes"/>
      <point x="417.175" y="464.749"/>
      <point x="385.128" y="468.283"/>
      <point x="366.905" y="470.972" type="qcurve"/>
      <point x="422.095" y="516.135" type="line"/>
      <point x="499.474" y="487.757"/>
      <point x="593.163" y="355.068"/>
      <point x="593.163" y="264.912" type="qcurve" smooth="yes"/>
      <point x="593.163" y="186.378"/>
      <point x="522.251" y="64"/>
      <point x="397.271" y="-5.53383"/>
    </contour>
    <contour>
      <point x="317.669" y="78.5012" type="qcurve" smooth="yes"/>
      <point x="368.466" y="78.5012"/>
      <point x="448.972" y="124.454"/>
      <point x="496.303" y="209.115"/>
      <point x="496.303" y="264.912" type="qcurve" smooth="yes"/>
      <point x="496.303" y="321.709"/>
      <point x="449.817" y="405.371"/>
      <point x="369.311" y="451.168"/>
      <point x="317.669" y="451.168" type="qcurve" smooth="yes"/>
      <point x="266.872" y="451.168"/>
      <point x="186.521" y="405.371"/>
      <point x="139.035" y="321.709"/>
      <point x="139.035" y="264.912" type="qcurve" smooth="yes"/>
      <point x="139.035" y="209.115"/>
      <point x="186.521" y="124.454"/>
      <point x="266.872" y="78.5012"/>
    </contour>
  </outline>
</glyph>
<glyph name="uni01E5" format="2">
  <advance width="698"/>
  <unicode hex="01E5"/>
  <outline>
    <contour>
      <point x="323" y="-199.534" type="qcurve" smooth="yes"/>
      <point x="250.466" y="-199.534"/>
      <point x="113.263" y="-159.446"/>
      <point x="69.5063" y="-121.135" type="qcurve"/>
      <point x="116.446" y="-47.1679" type="line"/>
      <point x="153.068" y="-78.5664"/>
      <point x="261.378" y="-115.499"/>
      <point x="319.622" y="-115.499" type="qcurve" smooth="yes"/>
      <point x="413.885" y="-115.499"/>
      <point x="502.303" y="-28.0802"/>
      <point x="502.303" y="61.5814" type="qcurve" smooth="yes"/>
      <point x="502.303" y="174.371" type="line"/>
      <point x="512.303" y="279.135" type="line"/>
      <point x="506.526" y="384.744" type="line"/>
      <point x="506.526" y="529.669" type="line"/>
      <point x="598.318" y="529.669" type="line"/>
      <point x="598.318" y="72.1829" type="line" smooth="yes"/>
      <point x="598.318" y="-68.0201"/>
      <point x="458.203" y="-199.534"/>
    </contour>
    <contour>
      <point x="283.642" y="-58.0201" type="line"/>
      <point x="283.642" y="7.43355" type="line"/>
      <point x="662.318" y="8.27816" type="line"/>
      <point x="662.318" y="-58.0201" type="line"/>
    </contour>
    <contour>
      <point x="311.378" y="43.1829" type="qcurve" smooth="yes"/>
      <point x="234.311" y="43.1829"/>
      <point x="112.554" y="105.649"/>
      <point x="42.1754" y="217.115"/>
      <point x="42.1754" y="290.115" type="qcurve" smooth="yes"/>
      <point x="42.1754" y="363.271"/>
      <point x="112.554" y="473.737"/>
      <point x="234.311" y="535.203"/>
      <point x="311.378" y="535.203" type="qcurve" smooth="yes"/>
      <point x="379.311" y="535.203"/>
      <point x="490.622" y="481.338"/>
      <point x="558.155" y="373.406"/>
      <point x="558.155" y="290.115" type="qcurve" smooth="yes"/>
      <point x="558.155" y="206.98"/>
      <point x="490.622" y="97.203"/>
      <point x="379.311" y="43.1829"/>
    </contour>
    <contour>
      <point x="321.514" y="123.84" type="qcurve" smooth="yes"/>
      <point x="375.155" y="123.84"/>
      <point x="457.351" y="165.947"/>
      <point x="503.993" y="240.697"/>
      <point x="503.993" y="290.115" type="qcurve" smooth="yes"/>
      <point x="503.993" y="339.689"/>
      <point x="457.351" y="413.283"/>
      <point x="375.155" y="455.391"/>
      <point x="321.514" y="455.391" type="qcurve" smooth="yes"/>
      <point x="268.872" y="455.391"/>
      <point x="185.677" y="413.283"/>
      <point x="139.035" y="339.689"/>
      <point x="139.035" y="290.115" type="qcurve" smooth="yes"/>
      <point x="139.035" y="240.697"/>
      <point x="185.677" y="165.947"/>
      <point x="268.872" y="123.84"/>
    </contour>
  </outline>
</glyph>
<glyph name="uni01EA" format="2">
  <advance width="840"/>
  <unicode hex="01EA"/>
  <anchor x="427" y="700" name="t.uni0308"/>
  <outline>
    <contour>
      <point x="429.048" y="-223.98" type="qcurve" smooth="yes"/>
      <point x="373.155" y="-223.98"/>
      <point x="309.331" y="-168.155"/>
      <point x="309.331" y="-123.243" type="qcurve" smooth="yes"/>
      <point x="309.331" y="-96.3308"/>
      <point x="335.554" y="-40.5739"/>
      <point x="398.932" y="11.4261"/>
      <point x="452.243" y="32.0476" type="qcurve"/>
      <point x="455.358" y="-6.06767" type="line"/>
      <point x="445.135" y="-7.06767"/>
      <point x="428.223" y="-8.06767"/>
      <point x="420.534" y="-8.06767" type="qcurve" smooth="yes"/>
      <point x="340.155" y="-8.06767"/>
      <point x="204.932" y="44.9323"/>
      <point x="103.709" y="141.777"/>
      <point x="48.0201" y="272.311"/>
      <point x="48.0201" y="350" type="qcurve" smooth="yes"/>
      <point x="48.0201" y="427.689"/>
      <point x="103.709" y="558.223"/>
      <point x="204.932" y="655.068"/>
      <point x="340.155" y="708.068"/>
      <point x="420.534" y="708.068" type="qcurve" smooth="yes"/>
      <point x="500.912" y="708.068"/>
      <point x="636.135" y="655.068"/>
      <point x="736.514" y="558.223"/>
      <point x="792.203" y="427.689"/>
      <point x="792.203" y="350" type="qcurve" smooth="yes"/>
      <point x="792.203" y="260.534"/>
      <point x="720.426" y="118.912"/>
      <point x="598.804" y="25.2231"/>
      <point x="523.649" y="6" type="qcurve" smooth="yes"/>
      <point x="479.271" y="-5.37844"/>
      <point x="413.183" y="-42.8446"/>
      <point x="377.474" y="-89.3985"/>
      <point x="377.474" y="-115.642" type="qcurve" smooth="yes"/>
      <point x="377.474" y="-140.885"/>
      <point x="412.561" y="-167.817"/>
      <point x="439.338" y="-167.817" type="qcurve" smooth="yes"/>
      <point x="455.494" y="-167.817"/>
      <point x="488.494" y="-158.351"/>
      <point x="500.494" y="-150.729" type="qcurve"/>
      <point x="519.095" y="-200.358" type="line"/>
      <point x="500.561" y="-210.98"/>
      <point x="454.271" y="-223.98"/>
    </contour>
    <contour>
      <point x="420.534" y="81.035" type="qcurve" smooth="yes"/>
      <point x="479.02" y="81.035"/>
      <point x="577.682" y="120.9"/>
      <point x="651.1" y="194.163"/>
      <point x="691.965" y="292.358"/>
      <point x="691.965" y="350" type="qcurve" smooth="yes"/>
      <point x="691.965" y="408.486"/>
      <point x="651.1" y="505.837"/>
      <point x="577.682" y="579.1"/>
      <point x="479.02" y="618.965"/>
      <point x="420.534" y="618.965" type="qcurve" smooth="yes"/>
      <point x="362.048" y="618.965"/>
      <point x="262.541" y="579.1"/>
      <point x="189.123" y="505.837"/>
      <point x="148.258" y="408.486"/>
      <point x="148.258" y="350" type="qcurve" smooth="yes"/>
      <point x="148.258" y="292.358"/>
      <point x="189.123" y="194.163"/>
      <point x="262.541" y="120.9"/>
      <point x="362.048" y="81.035"/>
    </contour>
  </outline>
</glyph>
<glyph name="uni01EB" format="2">
  <advance width="635"/>
  <unicode hex="01EB"/>
  <anchor x="350" y="562" name="t.uni0308"/>
  <anchor x="350" y="281" name="t.uni0307_1"/>
  <anchor x="417" y="561" name="t.uni031B_2"/>
  <anchor x="350" y="0" name="b.uni0324_3"/>
  <outline>
    <contour>
      <point x="346.669" y="-223.98" type="qcurve" smooth="yes"/>
      <point x="290.777" y="-223.98"/>
      <point x="226.952" y="-168.155"/>
      <point x="226.952" y="-124.932" type="qcurve" smooth="yes"/>
      <point x="226.952" y="-97.1754"/>
      <point x="252.865" y="-40.7293"/>
      <point x="313.932" y="11.2707"/>
      <point x="365.554" y="32.0476" type="qcurve"/>
      <point x="371.446" y="-1.37844" type="line"/>
      <point x="354.98" y="-3.53383"/>
      <point x="329.825" y="-5.53383"/>
      <point x="317.669" y="-5.53383" type="qcurve" smooth="yes"/>
      <point x="238.068" y="-5.53383"/>
      <point x="114.088" y="64"/>
      <point x="42.1754" y="186.378"/>
      <point x="42.1754" y="264.912" type="qcurve" smooth="yes"/>
      <point x="42.1754" y="344.446"/>
      <point x="114.088" y="465.669"/>
      <point x="238.068" y="535.203"/>
      <point x="317.669" y="535.203" type="qcurve" smooth="yes"/>
      <point x="397.271" y="535.203"/>
      <point x="522.251" y="465.669"/>
      <point x="593.163" y="344.446"/>
      <point x="593.163" y="264.912" type="qcurve" smooth="yes"/>
      <point x="593.163" y="177.534"/>
      <point x="506.028" y="47.6216"/>
      <point x="432.271" y="15.6216" type="qcurve" smooth="yes"/>
      <point x="376.406" y="-8.62156"/>
      <point x="317.474" y="-54.0201"/>
      <point x="295.095" y="-95.6416"/>
      <point x="295.095" y="-114.797" type="qcurve" smooth="yes"/>
      <point x="295.095" y="-140.885"/>
      <point x="330.183" y="-167.817"/>
      <point x="356.96" y="-167.817" type="qcurve" smooth="yes"/>
      <point x="373.115" y="-167.817"/>
      <point x="406.115" y="-158.351"/>
      <point x="418.115" y="-150.729" type="qcurve"/>
      <point x="436.717" y="-200.358" type="line"/>
      <point x="418.183" y="-210.98"/>
      <point x="371.892" y="-223.98"/>
    </contour>
    <contour>
      <point x="317.669" y="78.5012" type="qcurve" smooth="yes"/>
      <point x="369.311" y="78.5012"/>
      <point x="449.817" y="124.454"/>
      <point x="496.303" y="209.115"/>
      <point x="496.303" y="264.912" type="qcurve" smooth="yes"/>
      <point x="496.303" y="321.709"/>
      <point x="449.817" y="405.371"/>
      <point x="369.311" y="451.168"/>
      <point x="317.669" y="451.168" type="qcurve" smooth="yes"/>
      <point x="266.872" y="451.168"/>
      <point x="186.521" y="405.371"/>
      <point x="139.035" y="321.709"/>
      <point x="139.035" y="264.912" type="qcurve" smooth="yes"/>
      <point x="139.035" y="209.115"/>
      <point x="186.521" y="124.454"/>
      <point x="266.872" y="78.5012"/>
    </contour>
  </outline>
</glyph>
<glyph name="uni0237" format="2">
  <advance width="284"/>
  <unicode hex="0237"/>
  <anchor x="188" y="562" name="t.uni0308"/>
  <outline>
    <contour>
      <point x="23.0677" y="-199.534" type="qcurve" smooth="yes"/>
      <point x="-10.3108" y="-199.534"/>
      <point x="-71.3784" y="-184.068"/>
      <point x="-91.9123" y="-167.601" type="qcurve"/>
      <point x="-61.0201" y="-94.4787" type="line"/>
      <point x="-31.2431" y="-118.877"/>
      <point x="17" y="-118.877" type="qcurve" smooth="yes"/>
      <point x="55.1754" y="-118.877"/>
      <point x="96.3509" y="-71.8572"/>
      <point x="96.3509" y="-26.1479" type="qcurve" smooth="yes"/>
      <point x="96.3509" y="529.669" type="line"/>
      <point x="192.366" y="529.669" type="line"/>
      <point x="192.366" y="-24.391" type="line" smooth="yes"/>
      <point x="192.366" y="-105.04"/>
      <point x="104.872" y="-199.534"/>
    </contour>
  </outline>
</glyph>
<glyph name="uni0259" format="2">
  <advance width="612"/>
  <unicode hex="0259"/>
  <anchor x="341" y="562" name="t.uni0308"/>
  <anchor x="341" y="0" name="b.uni0324_3"/>
  <anchor x="99" y="562" name="m.uni0328_4"/>
  <outline>
    <contour>
      <point x="285.135" y="535.203" type="qcurve" smooth="yes"/>
      <point x="371.115" y="535.203"/>
      <point x="498.94" y="465.669"/>
      <point x="570.163" y="344.291"/>
      <point x="570.163" y="264.757" type="qcurve" smooth="yes"/>
      <point x="570.163" y="186.223"/>
      <point x="501.406" y="64"/>
      <point x="380.737" y="-5.53383"/>
      <point x="304.135" y="-5.53383" type="qcurve" smooth="yes"/>
      <point x="227.689" y="-5.53383"/>
      <point x="109.399" y="63"/>
      <point x="42.1754" y="186.446"/>
      <point x="42.1754" y="267.358" type="qcurve" smooth="yes"/>
      <point x="42.1754" y="273.581"/>
      <point x="43.0201" y="289.94"/>
      <point x="43.8647" y="296.852" type="qcurve"/>
      <point x="494.972" y="296.852" type="line"/>
      <point x="494.972" y="227.175" type="line"/>
      <point x="94.5614" y="227.175" type="line"/>
      <point x="132.967" y="251.466" type="line"/>
      <point x="132.967" y="200.358"/>
      <point x="176.609" y="121.075"/>
      <point x="253.804" y="75.9674"/>
      <point x="304.135" y="75.9674" type="qcurve" smooth="yes"/>
      <point x="354.622" y="75.9674"/>
      <point x="432.506" y="121.075"/>
      <point x="475.993" y="202.048"/>
      <point x="475.993" y="254" type="qcurve" smooth="yes"/>
      <point x="475.993" y="269.825" type="line" smooth="yes"/>
      <point x="475.993" y="324.088"/>
      <point x="427.506" y="405.216"/>
      <point x="340.622" y="451.168"/>
      <point x="282.601" y="451.168" type="qcurve" smooth="yes"/>
      <point x="235.669" y="451.168"/>
      <point x="158.717" y="419.769"/>
      <point x="129.406" y="387.216" type="qcurve"/>
      <point x="76.5539" y="449.358" type="line"/>
      <point x="112.399" y="491.358"/>
      <point x="220" y="535.203"/>
    </contour>
  </outline>
</glyph>
<glyph name="uni02BE" format="2">
  <advance width="600"/>
  <unicode hex="02BE"/>
  <outline>
    <contour>
      <point x="299" y="594.466" type="qcurve"/>
      <point x="299" y="637.96" type="line"/>
      <point x="328.466" y="637.96"/>
      <point x="365.088" y="674.737"/>
      <point x="365.088" y="702.203" type="qcurve" smooth="yes"/>
      <point x="365.088" y="730.669"/>
      <point x="327.622" y="767.757"/>
      <point x="299" y="767.757" type="qcurve"/>
      <point x="299" y="812.095" type="line"/>
      <point x="331.912" y="812.095"/>
      <point x="382.203" y="781.872"/>
      <point x="411.271" y="732.271"/>
      <point x="411.271" y="702.203" type="qcurve" smooth="yes"/>
      <point x="411.271" y="672.291"/>
      <point x="382.358" y="623.689"/>
      <point x="331.912" y="594.466"/>
    </contour>
  </outline>
</glyph>
<glyph name="uni02BF" format="2">
  <advance width="600"/>
  <unicode hex="02BF"/>
  <outline>
    <contour>
      <point x="299" y="594.466" type="line"/>
      <point x="266.932" y="594.466"/>
      <point x="215.797" y="623.689"/>
      <point x="186.729" y="672.291"/>
      <point x="186.729" y="702.203" type="qcurve" smooth="yes"/>
      <point x="186.729" y="732.271"/>
      <point x="215.797" y="781.872"/>
      <point x="267.088" y="812.095"/>
      <point x="299" y="812.095" type="qcurve"/>
      <point x="299" y="767.757" type="line"/>
      <point x="271.378" y="767.757"/>
      <point x="233.757" y="730.669"/>
      <point x="233.757" y="702.203" type="qcurve" smooth="yes"/>
      <point x="233.757" y="674.737"/>
      <point x="270.378" y="637.96"/>
      <point x="299" y="637.96" type="qcurve"/>
    </contour>
  </outline>
</glyph>
<glyph name="uni02C8" format="2">
  <advance width="172"/>
  <unicode hex="02C8"/>
  <outline>
    <contour>
      <point x="52.6416" y="509.709" type="line"/>
      <point x="52.6416" y="699.845" type="line"/>
      <point x="119.095" y="699.845" type="line"/>
      <point x="119.095" y="509.709" type="line"/>
    </contour>
  </outline>
</glyph>
<glyph name="uni02C9" format="2">
  <advance width="600"/>
  <unicode hex="02C9"/>
  <outline>
    <contour>
      <point x="136.972" y="641.865" type="line"/>
      <point x="136.972" y="702.406" type="line"/>
      <point x="463.028" y="702.406" type="line"/>
      <point x="463.028" y="641.865" type="line"/>
    </contour>
  </outline>
</glyph>
<glyph name="uni02CA" format="2">
  <advance width="600"/>
  <unicode hex="02CA"/>
  <outline>
    <contour>
      <point x="224.594" y="607" type="line"/>
      <point x="361.216" y="737.271" type="line"/>
      <point x="483.143" y="737.271" type="line"/>
      <point x="315.406" y="607" type="line"/>
    </contour>
  </outline>
</glyph>
<glyph name="uni02CB" format="2">
  <advance width="600"/>
  <unicode hex="02CB"/>
  <outline>
    <contour>
      <point x="284.594" y="607" type="line"/>
      <point x="116.857" y="737.271" type="line"/>
      <point x="238.784" y="737.271" type="line"/>
      <point x="375.406" y="607" type="line"/>
    </contour>
  </outline>
</glyph>
<glyph name="uni02CC" format="2">
  <advance width="173"/>
  <unicode hex="02CC"/>
  <outline>
    <contour>
      <point x="52.6416" y="-220.135" type="line"/>
      <point x="52.6416" y="-30" type="line"/>
      <point x="119.94" y="-30" type="line"/>
      <point x="119.94" y="-220.135" type="line"/>
    </contour>
  </outline>
</glyph>
<glyph name="gravecomb" format="2">
  <unicode hex="0300"/>
  <anchor x="300" y="562" name="_t.uni0308"/>
  <anchor x="300" y="562" name="_t.uni0308_2"/>
  <anchor x="300" y="562" name="_m.uni0308"/>
  <anchor x="300" y="809" name="m.uni0308"/>
  <outline>
    <contour>
      <point x="284.594" y="607" type="line"/>
      <point x="116.857" y="737.271" type="line"/>
      <point x="238.784" y="737.271" type="line"/>
      <point x="375.406" y="607" type="line"/>
    </contour>
  </outline>
</glyph>
<glyph name="acutecomb" format="2">
  <unicode hex="0301"/>
  <anchor x="300" y="562" name="_t.uni0308"/>
  <anchor x="300" y="562" name="_t.uni0308_2"/>
  <anchor x="300" y="562" name="_m.uni0308"/>
  <anchor x="300" y="809" name="m.uni0308"/>
  <outline>
    <contour>
      <point x="233.04" y="607" type="line"/>
      <point x="275.108" y="737.271" type="line"/>
      <point x="382.812" y="737.271" type="line"/>
      <point x="309.629" y="607" type="line"/>
    </contour>
  </outline>
</glyph>
<glyph name="uni0302" format="2">
  <unicode hex="0302"/>
  <anchor x="300" y="562" name="_t.uni0308"/>
  <anchor x="300" y="562" name="_t.uni0308_2"/>
  <anchor x="300" y="562" name="_m.uni0308"/>
  <anchor x="300" y="799" name="m.uni0308"/>
  <outline>
    <contour>
      <point x="121.459" y="607" type="line"/>
      <point x="254.439" y="737.271" type="line"/>
      <point x="345.561" y="737.271" type="line"/>
      <point x="478.541" y="607" type="line"/>
      <point x="392.419" y="607" type="line"/>
      <point x="259.837" y="717.358" type="line"/>
      <point x="340.163" y="717.358" type="line"/>
      <point x="207.581" y="607" type="line"/>
    </contour>
  </outline>
</glyph>
<glyph name="tildecomb" format="2">
  <unicode hex="0303"/>
  <anchor x="300" y="562" name="_t.uni0308"/>
  <anchor x="300" y="562" name="_t.uni0308_2"/>
  <anchor x="300" y="562" name="_m.uni0308"/>
  <anchor x="300" y="799" name="m.uni0308"/>
  <outline>
    <contour>
      <point x="369.757" y="609.709" type="qcurve" smooth="yes"/>
      <point x="346.223" y="609.709"/>
      <point x="309" y="629.865"/>
      <point x="278.622" y="656.865"/>
      <point x="251.466" y="677.02"/>
      <point x="237" y="677.02" type="qcurve" smooth="yes"/>
      <point x="214.689" y="677.02"/>
      <point x="188.378" y="644.399"/>
      <point x="186.378" y="615.088" type="qcurve"/>
      <point x="131.905" y="615.088" type="line"/>
      <point x="133.905" y="670.98"/>
      <point x="186.419" y="736.561"/>
      <point x="230.243" y="736.561" type="qcurve" smooth="yes"/>
      <point x="253.777" y="736.561"/>
      <point x="291.845" y="716.406"/>
      <point x="322.223" y="689.406"/>
      <point x="349.378" y="669.251"/>
      <point x="363" y="669.251" type="qcurve" smooth="yes"/>
      <point x="385.311" y="669.251"/>
      <point x="412.622" y="701.028"/>
      <point x="413.622" y="729.183" type="qcurve"/>
      <point x="468.095" y="729.183" type="line"/>
      <point x="467.095" y="676.135"/>
      <point x="413.581" y="609.709"/>
    </contour>
  </outline>
</glyph>
<glyph name="uni0304" format="2">
  <unicode hex="0304"/>
  <anchor x="300" y="562" name="_t.uni0308"/>
  <anchor x="300" y="562" name="_t.uni0308_2"/>
  <anchor x="300" y="562" name="_m.uni0308"/>
  <anchor x="300" y="779" name="m.uni0308"/>
  <outline>
    <contour>
      <point x="136.972" y="641.865" type="line"/>
      <point x="136.972" y="701.94" type="line"/>
      <point x="463.028" y="701.94" type="line"/>
      <point x="463.028" y="641.865" type="line"/>
    </contour>
  </outline>
</glyph>
<glyph name="uni0306" format="2">
  <unicode hex="0306"/>
  <anchor x="300" y="562" name="_t.uni0308"/>
  <anchor x="300" y="562" name="_t.uni0308_2"/>
  <anchor x="300" y="562" name="_m.uni0308"/>
  <anchor x="300" y="799" name="m.uni0308"/>
  <outline>
    <contour>
      <point x="300" y="601.466" type="qcurve" smooth="yes"/>
      <point x="232.486" y="601.466"/>
      <point x="140.439" y="674.291"/>
      <point x="137.594" y="737.271" type="qcurve"/>
      <point x="203.048" y="737.271" type="line"/>
      <point x="205.048" y="700.183"/>
      <point x="260.757" y="656.784"/>
      <point x="300" y="656.784" type="qcurve" smooth="yes"/>
      <point x="339.399" y="656.784"/>
      <point x="395.952" y="700.183"/>
      <point x="396.952" y="737.271" type="qcurve"/>
      <point x="462.406" y="737.271" type="line"/>
      <point x="459.717" y="674.291"/>
      <point x="367.514" y="601.466"/>
    </contour>
  </outline>
</glyph>
<glyph name="uni0307" format="2">
  <unicode hex="0307"/>
  <anchor x="300" y="562" name="_t.uni0308"/>
  <anchor x="300" y="729" name="_t.uni0307_1"/>
  <anchor x="300" y="562" name="_t.uni0308_2"/>
  <anchor x="300" y="562" name="_m.uni0308"/>
  <anchor x="300" y="883" name="m.uni0308"/>
  <outline>
    <contour>
      <point x="300" y="624.952" type="qcurve" smooth="yes"/>
      <point x="274.797" y="624.952"/>
      <point x="241.06" y="658.689"/>
      <point x="241.06" y="683.892" type="qcurve" smooth="yes"/>
      <point x="241.06" y="709.251"/>
      <point x="274.797" y="742.832"/>
      <point x="300" y="742.832" type="qcurve" smooth="yes"/>
      <point x="325.358" y="742.832"/>
      <point x="358.94" y="709.251"/>
      <point x="358.94" y="683.892" type="qcurve" smooth="yes"/>
      <point x="358.94" y="658.689"/>
      <point x="325.358" y="624.952"/>
    </contour>
  </outline>
</glyph>
<glyph name="uni0308" format="2">
  <unicode hex="0308"/>
  <anchor x="300" y="562" name="_t.uni0308"/>
  <anchor x="300" y="562" name="_t.uni0308_2"/>
  <anchor x="300" y="562" name="_m.uni0308"/>
  <anchor x="300" y="793" name="m.uni0308"/>
  <outline>
    <contour>
      <point x="392.98" y="624.108" type="qcurve" smooth="yes"/>
      <point x="372" y="624.108"/>
      <point x="341.642" y="652.777"/>
      <point x="341.642" y="675.446" type="qcurve" smooth="yes"/>
      <point x="341.642" y="698.271"/>
      <point x="372" y="726.784"/>
      <point x="392.98" y="726.784" type="qcurve" smooth="yes"/>
      <point x="414.115" y="726.784"/>
      <point x="444.318" y="698.271"/>
      <point x="444.318" y="675.446" type="qcurve" smooth="yes"/>
      <point x="444.318" y="652.777"/>
      <point x="414.115" y="624.108"/>
    </contour>
    <contour>
      <point x="207.02" y="624.108" type="qcurve" smooth="yes"/>
      <point x="186.04" y="624.108"/>
      <point x="155.682" y="652.777"/>
      <point x="155.682" y="675.446" type="qcurve" smooth="yes"/>
      <point x="155.682" y="698.271"/>
      <point x="186.04" y="726.784"/>
      <point x="207.02" y="726.784" type="qcurve" smooth="yes"/>
      <point x="228.155" y="726.784"/>
      <point x="258.358" y="698.271"/>
      <point x="258.358" y="675.446" type="qcurve" smooth="yes"/>
      <point x="258.358" y="652.777"/>
      <point x="228.155" y="624.108"/>
    </contour>
  </outline>
</glyph>
<glyph name="hookabovecomb" format="2">
  <unicode hex="0309"/>
  <anchor x="300" y="562" name="_t.uni0308"/>
  <anchor x="300" y="562" name="_t.uni0308_2"/>
  <anchor x="300" y="562" name="_m.uni0308"/>
  <anchor x="300" y="879" name="m.uni0308"/>
  <outline>
    <contour>
      <point x="318.892" y="597.932" type="qcurve"/>
      <point x="286.088" y="636.737" type="line"/>
      <point x="315.399" y="650.737"/>
      <point x="342.331" y="683.669"/>
      <point x="342.331" y="704.446" type="qcurve" smooth="yes"/>
      <point x="342.331" y="724.912"/>
      <point x="313.709" y="750.845"/>
      <point x="290.243" y="750.845" type="qcurve" smooth="yes"/>
      <point x="258.932" y="750.845"/>
      <point x="229.932" y="731.845" type="qcurve"/>
      <point x="208.419" y="776.717" type="line"/>
      <point x="227.486" y="790.94"/>
      <point x="275.622" y="805.318"/>
      <point x="299.378" y="805.318" type="qcurve" smooth="yes"/>
      <point x="344.669" y="805.318"/>
      <point x="401.183" y="754.494"/>
      <point x="401.183" y="712.203" type="qcurve" smooth="yes"/>
      <point x="401.183" y="674.601"/>
      <point x="361.115" y="617.622"/>
    </contour>
  </outline>
</glyph>
<glyph name="uni030A" format="2">
  <unicode hex="030A"/>
  <anchor x="300" y="562" name="_t.uni0308"/>
  <anchor x="300" y="562" name="_t.uni0308_2"/>
  <anchor x="300" y="562" name="_m.uni0308"/>
  <anchor x="300" y="883" name="m.uni0308"/>
  <outline>
    <contour>
      <point x="299" y="594.466" type="qcurve" smooth="yes"/>
      <point x="267.777" y="594.466"/>
      <point x="218.331" y="623.689"/>
      <point x="189.263" y="672.291"/>
      <point x="189.263" y="702.203" type="qcurve" smooth="yes"/>
      <point x="189.263" y="732.271"/>
      <point x="218.331" y="781.872"/>
      <point x="267.932" y="812.095"/>
      <point x="299" y="812.095" type="qcurve" smooth="yes"/>
      <point x="331.068" y="812.095"/>
      <point x="380.669" y="781.872"/>
      <point x="409.737" y="732.271"/>
      <point x="409.737" y="702.203" type="qcurve" smooth="yes"/>
      <point x="409.737" y="672.291"/>
      <point x="380.669" y="623.689"/>
      <point x="331.068" y="594.466"/>
    </contour>
    <contour>
      <point x="299" y="636.271" type="qcurve" smooth="yes"/>
      <point x="328.466" y="636.271"/>
      <point x="365.243" y="674.048"/>
      <point x="365.243" y="702.203" type="qcurve" smooth="yes"/>
      <point x="365.243" y="730.514"/>
      <point x="327.622" y="769.446"/>
      <point x="299" y="769.446" type="qcurve" smooth="yes"/>
      <point x="271.378" y="769.446"/>
      <point x="233.757" y="731.514"/>
      <point x="233.757" y="702.203" type="qcurve" smooth="yes"/>
      <point x="233.757" y="673.892"/>
      <point x="270.378" y="636.271"/>
    </contour>
  </outline>
</glyph>
<glyph name="uni030B" format="2">
  <unicode hex="030B"/>
  <anchor x="300" y="562" name="_t.uni0308"/>
  <anchor x="300" y="562" name="_t.uni0308_2"/>
  <anchor x="300" y="562" name="_m.uni0308"/>
  <anchor x="300" y="809" name="m.uni0308"/>
  <outline>
    <contour>
      <point x="346.709" y="607" type="line"/>
      <point x="435.749" y="737.271" type="line"/>
      <point x="537.318" y="737.271" type="line"/>
      <point x="427.764" y="607" type="line"/>
    </contour>
    <contour>
      <point x="172.236" y="607" type="line"/>
      <point x="262.12" y="737.271" type="line"/>
      <point x="363.689" y="737.271" type="line"/>
      <point x="253.291" y="607" type="line"/>
    </contour>
  </outline>
</glyph>
<glyph name="uni030C" format="2">
  <unicode hex="030C"/>
  <anchor x="300" y="562" name="_t.uni0308"/>
  <anchor x="300" y="562" name="_t.uni0308_2"/>
  <anchor x="300" y="562" name="_m.uni0308"/>
  <anchor x="300" y="799" name="m.uni0308"/>
  <outline>
    <contour>
      <point x="254.439" y="607" type="line"/>
      <point x="121.459" y="737.271" type="line"/>
      <point x="207.581" y="737.271" type="line"/>
      <point x="340.163" y="627.757" type="line"/>
      <point x="259.837" y="627.757" type="line"/>
      <point x="392.419" y="737.271" type="line"/>
      <point x="478.541" y="737.271" type="line"/>
      <point x="345.561" y="607" type="line"/>
    </contour>
  </outline>
</glyph>
<glyph name="uni030F" format="2">
  <unicode hex="030F"/>
  <anchor x="300" y="562" name="_t.uni0308"/>
  <anchor x="300" y="562" name="_t.uni0308_2"/>
  <anchor x="300" y="562" name="_m.uni0308"/>
  <anchor x="300" y="809" name="m.uni0308"/>
  <outline>
    <contour>
      <point x="346.709" y="607" type="line"/>
      <point x="236.311" y="737.271" type="line"/>
      <point x="337.88" y="737.271" type="line"/>
      <point x="427.764" y="607" type="line"/>
    </contour>
    <contour>
      <point x="172.236" y="607" type="line"/>
      <point x="62.6817" y="737.271" type="line"/>
      <point x="164.251" y="737.271" type="line"/>
      <point x="253.291" y="607" type="line"/>
    </contour>
  </outline>
</glyph>
<glyph name="uni0311" format="2">
  <unicode hex="0311"/>
  <anchor x="300" y="562" name="_t.uni0308"/>
  <anchor x="300" y="562" name="_t.uni0308_2"/>
  <anchor x="300" y="562" name="_m.uni0308"/>
  <anchor x="300" y="799" name="m.uni0308"/>
  <outline>
    <contour>
      <point x="137.594" y="607" type="line"/>
      <point x="140.439" y="670.135"/>
      <point x="232.486" y="742.804"/>
      <point x="300" y="742.804" type="qcurve" smooth="yes"/>
      <point x="367.514" y="742.804"/>
      <point x="459.717" y="670.135"/>
      <point x="462.406" y="607" type="qcurve"/>
      <point x="396.952" y="607" type="line"/>
      <point x="395.952" y="644.243"/>
      <point x="339.399" y="687.486"/>
      <point x="300" y="687.486" type="qcurve" smooth="yes"/>
      <point x="260.757" y="687.486"/>
      <point x="205.048" y="644.243"/>
      <point x="203.048" y="607" type="qcurve"/>
    </contour>
  </outline>
</glyph>
<glyph name="uni0312" format="2">
  <unicode hex="0312"/>
  <anchor x="300" y="562" name="_t.uni0308"/>
  <anchor x="300" y="562" name="_t.uni0308_2"/>
  <anchor x="300" y="562" name="_m.uni0308"/>
  <anchor x="300" y="853" name="m.uni0308"/>
  <outline>
    <contour>
      <point x="300" y="601.466" type="qcurve" smooth="yes"/>
      <point x="272.797" y="601.466"/>
      <point x="244.439" y="627.757"/>
      <point x="244.439" y="646.892" type="qcurve" smooth="yes"/>
      <point x="244.439" y="657.426"/>
      <point x="250.972" y="680.561"/>
      <point x="258.729" y="697.007" type="qcurve"/>
      <point x="296.02" y="791.095" type="line"/>
      <point x="351.183" y="791.095" type="line"/>
      <point x="311.98" y="655.98" type="line"/>
      <point x="300" y="692.318" type="line"/>
      <point x="326.203" y="692.318"/>
      <point x="355.561" y="668.028"/>
      <point x="355.561" y="646.892" type="qcurve" smooth="yes"/>
      <point x="355.561" y="626.757"/>
      <point x="327.048" y="601.466"/>
    </contour>
  </outline>
</glyph>
<glyph name="uni031B" format="2">
  <unicode hex="031B"/>
  <anchor x="300" y="562" name="_t.uni031B_2"/>
  <outline>
    <contour>
      <point x="282.399" y="457.459" type="line"/>
      <point x="282.399" y="529.669" type="line"/>
      <point x="300" y="529.669" type="line" smooth="yes"/>
      <point x="333.088" y="529.669"/>
      <point x="364.088" y="567.446"/>
      <point x="364.088" y="595.446" type="qcurve" smooth="yes"/>
      <point x="364.088" y="613.757"/>
      <point x="352.932" y="645.912"/>
      <point x="344.088" y="658.223" type="qcurve"/>
      <point x="405.163" y="681.426" type="line"/>
      <point x="418.541" y="663.892"/>
      <point x="433.075" y="618.135"/>
      <point x="433.075" y="592.223" type="qcurve" smooth="yes"/>
      <point x="433.075" y="531.574"/>
      <point x="363.358" y="457.459"/>
      <point x="300" y="457.459" type="qcurve" smooth="yes"/>
    </contour>
  </outline>
</glyph>
<glyph name="dotbelowcomb" format="2">
  <unicode hex="0323"/>
  <anchor x="300" y="-229" name="t.uni0324"/>
  <outline>
    <contour>
      <point x="300" y="-196.271" type="qcurve" smooth="yes"/>
      <point x="279.02" y="-196.271"/>
      <point x="248.662" y="-168.446"/>
      <point x="248.662" y="-145.777" type="qcurve" smooth="yes"/>
      <point x="248.662" y="-122.952"/>
      <point x="279.02" y="-93.594"/>
      <point x="300" y="-93.594" type="qcurve" smooth="yes"/>
      <point x="321.135" y="-93.594"/>
      <point x="351.338" y="-122.952"/>
      <point x="351.338" y="-145.777" type="qcurve" smooth="yes"/>
      <point x="351.338" y="-168.446"/>
      <point x="321.135" y="-196.271"/>
    </contour>
  </outline>
</glyph>
<glyph name="uni0324" format="2">
  <unicode hex="0324"/>
  <anchor x="300" y="-206" name="t.uni0324"/>
  <outline>
    <contour>
      <point x="386.825" y="-192.892" type="qcurve" smooth="yes"/>
      <point x="366.689" y="-192.892"/>
      <point x="337.175" y="-165.068"/>
      <point x="337.175" y="-143.243" type="qcurve" smooth="yes"/>
      <point x="337.175" y="-122.108"/>
      <point x="366.689" y="-93.594"/>
      <point x="386.825" y="-93.594" type="qcurve" smooth="yes"/>
      <point x="407.115" y="-93.594"/>
      <point x="436.474" y="-122.108"/>
      <point x="436.474" y="-143.243" type="qcurve" smooth="yes"/>
      <point x="436.474" y="-165.068"/>
      <point x="407.115" y="-192.892"/>
    </contour>
    <contour>
      <point x="213.175" y="-192.892" type="qcurve" smooth="yes"/>
      <point x="193.04" y="-192.892"/>
      <point x="164.371" y="-165.068"/>
      <point x="164.371" y="-143.243" type="qcurve" smooth="yes"/>
      <point x="164.371" y="-122.108"/>
      <point x="193.04" y="-93.594"/>
      <point x="213.175" y="-93.594" type="qcurve" smooth="yes"/>
      <point x="234.311" y="-93.594"/>
      <point x="263.669" y="-122.108"/>
      <point x="263.669" y="-143.243" type="qcurve" smooth="yes"/>
      <point x="263.669" y="-165.068"/>
      <point x="234.311" y="-192.892"/>
    </contour>
  </outline>
</glyph>
<glyph name="uni0326" format="2">
  <unicode hex="0326"/>
  <anchor x="300" y="-229" name="t.uni0324"/>
  <outline>
    <contour>
      <point x="257.885" y="-263.223" type="line"/>
      <point x="290.554" y="-148.952" type="line"/>
      <point x="300" y="-185.291" type="line"/>
      <point x="276.486" y="-185.291"/>
      <point x="248.662" y="-160"/>
      <point x="248.662" y="-139.865" type="qcurve" smooth="yes"/>
      <point x="248.662" y="-119.574"/>
      <point x="277.175" y="-93.594"/>
      <point x="300" y="-93.594" type="qcurve" smooth="yes"/>
      <point x="323.825" y="-93.594"/>
      <point x="351.338" y="-120.729"/>
      <point x="351.338" y="-139.865" type="qcurve" smooth="yes"/>
      <point x="351.338" y="-150.399"/>
      <point x="345.649" y="-175.689"/>
      <point x="337.737" y="-191.291" type="qcurve"/>
      <point x="307.98" y="-263.223" type="line"/>
    </contour>
  </outline>
</glyph>
<glyph name="uni0327" format="2">
  <unicode hex="0327"/>
  <outline>
    <contour>
      <point x="274.709" y="-223.98" type="qcurve" smooth="yes"/>
      <point x="248.642" y="-223.98"/>
      <point x="205.04" y="-212.669"/>
      <point x="186.351" y="-202.048" type="qcurve"/>
      <point x="206.642" y="-153.263" type="line"/>
      <point x="222.865" y="-161.729"/>
      <point x="255.865" y="-170.351"/>
      <point x="274.554" y="-170.351" type="qcurve" smooth="yes"/>
      <point x="303.865" y="-170.351"/>
      <point x="331.351" y="-148.642"/>
      <point x="331.351" y="-129.777" type="qcurve" smooth="yes"/>
      <point x="331.351" y="-112.223"/>
      <point x="303.642" y="-90.8922"/>
      <point x="273.865" y="-90.8922" type="qcurve" smooth="yes"/>
      <point x="246.885" y="-90.8922" type="line"/>
      <point x="272.263" y="6.68922" type="line"/>
      <point x="326.737" y="6.68922" type="line"/>
      <point x="312.271" y="-50.0877" type="line"/>
      <point x="355.338" y="-53.7769"/>
      <point x="399.494" y="-100"/>
      <point x="399.494" y="-133.155" type="qcurve" smooth="yes"/>
      <point x="399.494" y="-175.068"/>
      <point x="330.601" y="-223.98"/>
    </contour>
  </outline>
</glyph>
<glyph name="uni0328" format="2">
  <unicode hex="0328"/>
  <anchor x="300" y="0" name="_m.uni0328_4"/>
  <outline>
    <contour>
      <point x="233.175" y="-223.98" type="qcurve" smooth="yes"/>
      <point x="177.283" y="-223.98"/>
      <point x="113.459" y="-168.155"/>
      <point x="113.459" y="-123.243" type="qcurve" smooth="yes"/>
      <point x="113.459" y="-96.3308"/>
      <point x="140.371" y="-41.5739"/>
      <point x="203.594" y="10.4261"/>
      <point x="256.371" y="32.0476" type="qcurve"/>
      <point x="301" y="0" type="line"/>
      <point x="256.98" y="-19.6216"/>
      <point x="204.669" y="-58.1754"/>
      <point x="181.601" y="-95.9524"/>
      <point x="181.601" y="-115.642" type="qcurve" smooth="yes"/>
      <point x="181.601" y="-140.885"/>
      <point x="216.689" y="-167.817"/>
      <point x="243.466" y="-167.817" type="qcurve" smooth="yes"/>
      <point x="259.622" y="-167.817"/>
      <point x="292.622" y="-158.351"/>
      <point x="304.622" y="-150.729" type="qcurve"/>
      <point x="323.223" y="-200.358" type="line"/>
      <point x="304.689" y="-210.98"/>
      <point x="258.399" y="-223.98"/>
    </contour>
  </outline>
</glyph>
<glyph name="uni032E" format="2">
  <unicode hex="032E"/>
  <anchor x="300" y="-232" name="t.uni0324"/>
  <outline>
    <contour>
      <point x="300" y="-208.98" type="qcurve" smooth="yes"/>
      <point x="232.486" y="-208.98"/>
      <point x="140.439" y="-139.155"/>
      <point x="137.594" y="-80.7093" type="qcurve"/>
      <point x="200.514" y="-80.7093" type="line"/>
      <point x="200.825" y="-115.797"/>
      <point x="258.223" y="-156.196"/>
      <point x="300" y="-156.196" type="qcurve" smooth="yes"/>
      <point x="341.932" y="-156.196"/>
      <point x="399.331" y="-115.797"/>
      <point x="399.486" y="-80.7093" type="qcurve"/>
      <point x="462.406" y="-80.7093" type="line"/>
      <point x="459.717" y="-139.155"/>
      <point x="367.514" y="-208.98"/>
    </contour>
  </outline>
</glyph>
<glyph name="uni0331" format="2">
  <unicode hex="0331"/>
  <anchor x="300" y="-204" name="t.uni0324"/>
  <outline>
    <contour>
      <point x="136.972" y="-173.514" type="line"/>
      <point x="136.972" y="-112.972" type="line"/>
      <point x="463.028" y="-112.972" type="line"/>
      <point x="463.028" y="-173.514" type="line"/>
    </contour>
  </outline>
</glyph>
<glyph name="uni0335" format="2">
  <unicode hex="0335"/>
  <anchor x="300" y="429" name="_t.uni0307_1"/>
  <outline>
    <contour>
      <point x="101.709" y="404.128" type="line"/>
      <point x="101.709" y="472.115" type="line"/>
      <point x="498.291" y="472.115" type="line"/>
      <point x="498.291" y="404.128" type="line"/>
    </contour>
  </outline>
</glyph>
<glyph name="uni0336" format="2">
  <unicode hex="0336"/>
  <anchor x="544" y="429" name="_t.uni0307_1"/>
  <outline>
    <contour>
      <point x="33.1153" y="398.216" type="line"/>
      <point x="33.1153" y="477.183" type="line"/>
      <point x="840.366" y="477.183" type="line"/>
      <point x="840.366" y="398.216" type="line"/>
    </contour>
  </outline>
</glyph>
<glyph name="uni0337" format="2">
  <unicode hex="0337"/>
  <anchor x="364" y="412" name="_t.uni0307_1"/>
  <outline>
    <contour>
      <point x="95.7844" y="256.769" type="line"/>
      <point x="52.6892" y="313.845" type="line"/>
      <point x="318.326" y="515.812" type="line"/>
      <point x="361.421" y="457.892" type="line"/>
    </contour>
  </outline>
</glyph>
<glyph name="uni0338" format="2">
  <unicode hex="0338"/>
  <anchor x="337" y="282" name="_t.uni0307_1"/>
  <outline>
    <contour>
      <point x="61.2431" y="-70" type="line"/>
      <point x="502.175" y="598.825" type="line"/>
      <point x="561.494" y="598.825" type="line"/>
      <point x="120.561" y="-70" type="line"/>
    </contour>
  </outline>
</glyph>
<glyph name="tonos" format="2">
  <advance width="164"/>
  <unicode hex="0384"/>
  <anchor x="-35.4261" y="809" name="t.uni0308"/>
  <anchor x="-35.4261" y="0" name="b.uni0324_3"/>
  <anchor x="122.574" y="0" name="m.uni0328_4"/>
  <outline>
    <contour>
      <point x="5.17545" y="607" type="line"/>
      <point x="47.2431" y="737.271" type="line"/>
      <point x="154.947" y="737.271" type="line"/>
      <point x="81.7644" y="607" type="line"/>
    </contour>
  </outline>
</glyph>
<glyph name="Alphatonos" format="2">
  <advance width="732"/>
  <unicode hex="0386"/>
  <anchor x="429" y="700" name="t.uni0308"/>
  <anchor x="429" y="0" name="b.uni0324_3"/>
  <anchor x="889" y="0" name="m.uni0328_4"/>
  <outline>
    <contour>
      <point x="-1.13533" y="0" type="line"/>
      <point x="316.263" y="700" type="line"/>
      <point x="414.812" y="700" type="line"/>
      <point x="733.055" y="0" type="line"/>
      <point x="628.128" y="0" type="line"/>
      <point x="344.912" y="644.303" type="line"/>
      <point x="385.318" y="644.303" type="line"/>
      <point x="102.103" y="0" type="line"/>
    </contour>
    <contour>
      <point x="133.737" y="174.682" type="line"/>
      <point x="161.474" y="255.338" type="line"/>
      <point x="555.088" y="255.338" type="line"/>
      <point x="583.669" y="174.682" type="line"/>
    </contour>
    <contour>
      <point x="42.3308" y="607" type="line"/>
      <point x="84.3985" y="737.271" type="line"/>
      <point x="192.103" y="737.271" type="line"/>
      <point x="118.92" y="607" type="line"/>
    </contour>
  </outline>
</glyph>
<glyph name="Epsilontonos" format="2">
  <advance width="793"/>
  <unicode hex="0388"/>
  <anchor x="457.86" y="700" name="t.uni0308"/>
  <anchor x="449.86" y="0" name="b.uni0324_3"/>
  <anchor x="778.86" y="0" name="m.uni0328_4"/>
  <outline>
    <contour>
      <point x="319.002" y="397.94" type="line"/>
      <point x="678.752" y="397.94" type="line"/>
      <point x="678.752" y="313.06" type="line"/>
      <point x="319.002" y="313.06" type="line"/>
    </contour>
    <contour>
      <point x="327.381" y="86.5689" type="line"/>
      <point x="736.218" y="86.5689" type="line"/>
      <point x="736.218" y="0" type="line"/>
      <point x="227.987" y="0" type="line"/>
      <point x="227.987" y="700" type="line"/>
      <point x="722.063" y="700" type="line"/>
      <point x="722.063" y="613.431" type="line"/>
      <point x="327.381" y="613.431" type="line"/>
    </contour>
    <contour>
      <point x="20.4862" y="607" type="line"/>
      <point x="62.5539" y="737.271" type="line"/>
      <point x="170.258" y="737.271" type="line"/>
      <point x="97.0752" y="607" type="line"/>
    </contour>
  </outline>
</glyph>
<glyph name="Etatonos" format="2">
  <advance width="924"/>
  <unicode hex="0389"/>
  <anchor x="511.15" y="700" name="t.uni0308"/>
  <anchor x="511.15" y="594" name="t.uni0307_1"/>
  <anchor x="511.15" y="0" name="b.uni0324_3"/>
  <outline>
    <contour>
      <point x="719.406" y="700" type="line"/>
      <point x="818.799" y="700" type="line"/>
      <point x="818.799" y="0" type="line"/>
      <point x="719.406" y="0" type="line"/>
    </contour>
    <contour>
      <point x="316.672" y="0" type="line"/>
      <point x="217.278" y="0" type="line"/>
      <point x="217.278" y="700" type="line"/>
      <point x="316.672" y="700" type="line"/>
    </contour>
    <contour>
      <point x="727.784" y="312.216" type="line"/>
      <point x="307.449" y="312.216" type="line"/>
      <point x="307.449" y="398.784" type="line"/>
      <point x="727.784" y="398.784" type="line"/>
    </contour>
    <contour>
      <point x="7.86467" y="607" type="line"/>
      <point x="49.9323" y="737.271" type="line"/>
      <point x="157.637" y="737.271" type="line"/>
      <point x="84.4536" y="607" type="line"/>
    </contour>
  </outline>
</glyph>
<glyph name="Iotatonos" format="2">
  <advance width="426"/>
  <unicode hex="038A"/>
  <anchor x="305.549" y="700" name="t.uni0308"/>
  <anchor x="305.549" y="0" name="b.uni0324_3"/>
  <anchor x="470.549" y="0" name="m.uni0328_4"/>
  <outline>
    <contour>
      <point x="221.677" y="0" type="line"/>
      <point x="221.677" y="700" type="line"/>
      <point x="321.07" y="700" type="line"/>
      <point x="321.07" y="0" type="line"/>
    </contour>
    <contour>
      <point x="8.3985" y="607" type="line"/>
      <point x="50.4662" y="737.271" type="line"/>
      <point x="158.17" y="737.271" type="line"/>
      <point x="84.9874" y="607" type="line"/>
    </contour>
  </outline>
</glyph>
<glyph name="Upsilontonos" format="2">
  <advance width="871"/>
  <unicode hex="038E"/>
  <anchor x="600.744" y="700" name="t.uni0308"/>
  <anchor x="591.744" y="277" name="t.uni0307_1"/>
  <anchor x="600.744" y="0" name="b.uni0324_3"/>
  <outline>
    <contour>
      <point x="497.629" y="0" type="line"/>
      <point x="497.629" y="267.804" type="line"/>
      <point x="520.366" y="206.351" type="line"/>
      <point x="220.231" y="700" type="line"/>
      <point x="326.847" y="700" type="line"/>
      <point x="580.043" y="283.406" type="line"/>
      <point x="521.366" y="283.406" type="line"/>
      <point x="775.406" y="700" type="line"/>
      <point x="874.421" y="700" type="line"/>
      <point x="574.286" y="206.351" type="line"/>
      <point x="597.022" y="267.804" type="line"/>
      <point x="597.022" y="0" type="line"/>
    </contour>
    <contour>
      <point x="10.3308" y="607" type="line"/>
      <point x="52.3985" y="737.271" type="line"/>
      <point x="160.103" y="737.271" type="line"/>
      <point x="86.9198" y="607" type="line"/>
    </contour>
  </outline>
</glyph>
<glyph name="Omegatonos" format="2">
  <advance width="898"/>
  <unicode hex="038F"/>
  <outline>
    <contour>
      <point x="9.15539" y="0" type="line"/>
      <point x="9.15539" y="86.7243" type="line"/>
      <point x="205.384" y="86.7243" type="line"/>
      <point x="144.702" y="135.123"/>
      <point x="78.2632" y="274.96"/>
      <point x="78.2632" y="359.291" type="qcurve" smooth="yes"/>
      <point x="78.2632" y="436.135"/>
      <point x="133.952" y="564.135"/>
      <point x="235.175" y="657.601"/>
      <point x="370.399" y="708.068"/>
      <point x="449.088" y="708.068" type="qcurve" smooth="yes"/>
      <point x="528.622" y="708.068"/>
      <point x="663" y="657.601"/>
      <point x="764.223" y="564.135"/>
      <point x="819.912" y="436.135"/>
      <point x="819.912" y="359.291" type="qcurve" smooth="yes"/>
      <point x="819.912" y="274.96"/>
      <point x="753.474" y="135.123"/>
      <point x="692.792" y="86.7243" type="qcurve"/>
      <point x="889.02" y="86.7243" type="line"/>
      <point x="889.02" y="0" type="line"/>
      <point x="542.837" y="0" type="line"/>
      <point x="542.837" y="80.6566" type="line"/>
      <point x="629.411" y="124.677"/>
      <point x="719.674" y="269.271"/>
      <point x="719.674" y="354.223" type="qcurve" smooth="yes"/>
      <point x="719.674" y="412.709"/>
      <point x="679.654" y="510.06"/>
      <point x="607.925" y="580.79"/>
      <point x="508.419" y="618.965"/>
      <point x="449.088" y="618.965" type="qcurve" smooth="yes"/>
      <point x="389.757" y="618.965"/>
      <point x="290.251" y="580.79"/>
      <point x="218.521" y="510.06"/>
      <point x="178.501" y="412.709"/>
      <point x="178.501" y="354.223" type="qcurve" smooth="yes"/>
      <point x="178.501" y="269.271"/>
      <point x="268.764" y="123.832"/>
      <point x="355.338" y="80.6566" type="qcurve"/>
      <point x="355.338" y="0" type="line"/>
    </contour>
    <contour>
      <point x="14.797" y="607" type="line"/>
      <point x="56.8647" y="737.271" type="line"/>
      <point x="164.569" y="737.271" type="line"/>
      <point x="91.3859" y="607" type="line"/>
    </contour>
  </outline>
</glyph>
